<svg version="1.2" xmlns="http://www.w3.org/2000/svg" viewBox="0 0 67 66" width="67" height="66">
	<title>SvgjsG1257-svg</title>
	<style>
		.s0 { fill: #666666 } 
		.s1 { fill: #ffffff } 
	</style>
	<path id="Layer" class="s0" d="m66.5 28.2c0.6 7.8-1.9 15.6-6.8 21.6-5 6-12.1 9.9-19.8 10.9-7.7 0.9-15.5-1.2-21.7-5.8-6.2-4.6-10.4-11.5-11.7-19.1q0 0.6 0.1 1.2c0.9 8 5 15.3 11.3 20.2 6.3 5 14.3 7.3 22.3 6.3 8-0.9 15.3-5 20.2-11.3 5-6.3 7.3-14.3 6.3-22.3q-0.1-0.8-0.2-1.7z"/>
	<path id="Layer" class="s0" d="m32.8 0c-8.7 0-17.1 3.5-23.2 9.6-6.1 6.1-9.6 14.5-9.6 23.2 0 8.6 3.5 17 9.6 23.1 6.1 6.2 14.5 9.6 23.2 9.6q0.9 0 1.8 0c-8.5-0.4-16.4-4-22.3-10.1-5.9-6.1-9.2-14.2-9.2-22.6 0-8.4 3.2-16.5 9-22.5 5.7-6.1 13.6-9.8 22-10.2q-0.7-0.1-1.3-0.1z"/>
	<path id="Layer" fill-rule="evenodd" class="s0" d="m34.8 35.9v-3.7h-3.7v3.7zm4.8 0v-3.7h-3.7v3.7zm-4.8 4.6v-3.7h-3.8v3.7zm4.9 0v-3.7h-3.7v3.7zm26.7-12.3q0 0 0 0z"/>
	<path id="Layer" class="s1" d="m35.2 18.2l-22.4 20.9 22.5-12.4 24.5 14-8.3-7.6h0.1v-8h-4.5v4z"/>
</svg>