<svg width="67" height="66" viewBox="0 0 67 66" fill="none" xmlns="http://www.w3.org/2000/svg">
<path d="M66.4691 28.2344C67.0748 36.0271 64.6451 43.7529 59.6878 49.7959C54.7284 55.8409 47.6232 59.7346 39.8592 60.661C32.1749 61.566 24.4358 59.4957 18.2288 54.8744C12.0224 50.2538 7.8195 43.433 6.48278 35.8109C6.50152 36.2125 6.52963 36.6142 6.56377 37.0144C7.50623 44.9926 11.58 52.2692 17.8874 57.2439C24.1955 62.2193 32.2211 64.4844 40.1999 63.542C48.1774 62.5995 55.454 58.5257 60.4287 52.2183C65.4041 45.9103 67.6699 37.8846 66.7268 29.9065C66.6572 29.3469 66.5708 28.7893 66.4691 28.2344Z" fill="#F5F5F5"/>
<path d="M32.76 0C24.0716 0 15.7394 3.4519 9.59532 9.59532C3.4519 15.7394 0 24.0716 0 32.7606C0 41.449 3.4519 49.7819 9.59532 55.9259C15.7394 62.0694 24.0716 65.5213 32.76 65.5213C33.3731 65.5213 33.9856 65.4952 34.5974 65.4563C26.1467 65.121 18.1545 61.5305 12.2908 55.4366C6.42722 49.3428 3.14667 41.2174 3.13663 32.7606C3.13663 24.3923 6.34623 16.3425 12.0974 10.2627C17.8479 4.18285 25.7069 0.534152 34.0625 0.0655975C33.6288 0.0348068 33.195 0.0120485 32.76 0Z" fill="#F5F5F5"/>
<path fill-rule="evenodd" clip-rule="evenodd" d="M66.4691 28.221V28.2344C66.4691 28.2344 66.4684 28.2344 66.4691 28.221ZM31.1133 35.9026V32.1662H34.849V35.9026H31.1133ZM35.9247 35.9026V32.1662H39.6611V35.9026H35.9247ZM31.1133 40.5259V36.7895H34.849V40.5259H31.1133ZM36.0191 40.5259V36.7895H39.7555V40.5259H36.0191Z" fill="#F5F5F5"/>
<path d="M35.2172 18.2321L12.8042 39.1196L35.2727 26.6654L59.7634 40.722L51.4546 33.1087H51.6099V25.0931H47.079V29.0999L35.2172 18.2321Z" fill="#F5F5F5"/>
</svg>
