<svg width="97" height="141" viewBox="0 0 97 141" fill="none" xmlns="http://www.w3.org/2000/svg">
<path d="M1 151H95.2797V126.424H43.161L79.3898 79.178C88.2881 67.5254 92.1017 55.8729 92.1017 44.0085C92.1017 19.0085 76 1 47.822 1C23.0339 1 4.81356 17.9491 3.33051 40.4068L27.9068 45.0678C29.6017 32.5678 36.5932 25.5763 47.1864 25.5763C59.2627 25.5763 65.4068 32.9915 65.4068 45.0678C65.4068 53.5424 62.8644 60.7458 53.9661 71.9746L1 140.407V151Z" fill="black" fill-opacity="0.75"/>
<path d="M0.5 151V151.5H1H95.2797H95.7797V151V126.424V125.924H95.2797H44.1745L79.7866 79.4822L79.7872 79.4814C88.7463 67.7492 92.6017 55.9917 92.6017 44.0085C92.6017 31.4004 88.5397 20.5138 80.884 12.7775C73.2267 5.0396 62.0203 0.5 47.822 0.5C22.7893 0.5 4.33321 17.6351 2.8316 40.3738L2.80243 40.8155L3.23734 40.898L27.8136 45.559L28.3314 45.6572L28.4022 45.135C29.2396 38.9597 31.3779 34.1992 34.5647 30.9867C37.7442 27.7816 42.0074 26.0763 47.1864 26.0763C53.1193 26.0763 57.5255 27.8943 60.4546 31.129C63.3909 34.3717 64.9068 39.1086 64.9068 45.0678C64.9068 53.3945 62.428 60.4914 53.5742 71.664L53.5707 71.6685L0.6046 140.101L0.5 140.236V140.407V151Z" stroke="black" stroke-opacity="0.1"/>
</svg>
