<svg width="103" height="141" viewBox="0 0 103 141" fill="none" xmlns="http://www.w3.org/2000/svg">
<path d="M2 108.203C4.54237 132.992 24.0339 151 51.5763 151C80.178 151 101.788 131.932 101.788 101.212C101.788 75.1525 87.8051 57.1441 64.9237 57.1441C62.3814 57.1441 60.8983 57.3559 58.9915 57.5678L93.9492 10.322V1H8.99153V25.5763H56.2373L28.2712 63.9237L38.8644 78.7542C43.3136 76.4237 47.1271 75.5763 51.7881 75.5763C65.1356 75.5763 75.0932 84.4746 75.0932 101.636C75.0932 116.89 65.3475 126.424 51.5763 126.424C38.2288 126.424 30.8136 117.949 27.6356 104.814L2 108.203Z" fill="black" fill-opacity="0.75"/>
<path d="M1.93445 107.708L1.45307 107.771L1.50261 108.254C4.07227 133.309 23.7888 151.5 51.5763 151.5C65.9887 151.5 78.6712 146.695 87.7539 137.987C96.8395 129.277 102.288 116.695 102.288 101.212C102.288 88.0974 98.7697 76.9589 92.3232 69.0889C85.8682 61.2084 76.5077 56.6441 64.9237 56.6441C62.8804 56.6441 61.5063 56.7799 60.077 56.9414L94.3511 10.6194L94.4492 10.4869V10.322V1V0.5H93.9492H8.99153H8.49153V1V25.5763V26.0763H8.99153H55.2538L27.8672 63.6291L27.6546 63.9207L27.8643 64.2144L38.4575 79.0449L38.7107 79.3992L39.0964 79.1972C43.4708 76.9058 47.2043 76.0763 51.7881 76.0763C58.3485 76.0763 64.0354 78.2606 68.0837 82.5152C72.1334 86.7712 74.5932 93.1516 74.5932 101.636C74.5932 109.155 72.1932 115.22 68.1399 119.402C64.0872 123.584 58.3432 125.924 51.5763 125.924C45.0183 125.924 39.9558 123.846 36.1385 120.184C32.3104 116.511 29.6968 111.207 28.1216 104.696L28.0158 104.259L27.57 104.318L1.93445 107.708Z" stroke="black" stroke-opacity="0.1"/>
</svg>
