<svg width="111" height="141" viewBox="0 0 111 141" fill="none" xmlns="http://www.w3.org/2000/svg">
<path d="M65.5 151H92.5V123.143H109.214V98.2857H92.5V1H64.2143L1 109.429V123.143H65.5V151ZM33.7857 98.2857L65.5 41.0714V98.2857H33.7857Z" fill="black" fill-opacity="0.75"/>
<path d="M65 151V151.5H65.5H92.5H93V151V123.643H109.214H109.714V123.143V98.2857V97.7857H109.214H93V1V0.5H92.5H64.2143H63.927L63.7823 0.748171L0.568049 109.177L0.5 109.293V109.429V123.143V123.643H1H65V151ZM65 97.7857H34.6345L65 43.0048V97.7857Z" stroke="black" stroke-opacity="0.1"/>
</svg>
