<svg width="100" height="141" viewBox="0 0 100 141" fill="none" xmlns="http://www.w3.org/2000/svg">
<path d="M2 110.534C4.54237 135.11 24.2458 151 49.4576 151C79.1186 151 98.1864 130.025 98.1864 100.153C98.1864 71.1271 83.7797 51 52.8475 51C44.7966 51 37.5932 53.1186 31.8729 56.5085L35.2627 25.5763H89.7119V1H13.4407L5.17797 84.4746L21.9153 87.8644C28.9068 80.0254 38.2288 74.517 48.1864 74.517C63.2288 74.517 71.4915 83.6271 71.4915 100.153C71.4915 116.89 63.8644 126.424 49.4576 126.424C39.7119 126.424 30.3898 122.186 27.2119 105.873L2 110.534Z" fill="black" fill-opacity="0.75"/>
<path d="M1.9091 110.042L1.45515 110.126L1.50265 110.585C4.07463 135.448 24.0222 151.5 49.4576 151.5C64.4113 151.5 76.73 146.21 85.3085 137.122C93.8841 128.037 98.6864 115.196 98.6864 100.153C98.6864 85.5642 95.0664 73.1446 87.4952 64.3652C79.9137 55.5739 68.4284 50.5 52.8475 50.5C45.106 50.5 38.1306 52.4379 32.4771 55.5848L35.7109 26.0763H89.7119H90.2119V25.5763V1V0.5H89.7119H13.4407H12.9877L12.9431 0.950748L4.6804 84.4253L4.63589 84.8749L5.07872 84.9646L21.816 88.3545L22.0973 88.4114L22.2884 88.1972C29.2195 80.426 38.4159 75.017 48.1864 75.017C55.6046 75.017 61.2814 77.2601 65.1098 81.4739C68.9451 85.6954 70.9915 91.967 70.9915 100.153C70.9915 108.454 69.099 114.892 65.4921 119.246C61.8977 123.585 56.5433 125.924 49.4576 125.924C44.6542 125.924 40.01 124.88 36.1806 121.873C32.3542 118.868 29.2756 113.852 27.7026 105.777L27.6079 105.291L27.121 105.381L1.9091 110.042Z" stroke="black" stroke-opacity="0.1"/>
</svg>
