<?xml version="1.0" encoding="UTF-8" standalone="no"?>
<!DOCTYPE svg PUBLIC "-//W3C//DTD SVG 1.1//EN" "http://www.w3.org/Graphics/SVG/1.1/DTD/svg11.dtd">
<svg width="100%" height="100%" viewBox="0 0 975 450" version="1.1" xmlns="http://www.w3.org/2000/svg" xmlns:xlink="http://www.w3.org/1999/xlink" xml:space="preserve" xmlns:serif="http://www.serif.com/" style="fill-rule:evenodd;clip-rule:evenodd;stroke-linejoin:round;stroke-miterlimit:2;">
    <g transform="matrix(1.10149,0,0,1.10149,-1583.96,-1109.08)">
        <g transform="matrix(0.821256,0,0,0.821256,-7301.61,-5052.54)">
            <g transform="matrix(1,0,0,1,10980.8,7551.53)">
                <path d="M0,52.806L0,52.48C0,36.626 -12.1,28.779 -25.838,25.187C-16.519,21.417 -6.385,13.576 -6.385,-1.956L-6.385,-2.286C-6.385,-19.456 -21.256,-30.407 -43.481,-30.407L-90.725,-30.407L-90.725,84.035L-41.035,84.035C-16.349,84.023 0,71.939 0,52.806M-15.043,-1.147C-15.043,14.054 -27.303,22.39 -44.461,22.39L-82.227,22.39L-82.227,-22.571L-43.654,-22.571C-25.34,-22.571 -15.047,-14.071 -15.047,-1.479L-15.047,-1.147L-15.043,-1.147ZM-8.659,52.806C-8.659,67.199 -21.086,76.199 -40.71,76.199L-82.227,76.199L-82.227,30.255L-43.474,30.255C-20.922,30.255 -8.659,38.419 -8.659,52.48L-8.659,52.806ZM118.183,84.023L80.415,35.14C99.715,32.523 113.935,21.572 113.935,2.437L113.935,2.118C113.935,-17.018 97.75,-30.423 73.065,-30.423L25.002,-30.423L25.002,84.019L33.508,84.019L33.508,36.617L70.938,36.617L107.39,84.027L118.183,84.027L118.183,84.023ZM105.423,2.779C105.423,19.288 91.203,28.943 72.077,28.943L33.506,28.943L33.506,-22.563L72.58,-22.563C93.331,-22.563 105.423,-12.919 105.423,2.452L105.423,2.779ZM248.336,84.023L195.039,-31.229L186.867,-31.229L133.582,84.023L142.412,84.023L156.956,51.984L224.468,51.984L239.015,84.023L248.336,84.023ZM220.873,44.31L160.549,44.31L190.787,-21.909L220.873,44.31ZM367.124,26.814L367.124,26.482C367.124,-5.725 342.283,-30.407 306.313,-30.407L268.232,-30.407L268.232,84.031L306.313,84.031C342.283,84.023 367.124,59.015 367.124,26.814M358.299,27.14C358.299,54.445 338.186,76.199 306.313,76.199L276.724,76.199L276.724,-22.563L306.313,-22.563C338.191,-22.563 358.299,-0.329 358.299,26.814L358.299,27.14ZM468.369,84.023L468.369,76.181L401.189,76.181L401.189,-30.423L392.683,-30.423L392.683,84.023L468.369,84.023ZM571.045,84.023L571.045,76.181L497.318,76.181L497.318,30.247L562.878,30.247L562.878,22.386L497.318,22.386L497.318,-22.571L570.232,-22.571L570.232,-30.423L488.828,-30.423L488.828,84.023L571.045,84.023ZM692.78,-30.423L682.646,-30.423L639.651,31.054L596.823,-30.423L586.181,-30.423L635.232,38.734L635.232,84.027L643.721,84.027L643.721,38.579L692.78,-30.423Z" style="fill-rule:nonzero;"/>
            </g>
            <g transform="matrix(1,0,0,1,10886.5,7706.52)">
                <path d="M0,-0.232C0,-20.636 -15.668,-36.183 -38.358,-36.183L-63.396,-36.183L-63.396,35.963L-38.358,35.963C-15.686,35.963 0,20.189 0,-0.232M-8.479,-0.005C-8.479,16.053 -20.123,28.437 -38.37,28.437L-55.25,28.437L-55.25,-28.666L-38.37,-28.666C-20.12,-28.673 -8.479,-16.101 -8.479,-0.005M74.483,-36.183L22.343,-36.183L22.343,35.963L75.012,35.963L75.012,28.543L30.474,28.543L30.474,3.295L69.841,3.295L69.841,-4.128L30.474,-4.128L30.474,-28.767L74.483,-28.767L74.483,-36.183ZM125.076,25.949L99.428,-36.183L90.378,-36.183L121.399,36.475L128.601,36.475L159.614,-36.183L150.854,-36.183L125.076,25.949ZM231.132,-36.183L178.991,-36.183L178.991,35.963L231.652,35.963L231.652,28.543L187.13,28.543L187.13,3.295L226.505,3.295L226.505,-4.128L187.13,-4.128L187.13,-28.767L231.132,-28.767L231.132,-36.183ZM253.212,35.963L301.951,35.963L301.951,28.437L261.34,28.437L261.34,-36.183L253.212,-36.183L253.212,35.963ZM388.415,-0.232C388.415,-20.205 373.669,-37.429 351.722,-37.429C329.782,-37.429 314.804,-20.015 314.804,-0.005C314.804,19.971 329.542,37.197 351.497,37.197C373.468,37.197 388.415,19.768 388.415,-0.232M379.94,-0.005C379.94,16.478 368.2,29.672 351.729,29.672C335.258,29.672 323.284,16.264 323.284,-0.232C323.284,-16.707 335.025,-29.904 351.497,-29.904C368.009,-29.904 379.94,-16.5 379.94,-0.005M464.774,-13.193C464.774,-27.533 454.062,-36.179 437.765,-36.179L410.775,-36.179L410.775,35.963L418.903,35.963L418.903,10.51L436.438,10.51C451.802,10.498 464.774,2.448 464.774,-13.193M456.523,-12.906C456.523,-3.318 448.689,3.061 436.729,3.061L418.92,3.061L418.92,-28.673L437.167,-28.673C448.788,-28.673 456.523,-23.314 456.523,-12.906M545.661,-22.476L545.661,35.963L553.809,35.963L553.809,-36.183L545.565,-36.183L519.288,3.178L493.009,-36.183L484.768,-36.183L484.768,35.963L492.69,35.963L492.69,-22.377L518.979,16.158L519.377,16.158L545.661,-22.476ZM631.515,-36.183L579.366,-36.183L579.366,35.963L632.019,35.963L632.019,28.543L587.52,28.543L587.52,3.295L626.886,3.295L626.886,-4.128L587.52,-4.128L587.52,-28.767L631.515,-28.767L631.515,-36.183ZM706.665,21.609L661.195,-36.179L653.581,-36.179L653.581,35.963L661.499,35.963L661.499,-23.211L708.079,35.963L714.564,35.963L714.564,-36.183L706.649,-36.183L706.649,21.609L706.665,21.609ZM767.458,-28.673L791.666,-28.673L791.666,-36.183L734.997,-36.183L734.997,-28.673L759.226,-28.673L759.226,35.963L767.458,35.963L767.458,-28.673Z" style="fill-rule:nonzero;"/>
            </g>
            <g transform="matrix(1,0,0,1,10883.5,7784.64)">
                <path d="M0,52.582L0,23.82L-29.791,23.82L-29.791,31.141L-7.834,31.141L-7.834,49.07C-12.789,53.082 -20.408,56.289 -28.667,56.289C-46.172,56.289 -57.192,43.504 -57.192,26.182C-57.192,10.018 -45.763,-3.494 -29.791,-3.494C-19.6,-3.494 -13.406,-0.094 -7.834,4.746L-2.576,-1.428C-9.806,-7.502 -17.316,-11.014 -29.489,-11.014C-51.125,-11.014 -65.665,6.49 -65.665,26.408C-65.665,47.119 -51.654,63.607 -28.973,63.607C-16.787,63.607 -6.684,58.549 0,52.582M83.168,62.363L61.019,32.891C72.365,30.836 80.604,23.82 80.604,11.768C80.604,-1.213 70.4,-9.77 54.527,-9.77L23.514,-9.77L23.514,62.363L31.648,62.363L31.648,34.336L52.267,34.336L73.195,62.363L83.168,62.363ZM72.365,12.061C72.365,21.461 64.623,27.021 53.803,27.021L31.641,27.021L31.641,-2.25L53.883,-2.25C65.547,-2.262 72.365,3.107 72.365,12.061M173.549,26.182C173.549,6.197 158.828,-11.025 136.862,-11.025C114.9,-11.025 99.967,6.398 99.967,26.395C99.967,46.379 114.701,63.602 136.658,63.602C158.609,63.607 173.549,46.18 173.549,26.182M165.105,26.408C165.105,42.891 153.354,56.088 136.87,56.088C120.374,56.088 108.414,42.68 108.414,26.193C108.414,9.707 120.177,-3.482 136.67,-3.482C153.146,-3.482 165.105,9.93 165.105,26.408M254.87,-9.77L246.719,-9.77L246.719,32.162C246.719,47.941 238.277,55.977 224.98,55.977C211.166,55.977 202.92,47.223 202.92,31.658L202.92,-9.77L194.78,-9.77L194.78,32.162C194.78,52.588 206.941,63.498 224.773,63.498C242.799,63.498 254.862,52.588 254.862,31.545L254.862,-9.77L254.87,-9.77ZM333.302,13.219C333.302,-1.131 322.586,-9.77 306.295,-9.77L279.298,-9.77L279.298,62.363L287.428,62.363L287.428,36.922L304.953,36.922C320.318,36.922 333.302,28.875 333.302,13.219M325.062,13.512C325.062,23.117 317.218,29.484 305.26,29.484L287.439,29.484L287.439,-2.25L305.691,-2.25C317.315,-2.262 325.062,3.107 325.062,13.512" style="fill-rule:nonzero;"/>
            </g>
            <g transform="matrix(1,0,0,1,10826.5,7541.96)">
                <path d="M0,87.973L0,72.866L-4.701,72.866L-4.701,108.219L0,108.219L0,93.118L40.414,93.118L40.414,87.973L0,87.973ZM20.114,31.887L40.414,31.887L40.414,26.817L-4.701,26.817L-4.701,31.887L15.347,31.887L15.347,57.858L-4.701,57.858L-4.701,62.928L40.406,62.928L40.406,57.858L20.114,57.858L20.114,31.887ZM-4.701,-19.933L-4.701,12.588L40.406,12.588L40.406,-20.246L35.769,-20.246L35.769,7.502L19.979,7.502L19.979,-17.047L15.343,-17.047L15.343,7.502L-0.065,7.502L-0.065,-19.933L-4.701,-19.933Z" style="fill-rule:nonzero;"/>
            </g>
        </g>
        <g transform="matrix(2.6816,0,0,2.6816,1547.13,1029.45)">
            <g transform="matrix(1,0,0,1,-27.9949,0)">
                <rect x="0" y="0" width="35.352" height="35.352"/>
            </g>
            <g transform="matrix(1,0,0,1,-27.9949,0)">
                <path d="M28.343,22.221C29.113,20.586 29.545,18.764 29.545,16.831C29.545,12.264 27.132,8.26 23.51,6.016C20.057,8.155 17.703,11.895 17.494,16.198C21.992,16.413 25.937,18.742 28.343,22.221M23.51,27.642C25.191,26.604 26.608,25.183 27.646,23.503C25.511,20.062 21.786,17.711 17.496,17.496C17.715,21.783 20.066,25.509 23.51,27.642M29.525,29.523C29.44,27.839 29.022,26.246 28.342,24.796C27.385,26.181 26.183,27.383 24.8,28.342C26.246,29.021 27.84,29.436 29.525,29.523M16.833,29.54C18.762,29.54 20.586,29.11 22.22,28.343C18.744,25.935 16.411,21.99 16.202,17.496C11.894,17.7 8.155,20.053 6.02,23.505C8.262,27.13 12.26,29.54 16.833,29.54M4.516,23.505L4.704,23.182C7.029,19.173 11.274,16.426 16.186,16.196L16.186,16.183L16.2,16.183C16.424,11.275 19.179,7.024 23.185,4.707L23.51,4.52L23.834,4.708C28.017,7.129 30.834,11.651 30.834,16.832C30.838,19.248 30.22,21.522 29.14,23.504L29.144,23.509L29.14,23.515C30.221,25.501 30.839,27.775 30.834,30.19L30.834,30.832L30.19,30.832C27.771,30.836 25.498,30.223 23.509,29.144L23.507,29.144C21.523,30.223 19.249,30.836 16.833,30.836C11.648,30.832 7.128,28.019 4.703,23.833L4.516,23.505Z" style="fill:white;fill-rule:nonzero;"/>
            </g>
        </g>
    </g>
</svg>
