<?xml version="1.0" encoding="UTF-8" standalone="no"?>
<!DOCTYPE svg PUBLIC "-//W3C//DTD SVG 1.1//EN" "http://www.w3.org/Graphics/SVG/1.1/DTD/svg11.dtd">
<svg width="100%" height="100%" viewBox="0 0 975 450" version="1.1" xmlns="http://www.w3.org/2000/svg" xmlns:xlink="http://www.w3.org/1999/xlink" xml:space="preserve" xmlns:serif="http://www.serif.com/" style="fill-rule:evenodd;clip-rule:evenodd;stroke-linejoin:round;stroke-miterlimit:2;">
    <g transform="matrix(4.95569,0,0,4.95569,37.4995,94.1776)">
        <g transform="matrix(1,0,0,1,58.5054,51.3764)">
            <path d="M0,-49.956L0,-36.488L1.543,-36.488L1.543,-49.956L7.384,-49.956L7.384,-51.376L-5.838,-51.376L-5.838,-49.956L0,-49.956ZM10.176,-51.376L11.719,-51.376L11.719,-45.079L22.478,-45.079L22.478,-51.376L24.021,-51.376L24.021,-36.488L22.478,-36.488L22.478,-43.659L11.719,-43.659L11.719,-36.488L10.176,-36.488L10.176,-51.376ZM28.484,-51.376L28.484,-36.488L40.493,-36.488L40.493,-37.904L30.025,-37.904L30.025,-43.493L39.95,-43.493L39.95,-44.911L30.025,-44.911L30.025,-49.956L40.326,-49.956L40.326,-51.376L28.484,-51.376ZM-0.271,-32.609L8.195,-32.609C11.114,-32.609 12.345,-30.963 12.345,-28.856C12.345,-27.417 11.554,-26.084 9.778,-25.665L9.778,-25.625C11.741,-25.331 12.927,-23.893 12.927,-21.973C12.927,-18.867 10.301,-17.722 8.008,-17.722L-0.271,-17.722L-0.271,-32.609ZM1.272,-26.147L7.382,-26.147C9.466,-26.147 10.802,-26.814 10.802,-28.793C10.802,-30.608 9.593,-31.191 7.903,-31.191L1.272,-31.191L1.272,-26.147ZM1.272,-19.141L7.756,-19.141C9.758,-19.141 11.261,-19.932 11.261,-21.974C11.261,-24.124 9.928,-24.727 8.133,-24.727L1.272,-24.727L1.272,-19.141ZM16.765,-32.609L16.765,-17.722L18.309,-17.722L18.309,-24.269L24.291,-24.269C26.857,-24.269 27.859,-23.394 27.898,-20.767C27.919,-19.141 28.024,-18.034 28.295,-17.722L29.963,-17.722C29.608,-18.058 29.485,-19.871 29.442,-20.807C29.338,-23.247 28.899,-24.603 26.794,-24.937L26.794,-24.978C28.733,-25.416 29.711,-27 29.711,-28.585C29.711,-31.714 27.398,-32.609 24.876,-32.609L16.765,-32.609ZM18.309,-31.191L24.979,-31.191C26.397,-31.191 28.045,-30.774 28.045,-28.585C28.045,-26.311 26.524,-25.686 24.832,-25.686L18.309,-25.686L18.309,-31.191ZM43.892,-22.246L36.052,-22.246L34.028,-17.722L32.361,-17.722L39.117,-32.609L40.912,-32.609L47.662,-17.722L45.873,-17.722L43.892,-22.246ZM39.994,-31.066L36.678,-23.666L43.266,-23.666L39.994,-31.066ZM50.437,-32.609L50.437,-17.722L57.903,-17.722C62.074,-17.722 64.261,-20.974 64.261,-25.166C64.261,-29.836 62.01,-32.609 57.673,-32.609L50.437,-32.609ZM51.981,-31.191L57.611,-31.191C61.051,-31.191 62.596,-29.107 62.596,-25.166C62.596,-20.601 60.281,-19.141 57.611,-19.141L51.981,-19.141L51.981,-31.191ZM68.058,-32.609L69.602,-32.609L69.602,-19.141L79.045,-19.141L79.045,-17.722L68.058,-17.722L68.058,-32.609ZM81.984,-17.722L93.996,-17.722L93.996,-19.141L83.527,-19.141L83.527,-24.726L93.453,-24.726L93.453,-26.147L83.527,-26.147L83.527,-31.191L93.829,-31.191L93.829,-32.609L81.984,-32.609L81.984,-17.722ZM102.9,-23.978L96.206,-32.609L98.209,-32.609L103.668,-25.519L109.131,-32.609L111.136,-32.609L104.44,-23.978L104.44,-17.722L102.898,-17.722L102.898,-23.978L102.9,-23.978ZM-0.271,1.042L1.272,1.042L1.272,-5.21L7.069,-5.21C10.384,-5.21 12.242,-6.736 12.242,-9.551C12.242,-12.699 10.052,-13.843 7.756,-13.843L-0.271,-13.843L-0.271,1.042ZM1.272,-12.427L7.548,-12.427C9.319,-12.427 10.57,-11.781 10.57,-9.551C10.57,-7.819 9.821,-6.63 7.236,-6.63L1.272,-6.63L1.272,-12.427ZM15.432,-13.843L23.541,-13.843C26.064,-13.843 28.378,-12.948 28.378,-9.82C28.378,-8.237 27.398,-6.652 25.459,-6.214L25.459,-6.17C27.565,-5.838 28.004,-4.483 28.107,-2.043C28.15,-1.103 28.274,0.71 28.627,1.042L26.96,1.042C26.689,0.73 26.586,-0.375 26.565,-2.001C26.524,-4.629 25.523,-5.503 22.957,-5.503L16.975,-5.503L16.975,1.042L15.432,1.042L15.432,-13.843ZM16.975,-6.919L23.498,-6.919C25.189,-6.919 26.709,-7.548 26.709,-9.82C26.709,-12.009 25.064,-12.427 23.646,-12.427L16.975,-12.427L16.975,-6.919ZM31.423,-6.4C31.423,-1.145 35.28,1.42 39.514,1.42C43.746,1.42 47.604,-1.145 47.604,-6.4C47.604,-11.655 43.746,-14.22 39.514,-14.22C35.28,-14.22 31.423,-11.655 31.423,-6.4M33.09,-6.4C33.09,-10.883 36.24,-12.803 39.514,-12.803C42.786,-12.803 45.936,-10.883 45.936,-6.4C45.936,-1.917 42.786,0.001 39.514,0.001C36.24,0.001 33.091,-1.917 33.09,-6.4M50.982,-3.293C50.96,-1.145 51.962,0.126 54.274,0.126C56.34,0.126 57.592,-0.625 57.592,-3.545L57.592,-13.843L59.134,-13.843L59.134,-3.128C59.134,-0.459 57.592,1.419 54.193,1.419C49.543,1.419 49.482,-1.98 49.438,-3.836L50.982,-3.836L50.982,-3.293ZM63.533,1.042L75.542,1.042L75.542,-0.375L65.077,-0.375L65.077,-5.964L75,-5.964L75,-7.381L65.077,-7.381L65.077,-12.427L75.375,-12.427L75.375,-13.843L63.533,-13.843L63.533,1.042ZM93.412,-4.627C93.08,-1.29 90.329,1.419 86.053,1.419C81.217,1.419 78.13,-1.626 78.13,-6.4C78.13,-9.798 80.234,-14.22 86.053,-14.22C89.307,-14.22 92.829,-12.74 93.289,-8.819L91.745,-8.819C91.286,-11.657 88.742,-12.803 86.053,-12.803C82.361,-12.803 79.799,-10.737 79.799,-6.4C79.799,-3.084 81.529,0.001 86.053,0.001C89.597,0.001 91.35,-1.792 91.868,-4.627L93.412,-4.627ZM100.96,-12.427L100.96,1.044L102.503,1.044L102.503,-12.427L108.34,-12.427L108.34,-13.843L95.122,-13.843L95.122,-12.427L100.96,-12.427ZM121.122,-9.589C120.914,-12.134 118.85,-12.803 116.451,-12.803C114.053,-12.803 112.24,-11.865 112.24,-10.176C112.24,-8.237 114.053,-7.775 117.683,-7.172C120.394,-6.713 123.104,-6.088 123.104,-3.232C123.104,0.418 119.79,1.419 116.892,1.419C113.116,1.419 110.361,0.127 110.135,-3.878L111.678,-3.878C111.949,-0.749 114.034,0.001 116.892,0.001C119.121,0.001 121.438,-0.603 121.438,-2.959C121.438,-5.232 118.725,-5.503 116.016,-5.942C112.47,-6.504 110.572,-7.505 110.572,-9.903C110.572,-13.158 113.574,-14.22 116.451,-14.22C119.495,-14.22 122.562,-13.135 122.665,-9.588L121.122,-9.588L121.122,-9.589Z" style="fill-rule:nonzero;"/>
        </g>
        <g transform="matrix(1,0,0,1,51.3481,0.1351)">
            <path d="M0,51.967C-4.712,51.967 -9.345,50.759 -13.45,48.472L-13.521,48.388L-13.549,48.405L-13.635,48.356L-13.704,48.491C-17.799,50.765 -22.444,51.967 -27.146,51.967C-32.103,51.966 -36.969,50.641 -41.217,48.136C-45.34,45.704 -48.786,42.229 -51.183,38.086L-51.348,37.802L-51.183,37.52C-48.849,33.486 -45.51,30.074 -41.527,27.654C-37.431,25.166 -32.701,23.78 -27.892,23.648L-27.659,23.643L-27.659,23.562L-27.673,23.429C-27.542,18.623 -26.17,13.917 -23.681,9.82C-21.261,5.837 -17.855,2.498 -13.821,0.164L-13.543,0L-13.261,0.164C-9.116,2.56 -5.642,6.008 -3.21,10.131C-0.705,14.379 0.619,19.245 0.619,24.202C0.619,28.919 -0.592,33.584 -2.882,37.693L-2.938,37.796L-2.935,37.803L-2.936,37.806L-2.938,37.913C-0.646,42.018 0.511,46.683 0.511,51.403L0.511,51.967L0,51.967ZM-27.918,24.779C-37.016,25.037 -45.262,29.865 -49.973,37.693L-50.041,37.804L-49.973,37.915C-47.644,41.784 -44.349,45.022 -40.447,47.279C-36.422,49.607 -31.822,50.837 -27.146,50.837C-22.876,50.837 -18.79,49.852 -15.004,47.908L-14.672,47.737L-14.984,47.535C-22.692,42.557 -27.444,34.128 -27.697,24.988L-27.702,24.773L-27.918,24.779ZM-3.813,39.241C-5.939,42.537 -8.807,45.405 -12.104,47.535L-12.417,47.737L-12.086,47.908C-8.547,49.724 -4.73,50.706 -0.743,50.825L-0.516,50.832L-0.522,50.604C-0.639,46.617 -1.62,42.8 -3.44,39.259L-3.611,38.928L-3.813,39.241ZM-26.568,25.001C-26.3,34.091 -21.473,42.327 -13.655,47.03L-13.545,47.097L-13.434,47.03C-9.711,44.791 -6.558,41.639 -4.314,37.915L-4.248,37.804L-4.314,37.693C-9.019,29.875 -17.255,25.047 -26.347,24.779L-26.574,24.772L-26.568,25.001ZM-13.655,1.374C-21.48,6.084 -26.309,14.329 -26.568,23.427L-26.574,23.642L-26.358,23.648C-17.218,23.904 -8.789,28.657 -3.813,36.363L-3.611,36.676L-3.44,36.345C-1.495,32.562 -0.51,28.477 -0.51,24.202C-0.51,19.525 -1.739,14.926 -4.068,10.9C-6.325,6.997 -9.564,3.703 -13.434,1.374L-13.545,1.306L-13.655,1.374Z" style="fill-rule:nonzero;"/>
        </g>
    </g>
</svg>
