<svg width="52" height="52" viewBox="0 0 52 52" fill="none" xmlns="http://www.w3.org/2000/svg">
<path fill-rule="evenodd" clip-rule="evenodd" d="M49.3304 24.3098C49.3304 15.1645 44.424 7.21545 37.1219 2.82857C30.088 7.10366 25.3503 14.7509 25.0821 23.5274C34.1096 23.7957 42.0093 28.5642 46.6234 35.671C48.3545 32.2596 49.3304 28.3989 49.3304 24.3098ZM47.5771 37.2577C49.7044 33.423 50.916 29.0082 50.916 24.3098C50.916 14.3916 45.1165 5.60007 37.1101 1C29.4055 5.50215 23.7695 14.0087 23.4958 23.5267C13.9611 23.8019 5.48218 29.4905 1 37.2567C5.60401 45.2353 14.4141 51 24.2773 51C28.9666 51 33.373 49.786 37.2003 47.6545C41.0276 49.786 46.276 50.9453 50.9653 50.9453C50.9653 46.2469 49.7044 41.0924 47.5771 37.2577ZM45.7445 37.2577C41.4889 30.1899 33.8546 25.3944 25.0829 25.1168C25.3599 33.9056 30.1461 41.5547 37.2003 45.8185C40.6964 43.7053 43.6354 40.7606 45.7445 37.2577ZM23.4964 25.1161C14.7154 25.3854 7.07072 30.1817 2.80998 37.2577C7.19655 44.5426 15.1699 49.4113 24.2773 49.4113C28.3586 49.4113 32.2119 48.4335 35.6166 46.699C28.5236 42.076 23.7643 34.1611 23.4964 25.1161ZM46.6234 38.8444C48.2402 42.0305 49.1982 45.6085 49.3177 49.3985C45.535 49.2788 41.9638 48.319 38.7839 46.699C41.913 44.6596 44.5879 41.9795 46.6234 38.8444Z" fill="black" stroke="black" stroke-width="0.5"/>
</svg>
