<svg width="12" height="14" viewBox="0 0 12 14" fill="none" xmlns="http://www.w3.org/2000/svg">
<path fill-rule="evenodd" clip-rule="evenodd" d="M1.67775 0.5C1.77633 0.503576 1.87323 0.526563 1.96291 0.567645C2.0526 0.608728 2.13329 0.667098 2.20038 0.739413C2.26747 0.811727 2.31964 0.896567 2.35389 0.989072C2.38814 1.08158 2.40381 1.17993 2.4 1.2785L2.3265 3.257C3.39834 2.42702 4.71966 1.98447 6.07517 2.00146C7.43068 2.01844 8.7405 2.49396 9.79121 3.35053C10.8419 4.2071 11.5716 5.39424 11.8613 6.71854C12.1511 8.04283 11.9838 9.42621 11.3869 10.6433C10.7899 11.8604 9.7983 12.8394 8.57373 13.4209C7.34916 14.0024 5.96377 14.1521 4.64326 13.8456C3.32275 13.539 2.14496 12.7944 1.3018 11.7329C0.45863 10.6714 -0.000222578 9.35562 8.09959e-08 8C8.09959e-08 7.80109 0.0790179 7.61032 0.21967 7.46967C0.360322 7.32902 0.551088 7.25 0.75 7.25C0.948912 7.25 1.13968 7.32902 1.28033 7.46967C1.42098 7.61032 1.5 7.80109 1.5 8C1.50002 9.03422 1.85627 10.0369 2.50883 10.8392C3.16138 11.6416 4.07039 12.1947 5.08291 12.4055C6.09543 12.6163 7.14965 12.4718 8.06817 11.9965C8.9867 11.5212 9.71346 10.744 10.1262 9.79568C10.5389 8.84737 10.6124 7.78584 10.3342 6.78972C10.0561 5.7936 9.4433 4.92369 8.59902 4.32636C7.75473 3.72904 6.73046 3.44076 5.69856 3.51004C4.66666 3.57932 3.69011 4.00193 2.93325 4.70675L5.487 5.00525C5.68114 5.03232 5.85697 5.13432 5.97685 5.28942C6.09672 5.44452 6.1511 5.64039 6.12836 5.83509C6.10562 6.02978 6.00755 6.20784 5.85516 6.33113C5.70276 6.45443 5.50816 6.51316 5.313 6.49475L1.413 6.0395C1.22558 6.01774 1.05325 5.92614 0.930365 5.78296C0.807483 5.63978 0.743081 5.45555 0.75 5.267L0.9 1.22225C0.907422 1.02356 0.993437 0.835944 1.13914 0.70065C1.28484 0.565355 1.4783 0.493453 1.677 0.50075L1.67775 0.5Z" fill="white"/>
</svg>
