<svg width="30" height="30" viewBox="0 0 30 30" fill="none" xmlns="http://www.w3.org/2000/svg">
<circle cx="15" cy="15" r="14.5" transform="rotate(-90 15 15)" stroke="black"/>
<path d="M15.0016 11.4232C13.0152 11.4232 11.4129 13.0317 11.4129 15.0259C11.4129 17.0201 13.0152 18.6286 15.0016 18.6286C16.988 18.6286 18.5902 17.0201 18.5902 15.0259C18.5902 13.0317 16.988 11.4232 15.0016 11.4232ZM15.0016 17.3681C13.7179 17.3681 12.6685 16.3177 12.6685 15.0259C12.6685 13.7341 13.7148 12.6837 15.0016 12.6837C16.2883 12.6837 17.3346 13.7341 17.3346 15.0259C17.3346 16.3177 16.2852 17.3681 15.0016 17.3681ZM19.574 11.2758C19.574 11.743 19.1992 12.1161 18.737 12.1161C18.2716 12.1161 17.8999 11.7399 17.8999 11.2758C17.8999 10.8118 18.2747 10.4355 18.737 10.4355C19.1992 10.4355 19.574 10.8118 19.574 11.2758ZM21.9508 12.1287C21.8977 11.003 21.6416 10.0059 20.8202 9.18444C20.0019 8.36293 19.0087 8.10582 17.8875 8.04938C16.7318 7.98354 13.2682 7.98354 12.1125 8.04938C10.9944 8.10269 10.0012 8.3598 9.17981 9.1813C8.35839 10.0028 8.10541 10.9999 8.04919 12.1255C7.9836 13.2857 7.9836 16.7629 8.04919 17.9231C8.10229 19.0487 8.35839 20.0458 9.17981 20.8673C10.0012 21.6888 10.9913 21.9459 12.1125 22.0024C13.2682 22.0682 16.7318 22.0682 17.8875 22.0024C19.0087 21.9491 20.0019 21.692 20.8202 20.8673C21.6385 20.0458 21.8946 19.0487 21.9508 17.9231C22.0164 16.7629 22.0164 13.2888 21.9508 12.1287ZM20.4579 19.1679C20.2143 19.7824 19.7427 20.2559 19.1274 20.5036C18.206 20.8705 16.0197 20.7858 15.0016 20.7858C13.9834 20.7858 11.794 20.8673 10.8757 20.5036C10.2636 20.259 9.79197 19.7856 9.54523 19.1679C9.17981 18.2429 9.26414 16.0481 9.26414 15.0259C9.26414 14.0037 9.18293 11.8057 9.54523 10.8839C9.78885 10.2693 10.2605 9.79586 10.8757 9.54815C11.7971 9.1813 13.9834 9.26596 15.0016 9.26596C16.0197 9.26596 18.2091 9.18444 19.1274 9.54815C19.7395 9.79272 20.2112 10.2662 20.4579 10.8839C20.8233 11.8089 20.739 14.0037 20.739 15.0259C20.739 16.0481 20.8233 18.246 20.4579 19.1679Z" fill="black"/>
</svg>
