<svg width="975" height="450" viewBox="0 0 975 450" fill="none" xmlns="http://www.w3.org/2000/svg">
<path d="M153.155 206.612L181.171 141.961H189.38L156.952 215.232H148.743L116.007 141.961H124.832L153.155 206.612ZM246.28 185.985L230.168 149.555L213.851 185.985H246.28ZM259.107 215.232L249.358 192.964H210.773L200.819 215.232H192.609L225.858 141.961H234.683L267.933 215.232H259.107ZM340.555 162.896H332.961C331.935 150.376 321.776 147.092 309.974 147.092C298.173 147.092 289.245 151.71 289.245 160.022C289.245 169.566 298.173 171.824 316.029 174.8C329.369 177.057 342.71 180.136 342.71 194.195C342.71 212.154 326.393 217.08 312.129 217.08C293.555 217.08 280.009 210.717 278.88 191.014H286.474C287.808 206.407 298.07 210.101 312.129 210.101C323.11 210.101 334.5 207.125 334.5 195.529C334.5 184.344 321.16 183.009 307.819 180.854C290.374 178.084 281.035 173.158 281.035 161.356C281.035 145.348 295.812 140.114 309.974 140.114C324.957 140.114 340.042 145.45 340.555 162.896ZM382.832 215.232V148.939H354.098V141.961H419.159V148.939H390.426V215.232H382.832ZM500.833 141.961V186.909C500.833 200.25 497.139 217.08 468.097 217.08C439.056 217.08 435.361 200.25 435.361 186.909V141.961H442.955V186.909C442.955 206.099 455.372 210.101 468.097 210.101C480.822 210.101 493.239 206.099 493.239 186.909V141.961H500.833ZM525.29 215.232V141.961H532.884V181.573L580.192 141.961H591.172L554.845 172.234L593.635 215.232H582.86L548.893 177.365L532.884 190.501V215.232H525.29ZM655.64 185.985L639.528 149.555L623.212 185.985H655.64ZM668.468 215.232L658.719 192.964H620.133L610.179 215.232H601.969L635.218 141.961H644.044L677.293 215.232H668.468ZM693.885 215.232V141.961H733.804C746.221 141.961 757.612 146.374 757.612 161.767C757.612 169.566 752.789 177.365 743.245 179.52V179.726C753.61 181.368 755.765 188.038 756.278 200.044C756.483 204.662 757.099 213.59 758.844 215.232H750.634C749.3 213.693 748.787 208.254 748.684 200.25C748.479 187.32 743.553 183.009 730.931 183.009H701.479V215.232H693.885ZM701.479 148.939V176.031H733.599C741.911 176.031 749.402 172.953 749.402 161.767C749.402 150.992 741.295 148.939 734.317 148.939H701.479ZM170.601 308.985L154.489 272.555L138.173 308.985H170.601ZM183.428 338.232L173.679 315.964H135.094L125.14 338.232H116.93L150.179 264.961H159.005L192.254 338.232H183.428ZM208.845 338.232V264.961H248.765C261.182 264.961 272.573 269.374 272.573 284.767C272.573 292.566 267.75 300.365 258.206 302.52V302.726C268.571 304.368 270.726 311.038 271.239 323.044C271.444 327.662 272.06 336.59 273.804 338.232H265.595C264.261 336.693 263.748 331.254 263.645 323.25C263.44 310.32 258.514 306.009 245.892 306.009H216.439V338.232H208.845ZM216.439 271.939V299.031H248.56C256.872 299.031 264.363 295.953 264.363 284.767C264.363 273.992 256.256 271.939 249.278 271.939H216.439ZM357.975 310.32H365.569C363.927 326.739 350.381 340.08 329.344 340.08C305.536 340.08 290.348 325.097 290.348 301.597C290.348 284.87 300.713 263.114 329.344 263.114C345.353 263.114 362.696 270.4 364.953 289.693H357.359C355.102 275.736 342.582 270.092 329.344 270.092C311.18 270.092 298.558 280.252 298.558 301.597C298.558 317.913 307.075 333.101 329.344 333.101C346.789 333.101 355.409 324.276 357.975 310.32ZM385.829 338.232V264.961H393.423V295.953H446.375V264.961H453.969V338.232H446.375V302.931H393.423V338.232H385.829ZM477.562 338.232V264.961H485.156V338.232H477.562ZM530.481 338.232V271.939H501.747V264.961H566.809V271.939H538.075V338.232H530.481ZM583.832 338.232V264.961H642.12V271.939H591.426V296.774H640.273V303.752H591.426V331.254H642.941V338.232H583.832ZM727.149 310.32H734.743C733.101 326.739 719.555 340.08 698.518 340.08C674.71 340.08 659.522 325.097 659.522 301.597C659.522 284.87 669.887 263.114 698.518 263.114C714.527 263.114 731.869 270.4 734.127 289.693H726.533C724.276 275.736 711.756 270.092 698.518 270.092C680.354 270.092 667.732 280.252 667.732 301.597C667.732 317.913 676.249 333.101 698.518 333.101C715.963 333.101 724.583 324.276 727.149 310.32ZM776.759 338.232V271.939H748.025V264.961H813.087V271.939H784.353V338.232H776.759ZM886.14 285.896H878.546C877.52 273.376 867.361 270.092 855.559 270.092C843.758 270.092 834.83 274.71 834.83 283.022C834.83 292.566 843.758 294.824 861.614 297.8C874.955 300.057 888.295 303.136 888.295 317.195C888.295 335.154 871.979 340.08 857.714 340.08C839.14 340.08 825.594 333.717 824.465 314.014H832.059C833.393 329.407 843.655 333.101 857.714 333.101C868.695 333.101 880.086 330.125 880.086 318.529C880.086 307.344 866.745 306.009 853.404 303.854C835.959 301.084 826.62 296.158 826.62 284.356C826.62 268.348 841.398 263.114 855.559 263.114C870.542 263.114 885.627 268.45 886.14 285.896Z" fill="black"/>
<path d="M153.155 206.612L153.116 206.629L153.155 206.719L153.195 206.629L153.155 206.612ZM181.171 141.961V141.918H181.143L181.131 141.944L181.171 141.961ZM189.38 141.961L189.419 141.978L189.446 141.918H189.38V141.961ZM156.952 215.232V215.275H156.98L156.991 215.25L156.952 215.232ZM148.743 215.232L148.704 215.25L148.715 215.275H148.743V215.232ZM116.007 141.961V141.918H115.941L115.968 141.979L116.007 141.961ZM124.832 141.961L124.871 141.944L124.86 141.918H124.832V141.961ZM153.195 206.629L181.21 141.978L181.131 141.944L153.116 206.595L153.195 206.629ZM181.171 142.004H189.38V141.918H181.171V142.004ZM189.341 141.944L156.913 215.215L156.991 215.25L189.419 141.978L189.341 141.944ZM156.952 215.19H148.743V215.275H156.952V215.19ZM148.782 215.215L116.046 141.944L115.968 141.979L148.704 215.25L148.782 215.215ZM116.007 142.004H124.832V141.918H116.007V142.004ZM124.793 141.978L153.116 206.629L153.194 206.595L124.871 141.944L124.793 141.978ZM246.28 185.985V186.028H246.345L246.319 185.968L246.28 185.985ZM230.168 149.555L230.207 149.538L230.168 149.45L230.129 149.538L230.168 149.555ZM213.851 185.985L213.812 185.968L213.785 186.028H213.851V185.985ZM259.107 215.232L259.068 215.25L259.079 215.275H259.107V215.232ZM249.358 192.964L249.397 192.947L249.386 192.921H249.358V192.964ZM210.773 192.964V192.921H210.745L210.734 192.946L210.773 192.964ZM200.819 215.232V215.275H200.846L200.858 215.25L200.819 215.232ZM192.609 215.232L192.57 215.215L192.543 215.275H192.609V215.232ZM225.858 141.961V141.918H225.83L225.819 141.944L225.858 141.961ZM234.683 141.961L234.722 141.944L234.711 141.918H234.683V141.961ZM267.933 215.232V215.275H267.999L267.971 215.215L267.933 215.232ZM246.319 185.968L230.207 149.538L230.129 149.572L246.24 186.003L246.319 185.968ZM230.129 149.538L213.812 185.968L213.89 186.003L230.207 149.573L230.129 149.538ZM213.851 186.028H246.28V185.943H213.851V186.028ZM259.146 215.215L249.397 192.947L249.319 192.981L259.068 215.25L259.146 215.215ZM249.358 192.921H210.773V193.006H249.358V192.921ZM210.734 192.946L200.78 215.215L200.858 215.25L210.812 192.981L210.734 192.946ZM200.819 215.19H192.609V215.275H200.819V215.19ZM192.648 215.25L225.897 141.979L225.819 141.944L192.57 215.215L192.648 215.25ZM225.858 142.004H234.683V141.918H225.858V142.004ZM234.644 141.979L267.894 215.25L267.971 215.215L234.722 141.944L234.644 141.979ZM267.933 215.19H259.107V215.275H267.933V215.19ZM340.555 162.896V162.939H340.599L340.598 162.895L340.555 162.896ZM332.961 162.896L332.919 162.899L332.922 162.939H332.961V162.896ZM316.029 174.8L316.036 174.758L316.036 174.758L316.029 174.8ZM278.88 191.014V190.971H278.835L278.837 191.016L278.88 191.014ZM286.474 191.014L286.517 191.01L286.513 190.971H286.474V191.014ZM307.819 180.854L307.826 180.812L307.826 180.812L307.819 180.854ZM340.555 162.853H332.961V162.939H340.555V162.853ZM333.004 162.892C332.49 156.619 329.686 152.655 325.53 150.262C321.377 147.871 315.878 147.049 309.974 147.049V147.135C315.872 147.135 321.353 147.956 325.487 150.336C329.618 152.715 332.407 156.653 332.919 162.899L333.004 162.892ZM309.974 147.049C304.069 147.049 298.878 148.205 295.162 150.403C291.445 152.603 289.202 155.848 289.202 160.022H289.288C289.288 155.884 291.509 152.665 295.206 150.477C298.904 148.289 304.078 147.135 309.974 147.135V147.049ZM289.202 160.022C289.202 162.415 289.762 164.355 290.884 165.964C292.005 167.572 293.686 168.846 295.922 169.913C300.393 172.045 307.095 173.354 316.022 174.842L316.036 174.758C307.106 173.269 300.417 171.962 295.959 169.835C293.731 168.773 292.064 167.507 290.954 165.915C289.844 164.323 289.288 162.401 289.288 160.022H289.202ZM316.022 174.842C322.693 175.971 329.356 177.304 334.351 180.109C336.848 181.511 338.927 183.28 340.381 185.574C341.835 187.867 342.667 190.687 342.667 194.195H342.753C342.753 190.673 341.917 187.837 340.453 185.528C338.99 183.22 336.899 181.442 334.393 180.035C329.383 177.221 322.705 175.886 316.036 174.758L316.022 174.842ZM342.667 194.195C342.667 203.158 338.597 208.866 332.747 212.335C326.894 215.806 319.258 217.037 312.129 217.037V217.122C319.265 217.122 326.919 215.89 332.791 212.409C338.665 208.925 342.753 203.19 342.753 194.195H342.667ZM312.129 217.037C302.846 217.037 294.826 215.447 288.987 211.4C283.15 207.356 279.487 200.852 278.923 191.011L278.837 191.016C279.402 200.878 283.076 207.408 288.938 211.471C294.798 215.531 302.838 217.122 312.129 217.122V217.037ZM278.88 191.057H286.474V190.971H278.88V191.057ZM286.431 191.018C287.099 198.724 290.004 203.51 294.507 206.366C299.007 209.221 305.097 210.144 312.129 210.144V210.059C305.102 210.059 299.032 209.135 294.553 206.294C290.077 203.455 287.183 198.697 286.517 191.01L286.431 191.018ZM312.129 210.144C317.622 210.144 323.223 209.4 327.452 207.202C329.567 206.102 331.341 204.639 332.585 202.721C333.829 200.804 334.543 198.436 334.543 195.529H334.458C334.458 198.421 333.748 200.773 332.513 202.675C331.279 204.577 329.518 206.032 327.413 207.126C323.202 209.315 317.617 210.059 312.129 210.059V210.144ZM334.543 195.529C334.543 192.723 333.706 190.533 332.24 188.793C330.775 187.054 328.683 185.768 326.178 184.766C321.17 182.762 314.493 181.889 307.826 180.812L307.812 180.897C314.486 181.975 321.15 182.846 326.147 184.845C328.644 185.844 330.722 187.124 332.175 188.848C333.627 190.571 334.458 192.742 334.458 195.529H334.543ZM307.826 180.812C299.104 179.427 292.416 177.504 287.909 174.457C283.405 171.412 281.078 167.243 281.078 161.356H280.992C280.992 167.271 283.334 171.466 287.861 174.527C292.385 177.586 299.088 179.511 307.812 180.897L307.826 180.812ZM281.078 161.356C281.078 153.368 284.763 148.071 290.216 144.769C295.671 141.465 302.897 140.157 309.974 140.157V140.071C302.889 140.071 295.646 141.38 290.172 144.695C284.695 148.012 280.992 153.336 280.992 161.356H281.078ZM309.974 140.157C317.461 140.157 324.969 141.49 330.668 144.999C336.364 148.507 340.256 154.189 340.512 162.897L340.598 162.895C340.341 154.157 336.433 148.449 330.713 144.926C324.995 141.406 317.469 140.071 309.974 140.071V140.157ZM382.832 215.232H382.789V215.275H382.832V215.232ZM382.832 148.939H382.874V148.897H382.832V148.939ZM354.098 148.939H354.055V148.982H354.098V148.939ZM354.098 141.961V141.918H354.055V141.961H354.098ZM419.159 141.961H419.202V141.918H419.159V141.961ZM419.159 148.939V148.982H419.202V148.939H419.159ZM390.426 148.939V148.897H390.383V148.939H390.426ZM390.426 215.232V215.275H390.468V215.232H390.426ZM382.874 215.232V148.939H382.789V215.232H382.874ZM382.832 148.897H354.098V148.982H382.832V148.897ZM354.141 148.939V141.961H354.055V148.939H354.141ZM354.098 142.004H419.159V141.918H354.098V142.004ZM419.117 141.961V148.939H419.202V141.961H419.117ZM419.159 148.897H390.426V148.982H419.159V148.897ZM390.383 148.939V215.232H390.468V148.939H390.383ZM390.426 215.19H382.832V215.275H390.426V215.19ZM500.833 141.961H500.876V141.918H500.833V141.961ZM435.361 141.961V141.918H435.319V141.961H435.361ZM442.955 141.961H442.998V141.918H442.955V141.961ZM493.239 141.961V141.918H493.197V141.961H493.239ZM500.791 141.961V186.909H500.876V141.961H500.791ZM500.791 186.909C500.791 193.577 499.867 201.107 495.322 206.971C490.779 212.832 482.61 217.037 468.097 217.037V217.122C482.627 217.122 490.825 212.912 495.39 207.023C499.953 201.137 500.876 193.582 500.876 186.909H500.791ZM468.097 217.037C453.585 217.037 445.416 212.832 440.873 206.971C436.328 201.107 435.404 193.577 435.404 186.909H435.319C435.319 193.582 436.242 201.137 440.805 207.023C445.369 212.912 453.568 217.122 468.097 217.122V217.037ZM435.404 186.909V141.961H435.319V186.909H435.404ZM435.361 142.004H442.955V141.918H435.361V142.004ZM442.913 141.961V186.909H442.998V141.961H442.913ZM442.913 186.909C442.913 196.514 446.021 202.327 450.729 205.736C455.435 209.143 461.732 210.144 468.097 210.144V210.059C461.738 210.059 455.463 209.058 450.78 205.667C446.098 202.278 442.998 196.494 442.998 186.909H442.913ZM468.097 210.144C474.463 210.144 480.759 209.143 485.465 205.736C490.174 202.327 493.282 196.514 493.282 186.909H493.197C493.197 196.494 490.096 202.278 485.415 205.667C480.731 209.058 474.457 210.059 468.097 210.059V210.144ZM493.282 186.909V141.961H493.197V186.909H493.282ZM493.239 142.004H500.833V141.918H493.239V142.004ZM525.29 215.232H525.247V215.275H525.29V215.232ZM525.29 141.961V141.918H525.247V141.961H525.29ZM532.884 141.961H532.927V141.918H532.884V141.961ZM532.884 181.573H532.841V181.664L532.911 181.606L532.884 181.573ZM580.192 141.961V141.918H580.177L580.165 141.928L580.192 141.961ZM591.172 141.961L591.2 141.994L591.291 141.918H591.172V141.961ZM554.845 172.234L554.817 172.201L554.783 172.23L554.813 172.263L554.845 172.234ZM593.635 215.232V215.275H593.732L593.667 215.204L593.635 215.232ZM582.86 215.232L582.828 215.261L582.841 215.275H582.86V215.232ZM548.893 177.365L548.925 177.337L548.897 177.306L548.866 177.332L548.893 177.365ZM532.884 190.501L532.857 190.468L532.841 190.481V190.501H532.884ZM532.884 215.232V215.275H532.927V215.232H532.884ZM525.333 215.232V141.961H525.247V215.232H525.333ZM525.29 142.004H532.884V141.918H525.29V142.004ZM532.841 141.961V181.573H532.927V141.961H532.841ZM532.911 181.606L580.22 141.994L580.165 141.928L532.856 181.54L532.911 181.606ZM580.192 142.004H591.172V141.918H580.192V142.004ZM591.145 141.928L554.817 172.201L554.872 172.267L591.2 141.994L591.145 141.928ZM554.813 172.263L593.604 215.261L593.667 215.204L554.877 172.206L554.813 172.263ZM593.635 215.19H582.86V215.275H593.635V215.19ZM582.892 215.204L548.925 177.337L548.861 177.394L582.828 215.261L582.892 215.204ZM548.866 177.332L532.857 190.468L532.911 190.534L548.92 177.398L548.866 177.332ZM532.841 190.501V215.232H532.927V190.501H532.841ZM532.884 215.19H525.29V215.275H532.884V215.19ZM655.64 185.985V186.028H655.706L655.679 185.968L655.64 185.985ZM639.528 149.555L639.568 149.538L639.529 149.45L639.489 149.538L639.528 149.555ZM623.212 185.985L623.173 185.968L623.146 186.028H623.212V185.985ZM668.468 215.232L668.428 215.25L668.44 215.275H668.468V215.232ZM658.719 192.964L658.758 192.947L658.747 192.921H658.719V192.964ZM620.133 192.964V192.921H620.105L620.094 192.946L620.133 192.964ZM610.179 215.232V215.275H610.207L610.218 215.25L610.179 215.232ZM601.969 215.232L601.93 215.215L601.903 215.275H601.969V215.232ZM635.218 141.961V141.918H635.191L635.179 141.944L635.218 141.961ZM644.044 141.961L644.083 141.944L644.071 141.918H644.044V141.961ZM677.293 215.232V215.275H677.359L677.332 215.215L677.293 215.232ZM655.679 185.968L639.568 149.538L639.489 149.572L655.601 186.003L655.679 185.968ZM639.489 149.538L623.173 185.968L623.251 186.003L639.567 149.573L639.489 149.538ZM623.212 186.028H655.64V185.943H623.212V186.028ZM668.507 215.215L658.758 192.947L658.679 192.981L668.428 215.25L668.507 215.215ZM658.719 192.921H620.133V193.006H658.719V192.921ZM620.094 192.946L610.14 215.215L610.218 215.25L620.172 192.981L620.094 192.946ZM610.179 215.19H601.969V215.275H610.179V215.19ZM602.008 215.25L635.257 141.979L635.179 141.944L601.93 215.215L602.008 215.25ZM635.218 142.004H644.044V141.918H635.218V142.004ZM644.005 141.979L677.254 215.25L677.332 215.215L644.083 141.944L644.005 141.979ZM677.293 215.19H668.468V215.275H677.293V215.19ZM693.885 215.232H693.842V215.275H693.885V215.232ZM693.885 141.961V141.918H693.842V141.961H693.885ZM743.245 179.52L743.236 179.479L743.202 179.486V179.52H743.245ZM743.245 179.726H743.202V179.762L743.238 179.768L743.245 179.726ZM756.278 200.044L756.235 200.046L756.235 200.046L756.278 200.044ZM758.844 215.232V215.275H758.951L758.873 215.201L758.844 215.232ZM750.634 215.232L750.602 215.26L750.614 215.275H750.634V215.232ZM748.684 200.25L748.727 200.249L748.727 200.249L748.684 200.25ZM701.479 183.009V182.967H701.436V183.009H701.479ZM701.479 215.232V215.275H701.521V215.232H701.479ZM701.479 148.939V148.897H701.436V148.939H701.479ZM701.479 176.031H701.436V176.074H701.479V176.031ZM693.927 215.232V141.961H693.842V215.232H693.927ZM693.885 142.004H733.804V141.918H693.885V142.004ZM733.804 142.004C740.009 142.004 745.951 143.107 750.34 146.127C754.727 149.145 757.569 154.083 757.569 161.767H757.655C757.655 154.058 754.802 149.093 750.389 146.056C745.979 143.022 740.016 141.918 733.804 141.918V142.004ZM757.569 161.767C757.569 169.548 752.758 177.328 743.236 179.479L743.255 179.562C752.82 177.402 757.655 169.584 757.655 161.767H757.569ZM743.202 179.52V179.726H743.288V179.52H743.202ZM743.238 179.768C748.411 180.587 751.528 182.66 753.419 186.019C755.312 189.383 755.979 194.043 756.235 200.046L756.321 200.043C756.064 194.039 755.397 189.361 753.493 185.977C751.587 182.59 748.444 180.506 743.252 179.683L743.238 179.768ZM756.235 200.046C756.338 202.356 756.543 205.744 756.941 208.76C757.14 210.268 757.387 211.684 757.694 212.827C757.848 213.398 758.016 213.902 758.202 214.315C758.387 214.728 758.59 215.053 758.814 215.263L758.873 215.201C758.661 215.002 758.463 214.688 758.28 214.28C758.097 213.873 757.93 213.374 757.777 212.805C757.471 211.667 757.225 210.255 757.026 208.749C756.628 205.736 756.423 202.351 756.321 200.043L756.235 200.046ZM758.844 215.19H750.634V215.275H758.844V215.19ZM750.666 215.204C750.339 214.827 750.059 214.206 749.822 213.356C749.586 212.508 749.393 211.436 749.24 210.16C748.932 207.61 748.778 204.251 748.727 200.249L748.641 200.25C748.693 204.253 748.847 207.616 749.155 210.171C749.309 211.448 749.502 212.525 749.74 213.379C749.977 214.232 750.262 214.868 750.602 215.26L750.666 215.204ZM748.727 200.249C748.624 193.78 747.341 189.456 744.493 186.75C741.646 184.044 737.245 182.967 730.931 182.967V183.052C737.239 183.052 741.612 184.13 744.434 186.812C747.257 189.493 748.539 193.789 748.641 200.25L748.727 200.249ZM730.931 182.967H701.479V183.052H730.931V182.967ZM701.436 183.009V215.232H701.521V183.009H701.436ZM701.479 215.19H693.885V215.275H701.479V215.19ZM701.436 148.939V176.031H701.521V148.939H701.436ZM701.479 176.074H733.599V175.988H701.479V176.074ZM733.599 176.074C737.759 176.074 741.721 175.304 744.643 173.128C747.568 170.95 749.445 167.37 749.445 161.767H749.36C749.36 167.349 747.491 170.901 744.592 173.059C741.691 175.219 737.751 175.988 733.599 175.988V176.074ZM749.445 161.767C749.445 156.367 747.413 153.145 744.5 151.277C741.59 149.41 737.809 148.897 734.317 148.897V148.982C737.804 148.982 741.565 149.495 744.454 151.348C747.339 153.2 749.36 156.392 749.36 161.767H749.445ZM734.317 148.897H701.479V148.982H734.317V148.897ZM170.601 308.985V309.028H170.666L170.64 308.968L170.601 308.985ZM154.489 272.555L154.528 272.538L154.49 272.45L154.45 272.538L154.489 272.555ZM138.173 308.985L138.134 308.968L138.107 309.028H138.173V308.985ZM183.428 338.232L183.389 338.25L183.4 338.275H183.428V338.232ZM173.679 315.964L173.719 315.947L173.707 315.921H173.679V315.964ZM135.094 315.964V315.921H135.066L135.055 315.946L135.094 315.964ZM125.14 338.232V338.275H125.168L125.179 338.25L125.14 338.232ZM116.93 338.232L116.891 338.215L116.864 338.275H116.93V338.232ZM150.179 264.961V264.918H150.152L150.14 264.944L150.179 264.961ZM159.005 264.961L159.044 264.944L159.032 264.918H159.005V264.961ZM192.254 338.232V338.275H192.32L192.293 338.215L192.254 338.232ZM170.64 308.968L154.528 272.538L154.45 272.572L170.562 309.003L170.64 308.968ZM154.45 272.538L138.134 308.968L138.212 309.003L154.528 272.573L154.45 272.538ZM138.173 309.028H170.601V308.943H138.173V309.028ZM183.468 338.215L173.719 315.947L173.64 315.981L183.389 338.25L183.468 338.215ZM173.679 315.921H135.094V316.006H173.679V315.921ZM135.055 315.946L125.101 338.215L125.179 338.25L135.133 315.981L135.055 315.946ZM125.14 338.19H116.93V338.275H125.14V338.19ZM116.969 338.25L150.218 264.979L150.14 264.944L116.891 338.215L116.969 338.25ZM150.179 265.004H159.005V264.918H150.179V265.004ZM158.966 264.979L192.215 338.25L192.293 338.215L159.044 264.944L158.966 264.979ZM192.254 338.19H183.428V338.275H192.254V338.19ZM208.845 338.232H208.803V338.275H208.845V338.232ZM208.845 264.961V264.918H208.803V264.961H208.845ZM258.206 302.52L258.197 302.479L258.163 302.486V302.52H258.206ZM258.206 302.726H258.163V302.762L258.199 302.768L258.206 302.726ZM271.239 323.044L271.196 323.046L271.196 323.046L271.239 323.044ZM273.804 338.232V338.275H273.912L273.834 338.201L273.804 338.232ZM265.595 338.232L265.562 338.26L265.575 338.275H265.595V338.232ZM263.645 323.25L263.688 323.249L263.688 323.249L263.645 323.25ZM216.439 306.009V305.967H216.397V306.009H216.439ZM216.439 338.232V338.275H216.482V338.232H216.439ZM216.439 271.939V271.897H216.397V271.939H216.439ZM216.439 299.031H216.397V299.074H216.439V299.031ZM208.888 338.232V264.961H208.803V338.232H208.888ZM208.845 265.004H248.765V264.918H208.845V265.004ZM248.765 265.004C254.97 265.004 260.912 266.107 265.301 269.127C269.688 272.145 272.53 277.083 272.53 284.767H272.616C272.616 277.058 269.763 272.093 265.35 269.056C260.939 266.022 254.977 264.918 248.765 264.918V265.004ZM272.53 284.767C272.53 292.548 267.719 300.328 258.197 302.479L258.215 302.562C267.781 300.402 272.616 292.584 272.616 284.767H272.53ZM258.163 302.52V302.726H258.249V302.52H258.163ZM258.199 302.768C263.372 303.587 266.489 305.66 268.38 309.019C270.273 312.383 270.94 317.043 271.196 323.046L271.282 323.043C271.025 317.039 270.358 312.361 268.454 308.977C266.548 305.59 263.405 303.506 258.213 302.683L258.199 302.768ZM271.196 323.046C271.299 325.356 271.504 328.744 271.902 331.76C272.101 333.268 272.348 334.684 272.655 335.827C272.809 336.398 272.977 336.902 273.163 337.315C273.348 337.728 273.551 338.053 273.775 338.263L273.834 338.201C273.622 338.002 273.424 337.688 273.241 337.28C273.058 336.873 272.89 336.374 272.738 335.805C272.432 334.667 272.185 333.255 271.987 331.749C271.589 328.736 271.384 325.351 271.282 323.043L271.196 323.046ZM273.804 338.19H265.595V338.275H273.804V338.19ZM265.627 338.204C265.3 337.827 265.02 337.206 264.783 336.356C264.546 335.508 264.354 334.436 264.2 333.16C263.893 330.61 263.739 327.251 263.688 323.249L263.602 323.25C263.653 327.253 263.807 330.616 264.116 333.171C264.27 334.448 264.462 335.525 264.7 336.379C264.938 337.232 265.223 337.868 265.562 338.26L265.627 338.204ZM263.688 323.249C263.585 316.78 262.302 312.456 259.454 309.75C256.607 307.044 252.206 305.967 245.892 305.967V306.052C252.2 306.052 256.573 307.13 259.395 309.812C262.217 312.493 263.5 316.789 263.602 323.25L263.688 323.249ZM245.892 305.967H216.439V306.052H245.892V305.967ZM216.397 306.009V338.232H216.482V306.009H216.397ZM216.439 338.19H208.845V338.275H216.439V338.19ZM216.397 271.939V299.031H216.482V271.939H216.397ZM216.439 299.074H248.56V298.988H216.439V299.074ZM248.56 299.074C252.72 299.074 256.682 298.304 259.604 296.128C262.529 293.95 264.406 290.37 264.406 284.767H264.32C264.32 290.349 262.452 293.901 259.553 296.059C256.652 298.219 252.712 298.988 248.56 298.988V299.074ZM264.406 284.767C264.406 279.367 262.373 276.145 259.461 274.277C256.551 272.41 252.77 271.897 249.278 271.897V271.982C252.764 271.982 256.526 272.495 259.414 274.348C262.3 276.2 264.32 279.392 264.32 284.767H264.406ZM249.278 271.897H216.439V271.982H249.278V271.897ZM357.975 310.32V310.277H357.939L357.933 310.312L357.975 310.32ZM365.569 310.32L365.611 310.324L365.616 310.277H365.569V310.32ZM364.953 289.693V289.736H365.001L364.996 289.688L364.953 289.693ZM357.359 289.693L357.317 289.7L357.323 289.736H357.359V289.693ZM357.975 310.362H365.569V310.277H357.975V310.362ZM365.526 310.315C363.887 326.711 350.361 340.037 329.344 340.037V340.122C350.401 340.122 363.967 326.767 365.611 310.324L365.526 310.315ZM329.344 340.037C317.449 340.037 307.711 336.294 300.948 329.62C294.184 322.946 290.391 313.337 290.391 301.597H290.305C290.305 313.356 294.105 322.989 300.888 329.681C307.67 336.374 317.431 340.122 329.344 340.122V340.037ZM290.391 301.597C290.391 293.241 292.98 283.631 299.142 276.11C305.304 268.59 315.04 263.157 329.344 263.157V263.071C315.016 263.071 305.255 268.515 299.076 276.056C292.899 283.594 290.305 293.225 290.305 301.597H290.391ZM329.344 263.157C337.342 263.157 345.672 264.977 352.282 269.205C358.891 273.431 363.783 280.065 364.911 289.698L364.996 289.688C363.865 280.028 358.957 273.372 352.328 269.133C345.701 264.894 337.354 263.071 329.344 263.071V263.157ZM364.953 289.65H357.359V289.736H364.953V289.65ZM357.401 289.686C356.271 282.695 352.569 277.784 347.492 274.623C342.416 271.462 335.968 270.049 329.344 270.049V270.135C335.957 270.135 342.388 271.545 347.447 274.695C352.504 277.845 356.19 282.734 357.317 289.7L357.401 289.686ZM329.344 270.049C320.254 270.049 312.546 272.592 307.11 277.809C301.673 283.027 298.515 290.916 298.515 301.597H298.6C298.6 290.933 301.753 283.069 307.169 277.871C312.585 272.673 320.27 270.135 329.344 270.135V270.049ZM298.515 301.597C298.515 309.762 300.646 317.649 305.567 323.495C310.49 329.343 318.199 333.144 329.344 333.144V333.059C318.22 333.059 310.536 329.266 305.633 323.44C300.728 317.614 298.6 309.748 298.6 301.597H298.515ZM329.344 333.144C338.074 333.144 344.601 330.936 349.267 326.977C353.933 323.018 356.733 317.312 358.017 310.327L357.933 310.312C356.651 317.283 353.859 322.969 349.212 326.911C344.565 330.854 338.059 333.059 329.344 333.059V333.144ZM385.829 338.232H385.787V338.275H385.829V338.232ZM385.829 264.961V264.918H385.787V264.961H385.829ZM393.423 264.961H393.466V264.918H393.423V264.961ZM393.423 295.953H393.38V295.995H393.423V295.953ZM446.375 295.953V295.995H446.418V295.953H446.375ZM446.375 264.961V264.918H446.333V264.961H446.375ZM453.969 264.961H454.012V264.918H453.969V264.961ZM453.969 338.232V338.275H454.012V338.232H453.969ZM446.375 338.232H446.333V338.275H446.375V338.232ZM446.375 302.931H446.418V302.888H446.375V302.931ZM393.423 302.931V302.888H393.38V302.931H393.423ZM393.423 338.232V338.275H393.466V338.232H393.423ZM385.872 338.232V264.961H385.787V338.232H385.872ZM385.829 265.004H393.423V264.918H385.829V265.004ZM393.38 264.961V295.953H393.466V264.961H393.38ZM393.423 295.995H446.375V295.91H393.423V295.995ZM446.418 295.953V264.961H446.333V295.953H446.418ZM446.375 265.004H453.969V264.918H446.375V265.004ZM453.927 264.961V338.232H454.012V264.961H453.927ZM453.969 338.19H446.375V338.275H453.969V338.19ZM446.418 338.232V302.931H446.333V338.232H446.418ZM446.375 302.888H393.423V302.974H446.375V302.888ZM393.38 302.931V338.232H393.466V302.931H393.38ZM393.423 338.19H385.829V338.275H393.423V338.19ZM477.562 338.232H477.519V338.275H477.562V338.232ZM477.562 264.961V264.918H477.519V264.961H477.562ZM485.156 264.961H485.198V264.918H485.156V264.961ZM485.156 338.232V338.275H485.198V338.232H485.156ZM477.605 338.232V264.961H477.519V338.232H477.605ZM477.562 265.004H485.156V264.918H477.562V265.004ZM485.113 264.961V338.232H485.198V264.961H485.113ZM485.156 338.19H477.562V338.275H485.156V338.19ZM530.481 338.232H530.438V338.275H530.481V338.232ZM530.481 271.939H530.524V271.897H530.481V271.939ZM501.747 271.939H501.705V271.982H501.747V271.939ZM501.747 264.961V264.918H501.705V264.961H501.747ZM566.809 264.961H566.852V264.918H566.809V264.961ZM566.809 271.939V271.982H566.852V271.939H566.809ZM538.075 271.939V271.897H538.032V271.939H538.075ZM538.075 338.232V338.275H538.118V338.232H538.075ZM530.524 338.232V271.939H530.438V338.232H530.524ZM530.481 271.897H501.747V271.982H530.481V271.897ZM501.79 271.939V264.961H501.705V271.939H501.79ZM501.747 265.004H566.809V264.918H501.747V265.004ZM566.766 264.961V271.939H566.852V264.961H566.766ZM566.809 271.897H538.075V271.982H566.809V271.897ZM538.032 271.939V338.232H538.118V271.939H538.032ZM538.075 338.19H530.481V338.275H538.075V338.19ZM583.832 338.232H583.789V338.275H583.832V338.232ZM583.832 264.961V264.918H583.789V264.961H583.832ZM642.12 264.961H642.163V264.918H642.12V264.961ZM642.12 271.939V271.982H642.163V271.939H642.12ZM591.426 271.939V271.897H591.383V271.939H591.426ZM591.426 296.774H591.383V296.816H591.426V296.774ZM640.273 296.774H640.316V296.731H640.273V296.774ZM640.273 303.752V303.795H640.316V303.752H640.273ZM591.426 303.752V303.709H591.383V303.752H591.426ZM591.426 331.254H591.383V331.297H591.426V331.254ZM642.941 331.254H642.984V331.211H642.941V331.254ZM642.941 338.232V338.275H642.984V338.232H642.941ZM583.875 338.232V264.961H583.789V338.232H583.875ZM583.832 265.004H642.12V264.918H583.832V265.004ZM642.078 264.961V271.939H642.163V264.961H642.078ZM642.12 271.897H591.426V271.982H642.12V271.897ZM591.383 271.939V296.774H591.469V271.939H591.383ZM591.426 296.816H640.273V296.731H591.426V296.816ZM640.231 296.774V303.752H640.316V296.774H640.231ZM640.273 303.709H591.426V303.795H640.273V303.709ZM591.383 303.752V331.254H591.469V303.752H591.383ZM591.426 331.297H642.941V331.211H591.426V331.297ZM642.899 331.254V338.232H642.984V331.254H642.899ZM642.941 338.19H583.832V338.275H642.941V338.19ZM727.149 310.32V310.277H727.113L727.107 310.312L727.149 310.32ZM734.743 310.32L734.785 310.324L734.79 310.277H734.743V310.32ZM734.127 289.693V289.736H734.175L734.17 289.688L734.127 289.693ZM726.533 289.693L726.491 289.7L726.497 289.736H726.533V289.693ZM727.149 310.362H734.743V310.277H727.149V310.362ZM734.7 310.315C733.061 326.711 719.535 340.037 698.518 340.037V340.122C719.575 340.122 733.141 326.767 734.785 310.324L734.7 310.315ZM698.518 340.037C686.623 340.037 676.885 336.294 670.122 329.62C663.358 322.946 659.565 313.337 659.565 301.597H659.479C659.479 313.356 663.279 322.989 670.062 329.681C676.844 336.374 686.605 340.122 698.518 340.122V340.037ZM659.565 301.597C659.565 293.241 662.154 283.631 668.316 276.11C674.478 268.59 684.214 263.157 698.518 263.157V263.071C684.19 263.071 674.429 268.515 668.25 276.056C662.073 283.594 659.479 293.225 659.479 301.597H659.565ZM698.518 263.157C706.516 263.157 714.846 264.977 721.456 269.205C728.065 273.431 732.957 280.065 734.085 289.698L734.17 289.688C733.039 280.028 728.131 273.372 721.502 269.133C714.874 264.894 706.528 263.071 698.518 263.071V263.157ZM734.127 289.65H726.533V289.736H734.127V289.65ZM726.575 289.686C725.445 282.695 721.743 277.784 716.666 274.623C711.59 271.462 705.142 270.049 698.518 270.049V270.135C705.131 270.135 711.562 271.545 716.621 274.695C721.678 277.845 725.364 282.734 726.491 289.7L726.575 289.686ZM698.518 270.049C689.428 270.049 681.72 272.592 676.284 277.809C670.847 283.027 667.689 290.916 667.689 301.597H667.774C667.774 290.933 670.927 283.069 676.343 277.871C681.759 272.673 689.444 270.135 698.518 270.135V270.049ZM667.689 301.597C667.689 309.762 669.82 317.649 674.741 323.495C679.664 329.343 687.373 333.144 698.518 333.144V333.059C687.394 333.059 679.71 329.266 674.807 323.44C669.902 317.614 667.774 309.748 667.774 301.597H667.689ZM698.518 333.144C707.248 333.144 713.775 330.936 718.441 326.977C723.107 323.018 725.907 317.312 727.191 310.327L727.107 310.312C725.825 317.283 723.033 322.969 718.386 326.911C713.739 330.854 707.233 333.059 698.518 333.059V333.144ZM776.759 338.232H776.716V338.275H776.759V338.232ZM776.759 271.939H776.802V271.897H776.759V271.939ZM748.025 271.939H747.982V271.982H748.025V271.939ZM748.025 264.961V264.918H747.982V264.961H748.025ZM813.087 264.961H813.129V264.918H813.087V264.961ZM813.087 271.939V271.982H813.129V271.939H813.087ZM784.353 271.939V271.897H784.31V271.939H784.353ZM784.353 338.232V338.275H784.395V338.232H784.353ZM776.802 338.232V271.939H776.716V338.232H776.802ZM776.759 271.897H748.025V271.982H776.759V271.897ZM748.068 271.939V264.961H747.982V271.939H748.068ZM748.025 265.004H813.087V264.918H748.025V265.004ZM813.044 264.961V271.939H813.129V264.961H813.044ZM813.087 271.897H784.353V271.982H813.087V271.897ZM784.31 271.939V338.232H784.395V271.939H784.31ZM784.353 338.19H776.759V338.275H784.353V338.19ZM886.14 285.896V285.939H886.184L886.183 285.895L886.14 285.896ZM878.546 285.896L878.504 285.899L878.507 285.939H878.546V285.896ZM861.614 297.8L861.621 297.758L861.621 297.758L861.614 297.8ZM824.465 314.014V313.971H824.42L824.423 314.016L824.465 314.014ZM832.059 314.014L832.102 314.01L832.099 313.971H832.059V314.014ZM853.404 303.854L853.411 303.812L853.411 303.812L853.404 303.854ZM886.14 285.853H878.546V285.939H886.14V285.853ZM878.589 285.892C878.075 279.619 875.271 275.655 871.115 273.262C866.962 270.871 861.463 270.049 855.559 270.049V270.135C861.457 270.135 866.939 270.956 871.072 273.336C875.203 275.715 877.992 279.653 878.504 285.899L878.589 285.892ZM855.559 270.049C849.654 270.049 844.463 271.205 840.747 273.403C837.03 275.603 834.787 278.848 834.787 283.022H834.873C834.873 278.884 837.094 275.665 840.791 273.477C844.489 271.289 849.664 270.135 855.559 270.135V270.049ZM834.787 283.022C834.787 285.415 835.347 287.355 836.469 288.964C837.591 290.572 839.271 291.846 841.508 292.913C845.978 295.045 852.681 296.354 861.607 297.842L861.621 297.758C852.692 296.269 846.002 294.962 841.544 292.835C839.317 291.773 837.65 290.507 836.539 288.915C835.429 287.323 834.873 285.401 834.873 283.022H834.787ZM861.607 297.842C868.278 298.971 874.941 300.304 879.937 303.109C882.433 304.511 884.512 306.28 885.966 308.574C887.421 310.867 888.253 313.687 888.253 317.195H888.338C888.338 313.673 887.503 310.837 886.039 308.528C884.575 306.22 882.484 304.442 879.978 303.035C874.968 300.221 868.291 298.886 861.621 297.758L861.607 297.842ZM888.253 317.195C888.253 326.158 884.182 331.866 878.332 335.335C872.479 338.806 864.843 340.037 857.714 340.037V340.122C864.85 340.122 872.504 338.89 878.376 335.409C884.25 331.925 888.338 326.19 888.338 317.195H888.253ZM857.714 340.037C848.431 340.037 840.411 338.447 834.572 334.4C828.736 330.356 825.072 323.852 824.508 314.011L824.423 314.016C824.988 323.878 828.661 330.408 834.524 334.471C840.383 338.531 848.424 340.122 857.714 340.122V340.037ZM824.465 314.057H832.059V313.971H824.465V314.057ZM832.017 314.018C832.685 321.724 835.589 326.51 840.092 329.366C844.592 332.221 850.683 333.144 857.714 333.144V333.059C850.687 333.059 844.617 332.135 840.138 329.294C835.662 326.455 832.768 321.697 832.102 314.01L832.017 314.018ZM857.714 333.144C863.207 333.144 868.808 332.4 873.038 330.202C875.153 329.102 876.926 327.639 878.17 325.721C879.415 323.804 880.129 321.436 880.129 318.529H880.043C880.043 321.421 879.333 323.773 878.099 325.675C876.864 327.577 875.103 329.032 872.998 330.126C868.787 332.315 863.202 333.059 857.714 333.059V333.144ZM880.129 318.529C880.129 315.723 879.292 313.533 877.826 311.793C876.36 310.054 874.269 308.768 871.764 307.766C866.755 305.762 860.079 304.889 853.411 303.812L853.398 303.897C860.071 304.975 866.735 305.846 871.732 307.845C874.23 308.844 876.307 310.124 877.76 311.848C879.212 313.571 880.043 315.742 880.043 318.529H880.129ZM853.411 303.812C844.69 302.427 838.001 300.504 833.494 297.457C828.991 294.412 826.663 290.243 826.663 284.356H826.578C826.578 290.271 828.919 294.466 833.446 297.527C837.97 300.586 844.674 302.511 853.398 303.897L853.411 303.812ZM826.663 284.356C826.663 276.368 830.349 271.071 835.801 267.769C841.257 264.465 848.483 263.157 855.559 263.157V263.071C848.474 263.071 841.231 264.38 835.757 267.695C830.281 271.012 826.578 276.336 826.578 284.356H826.663ZM855.559 263.157C863.047 263.157 870.555 264.49 876.254 267.999C881.95 271.507 885.842 277.189 886.098 285.897L886.183 285.895C885.926 277.157 882.019 271.449 876.298 267.926C870.581 264.406 863.055 263.071 855.559 263.071V263.157Z" fill="black"/>
<rect width="128" height="128" fill="black"/>
<path d="M62.6458 2.46155C46.0314 2.46155 30.0979 9.06251 18.3488 20.8104C6.60096 32.5595 0 48.4929 0 65.1086C0 81.723 6.60096 97.6577 18.3488 109.407C30.0979 121.155 46.0314 127.756 62.6458 127.756C63.8182 127.756 64.9894 127.706 66.1594 127.631C49.9994 126.99 34.7162 120.124 23.5034 108.471C12.2906 96.818 6.01728 81.2801 5.99808 65.1086C5.99808 49.106 12.1357 33.7128 23.1334 22.0865C34.1299 10.4603 49.1584 3.48299 65.1366 2.58699C64.3072 2.52811 63.4778 2.48459 62.6458 2.46155ZM67.3446 37.3262L24.4851 77.2686L67.4509 53.4529L114.284 80.3329L98.3949 65.7742H98.6918V50.4462H90.0275V58.1083L67.3446 37.3262ZM127.107 56.4276C127.107 56.4276 127.107 56.4276 127.107 56.4532C127.105 56.4532 127.105 56.4532 127.107 56.4276ZM127.107 56.4532C128.265 71.355 123.619 86.1288 114.139 97.6846C104.655 109.244 91.0682 116.69 76.2214 118.462C61.527 120.192 46.7277 116.233 34.8582 107.396C22.9901 98.5601 14.953 85.5169 12.3968 70.9416C12.4326 71.7096 12.4864 72.4776 12.5517 73.243C14.3539 88.4993 22.144 102.414 34.2054 111.927C46.2682 121.441 61.6154 125.773 76.873 123.971C92.128 122.168 106.043 114.378 115.556 102.317C125.07 90.2542 129.403 74.907 127.599 59.6507C127.466 58.5806 127.301 57.5144 127.107 56.4532ZM59.497 63.972V71.1169H66.6406V63.972H59.497ZM68.6976 63.972V71.1169H75.8426V63.972H68.6976ZM59.497 72.8129V79.9579H66.6406V72.8129H59.497ZM68.8781 72.8129V79.9579H76.023V72.8129H68.8781Z" fill="white"/>
</svg>
