<svg width="51" height="50" viewBox="0 0 51 50" fill="none" xmlns="http://www.w3.org/2000/svg">
<path d="M49.5631 25C49.5631 38.5313 38.6016 49.5 25.0805 49.5C11.5594 49.5 0.597839 38.5313 0.597839 25C0.597839 11.4687 11.5594 0.5 25.0805 0.5C38.6016 0.5 49.5631 11.4687 49.5631 25Z" stroke="black"/>
<path d="M13.0978 18H13.9778V12.87L15.1978 15.99H15.8578L17.0778 12.87V18H17.9578V11H17.0178L15.5278 14.88L14.0378 11H13.0978V18ZM20.039 18H24.579V17.16H20.919V14.69H23.979V13.85H20.919V11.84H24.479V11H20.039V18ZM30.4302 16.4L27.5002 11H26.5402V18H27.4202V12.6L30.3502 18H31.3102V11H30.4302V16.4ZM33.1513 15.57C33.1513 16.35 33.3813 16.96 33.8513 17.41C34.3213 17.86 34.9113 18.08 35.6313 18.08C36.3513 18.08 36.9413 17.86 37.4113 17.41C37.8813 16.96 38.1113 16.35 38.1113 15.57V11H37.2313V15.63C37.2313 16.59 36.6413 17.24 35.6313 17.24C34.6213 17.24 34.0313 16.59 34.0313 15.63V11H33.1513V15.57Z" fill="black"/>
<!--line x1="0.0978394" y1="25.5" x2="50.0631" y2="25.5" stroke="black"/-->
<path d="M25.0805 41L27.9673 36L22.1938 36L25.0805 41ZM24.5805 26L24.5805 36.5L25.5805 36.5L25.5805 26L24.5805 26Z" fill="black"/>
</svg>
