<svg width="975" height="451" viewBox="0 0 975 451" fill="none" xmlns="http://www.w3.org/2000/svg">
<path d="M383.564 123.094L412.398 56.5529H420.848L387.472 131.966H379.023L345.33 56.5529H354.413L383.564 123.094ZM473.073 101.864L456.491 64.3688L439.697 101.864H473.073ZM486.276 131.966L476.242 109.046H436.529L426.283 131.966H417.834L452.055 56.5529H461.138L495.359 131.966H486.276ZM563.767 78.0994H555.951C554.895 65.2137 544.438 61.8339 532.292 61.8339C520.146 61.8339 510.957 66.5868 510.957 75.142C510.957 84.9647 520.146 87.2883 538.524 90.3513C552.254 92.6749 565.985 95.8435 565.985 110.313C565.985 128.797 549.191 133.867 534.51 133.867C515.393 133.867 501.451 127.318 500.289 107.039H508.105C509.478 122.882 520.04 126.685 534.51 126.685C545.811 126.685 557.535 123.622 557.535 111.687C557.535 100.174 543.805 98.8009 530.074 96.5829C512.119 93.7311 502.507 88.6614 502.507 76.5151C502.507 60.0384 517.716 54.6517 532.292 54.6517C547.713 54.6517 563.239 60.144 563.767 78.0994ZM600.942 131.966V63.7351H571.368V56.5529H638.331V63.7351H608.758V131.966H600.942ZM716.055 56.5529V102.814C716.055 116.545 712.253 133.867 682.362 133.867C652.472 133.867 648.67 116.545 648.67 102.814V56.5529H656.485V102.814C656.485 122.565 669.265 126.685 682.362 126.685C695.459 126.685 708.239 122.565 708.239 102.814V56.5529H716.055ZM734.889 131.966V56.5529H742.705V97.3222L791.396 56.5529H802.697L765.308 87.7108L805.232 131.966H794.142L759.182 92.9918L742.705 106.511V131.966H734.889ZM862.712 101.864L846.129 64.3688L829.336 101.864H862.712ZM875.914 131.966L865.88 109.046H826.167L815.922 131.966H807.473L841.693 56.5529H850.777L884.998 131.966H875.914ZM895.737 131.966V56.5529H936.823C949.603 56.5529 961.327 61.0946 961.327 76.9376C961.327 84.9647 956.363 92.9918 946.54 95.2098V95.4211C957.208 97.111 959.426 103.976 959.954 116.334C960.165 121.087 960.799 130.276 962.594 131.966H954.145C952.772 130.381 952.244 124.783 952.138 116.545C951.927 103.237 946.857 98.8009 933.866 98.8009H903.553V131.966H895.737ZM903.553 63.7351V91.6187H936.612C945.167 91.6187 952.877 88.4501 952.877 76.9376C952.877 65.8475 944.533 63.7351 937.351 63.7351H903.553ZM354.73 278.966V203.553H362.546V278.966H354.73ZM380.467 278.966V203.553H389.868L442.572 267.981H442.783V203.553H450.599V278.966H441.516L388.495 214.537H388.283V278.966H380.467ZM490.09 278.966V210.735H460.517V203.553H527.48V210.735H497.906V278.966H490.09ZM538.663 278.966V203.553H598.655V210.735H546.479V236.295H596.754V243.477H546.479V271.783H599.5V278.966H538.663ZM614.136 278.966V203.553H655.222C668.002 203.553 679.726 208.095 679.726 223.938C679.726 231.965 674.762 239.992 664.939 242.21V242.421C675.607 244.111 677.825 250.976 678.353 263.334C678.564 268.087 679.198 277.276 680.993 278.966H672.544C671.171 277.381 670.643 271.783 670.537 263.545C670.326 250.237 665.256 245.801 652.265 245.801H621.952V278.966H614.136ZM621.952 210.735V238.619H655.011C663.566 238.619 671.276 235.45 671.276 223.938C671.276 212.847 662.932 210.735 655.75 210.735H621.952ZM691.366 241.259C691.366 214.643 710.906 201.652 732.347 201.652C753.788 201.652 773.328 214.643 773.328 241.259C773.328 267.875 753.788 280.867 732.347 280.867C710.906 280.867 691.366 267.875 691.366 241.259ZM699.816 241.259C699.816 263.968 715.765 273.685 732.347 273.685C748.929 273.685 764.878 263.968 764.878 241.259C764.878 218.551 748.929 208.834 732.347 208.834C715.765 208.834 699.816 218.551 699.816 241.259ZM788.702 278.966V203.553H829.788C842.568 203.553 854.292 208.095 854.292 223.938C854.292 231.965 849.328 239.992 839.505 242.21V242.421C850.173 244.111 852.391 250.976 852.919 263.334C853.13 268.087 853.764 277.276 855.559 278.966H847.11C845.737 277.381 845.209 271.783 845.103 263.545C844.892 250.237 839.822 245.801 826.831 245.801H796.518V278.966H788.702ZM796.518 210.735V238.619H829.577C838.132 238.619 845.842 235.45 845.842 223.938C845.842 212.847 837.498 210.735 830.316 210.735H796.518ZM927.826 225.099H920.01C918.954 212.214 908.497 208.834 896.351 208.834C884.205 208.834 875.016 213.587 875.016 222.142C875.016 231.965 884.205 234.288 902.583 237.351C916.313 239.675 930.044 242.844 930.044 257.313C930.044 275.797 913.25 280.867 898.569 280.867C879.452 280.867 865.51 274.318 864.348 254.039H872.164C873.537 269.882 884.099 273.685 898.569 273.685C909.87 273.685 921.594 270.622 921.594 258.687C921.594 247.174 907.864 245.801 894.133 243.583C876.178 240.731 866.566 235.661 866.566 223.515C866.566 207.038 881.775 201.652 896.351 201.652C911.771 201.652 927.298 207.144 927.826 225.099Z" fill="black"/>
<path d="M383.564 123.094L383.519 123.113L383.564 123.216L383.609 123.113L383.564 123.094ZM412.398 56.5529V56.5039H412.366L412.353 56.5334L412.398 56.5529ZM420.848 56.5529L420.893 56.5727L420.923 56.5039H420.848V56.5529ZM387.472 131.966V132.015H387.504L387.517 131.985L387.472 131.966ZM379.023 131.966L378.978 131.986L378.991 132.015H379.023V131.966ZM345.33 56.5529V56.5039H345.254L345.285 56.5729L345.33 56.5529ZM354.413 56.5529L354.458 56.5332L354.445 56.5039H354.413V56.5529ZM383.609 123.113L412.443 56.5724L412.353 56.5334L383.519 123.074L383.609 123.113ZM412.398 56.6019H420.848V56.5039H412.398V56.6019ZM420.803 56.5331L387.427 131.946L387.517 131.985L420.893 56.5727L420.803 56.5331ZM387.472 131.917H379.023V132.015H387.472V131.917ZM379.067 131.946L345.375 56.5329L345.285 56.5729L378.978 131.986L379.067 131.946ZM345.33 56.6019H354.413V56.5039H345.33V56.6019ZM354.368 56.5726L383.519 123.113L383.609 123.074L354.458 56.5332L354.368 56.5726ZM473.073 101.864V101.913H473.148L473.118 101.844L473.073 101.864ZM456.491 64.3688L456.536 64.349L456.491 64.2483L456.446 64.3488L456.491 64.3688ZM439.697 101.864L439.652 101.844L439.621 101.913H439.697V101.864ZM486.276 131.966L486.231 131.985L486.243 132.015H486.276V131.966ZM476.242 109.046L476.287 109.026L476.274 108.997H476.242V109.046ZM436.529 109.046V108.997H436.497L436.484 109.026L436.529 109.046ZM426.283 131.966V132.015H426.315L426.328 131.986L426.283 131.966ZM417.834 131.966L417.789 131.945L417.758 132.015H417.834V131.966ZM452.055 56.5529V56.5039H452.023L452.01 56.5327L452.055 56.5529ZM461.138 56.5529L461.183 56.5327L461.17 56.5039H461.138V56.5529ZM495.359 131.966V132.015H495.435L495.403 131.945L495.359 131.966ZM473.118 101.844L456.536 64.349L456.446 64.3886L473.028 101.884L473.118 101.844ZM456.446 64.3488L439.652 101.844L439.742 101.884L456.535 64.3888L456.446 64.3488ZM439.697 101.913H473.073V101.815H439.697V101.913ZM486.32 131.946L476.287 109.026L476.197 109.066L486.231 131.985L486.32 131.946ZM476.242 108.997H436.529V109.095H476.242V108.997ZM436.484 109.026L426.239 131.946L426.328 131.986L436.573 109.066L436.484 109.026ZM426.283 131.917H417.834V132.015H426.283V131.917ZM417.878 131.986L452.099 56.5732L452.01 56.5327L417.789 131.945L417.878 131.986ZM452.055 56.6019H461.138V56.5039H452.055V56.6019ZM461.093 56.5732L495.314 131.986L495.403 131.945L461.183 56.5327L461.093 56.5732ZM495.359 131.917H486.276V132.015H495.359V131.917ZM563.767 78.0994V78.1484H563.817L563.816 78.0979L563.767 78.0994ZM555.951 78.0994L555.902 78.1034L555.906 78.1484H555.951V78.0994ZM538.524 90.3513L538.532 90.303L538.532 90.303L538.524 90.3513ZM500.289 107.039V106.99H500.237L500.24 107.042L500.289 107.039ZM508.105 107.039L508.154 107.035L508.15 106.99H508.105V107.039ZM530.074 96.5829L530.082 96.5345L530.082 96.5345L530.074 96.5829ZM563.767 78.0504H555.951V78.1484H563.767V78.0504ZM556 78.0954C555.47 71.6373 552.584 67.5561 548.305 65.0921C544.029 62.63 538.368 61.7849 532.292 61.7849V61.8829C538.362 61.8829 544.002 62.7277 548.256 65.177C552.506 67.6242 555.375 71.6758 555.902 78.1034L556 78.0954ZM532.292 61.7849C526.213 61.7849 520.87 62.974 517.045 65.2376C513.217 67.5021 510.908 70.8435 510.908 75.142H511.006C511.006 70.8853 513.291 67.5727 517.094 65.3219C520.9 63.0702 526.224 61.8829 532.292 61.8829V61.7849ZM510.908 75.142C510.908 77.6058 511.484 79.603 512.64 81.2597C513.794 82.9159 515.525 84.2277 517.827 85.3258C522.429 87.521 529.328 88.8685 538.516 90.3997L538.532 90.303C529.341 88.7712 522.457 87.4254 517.87 85.2373C515.577 84.1438 513.862 82.8415 512.72 81.2036C511.578 79.5663 511.006 77.5896 511.006 75.142H510.908ZM538.515 90.3996C545.382 91.5616 552.239 92.9337 557.379 95.8203C559.948 97.263 562.087 99.0832 563.583 101.443C565.08 103.802 565.936 106.704 565.936 110.313H566.034C566.034 106.688 565.174 103.767 563.666 101.39C562.159 99.0137 560.007 97.1834 557.427 95.7348C552.27 92.8387 545.396 91.4646 538.532 90.303L538.515 90.3996ZM565.936 110.313C565.936 119.537 561.747 125.41 555.728 128.979C549.705 132.551 541.846 133.818 534.51 133.818V133.916C541.855 133.916 549.734 132.648 555.778 129.064C561.825 125.477 566.034 119.573 566.034 110.313H565.936ZM534.51 133.818C524.956 133.818 516.703 132.181 510.694 128.017C504.689 123.856 500.918 117.164 500.338 107.036L500.24 107.042C500.822 117.194 504.603 123.916 510.638 128.098C516.671 132.278 524.947 133.916 534.51 133.916V133.818ZM500.289 107.088H508.105V106.99H500.289V107.088ZM508.056 107.044C508.744 114.977 511.733 119.904 516.37 122.844C521.003 125.783 527.273 126.734 534.51 126.734V126.636C527.278 126.636 521.031 125.685 516.422 122.762C511.817 119.841 508.839 114.945 508.154 107.035L508.056 107.044ZM534.51 126.734C540.164 126.734 545.929 125.968 550.283 123.705C552.461 122.573 554.287 121.066 555.568 119.092C556.849 117.117 557.584 114.679 557.584 111.687H557.486C557.486 114.662 556.756 117.082 555.486 119.038C554.216 120.995 552.404 122.492 550.238 123.618C545.905 125.87 540.158 126.636 534.51 126.636V126.734ZM557.584 111.687C557.584 108.798 556.722 106.542 555.213 104.75C553.704 102.959 551.55 101.635 548.972 100.604C543.816 98.5416 536.944 97.643 530.082 96.5345L530.066 96.6313C536.935 97.7408 543.793 98.6378 548.935 100.695C551.506 101.723 553.643 103.039 555.138 104.813C556.632 106.586 557.486 108.819 557.486 111.687H557.584ZM530.082 96.5345C521.105 95.1088 514.223 93.1297 509.585 89.9938C504.951 86.8608 502.556 82.572 502.556 76.5151H502.458C502.458 82.6045 504.869 86.9237 509.53 90.075C514.187 93.2236 521.087 95.2052 530.066 96.6313L530.082 96.5345ZM502.556 76.5151C502.556 68.2951 506.348 62.8446 511.959 59.4466C517.573 56.0467 525.009 54.7008 532.292 54.7008V54.6027C524.999 54.6027 517.543 55.9501 511.908 59.3627C506.271 62.7772 502.458 68.2583 502.458 76.5151H502.556ZM532.292 54.7008C539.998 54.7008 547.724 56.0732 553.588 59.684C559.45 63.293 563.454 69.1399 563.718 78.1008L563.816 78.0979C563.551 69.1035 559.529 63.2266 553.64 59.6006C547.754 55.9764 540.007 54.6027 532.292 54.6027V54.7008ZM600.942 131.966H600.893V132.015H600.942V131.966ZM600.942 63.7351H600.991V63.6861H600.942V63.7351ZM571.368 63.7351H571.319V63.7841H571.368V63.7351ZM571.368 56.5529V56.5039H571.319V56.5529H571.368ZM638.331 56.5529H638.38V56.5039H638.331V56.5529ZM638.331 63.7351V63.7841H638.38V63.7351H638.331ZM608.758 63.7351V63.6861H608.709V63.7351H608.758ZM608.758 131.966V132.015H608.807V131.966H608.758ZM600.991 131.966V63.7351H600.893V131.966H600.991ZM600.942 63.6861H571.368V63.7841H600.942V63.6861ZM571.417 63.7351V56.5529H571.319V63.7351H571.417ZM571.368 56.6019H638.331V56.5039H571.368V56.6019ZM638.282 56.5529V63.7351H638.38V56.5529H638.282ZM638.331 63.6861H608.758V63.7841H638.331V63.6861ZM608.709 63.7351V131.966H608.807V63.7351H608.709ZM608.758 131.917H600.942V132.015H608.758V131.917ZM716.055 56.5529H716.104V56.5039H716.055V56.5529ZM648.67 56.5529V56.5039H648.621V56.5529H648.67ZM656.485 56.5529H656.534V56.5039H656.485V56.5529ZM708.239 56.5529V56.5039H708.19V56.5529H708.239ZM716.006 56.5529V102.814H716.104V56.5529H716.006ZM716.006 102.814C716.006 109.677 715.056 117.426 710.379 123.46C705.704 129.49 697.298 133.818 682.362 133.818V133.916C697.317 133.916 705.757 129.582 710.456 123.52C715.154 117.46 716.104 109.683 716.104 102.814H716.006ZM682.362 133.818C667.427 133.818 659.02 129.49 654.346 123.46C649.669 117.426 648.719 109.677 648.719 102.814H648.621C648.621 109.683 649.571 117.46 654.268 123.52C658.967 129.582 667.408 133.916 682.362 133.916V133.818ZM648.719 102.814V56.5529H648.621V102.814H648.719ZM648.67 56.6019H656.485V56.5039H648.67V56.6019ZM656.436 56.5529V102.814H656.534V56.5529H656.436ZM656.436 102.814C656.436 112.701 659.636 118.686 664.484 122.196C669.329 125.704 675.811 126.734 682.362 126.734V126.636C675.817 126.636 669.361 125.606 664.541 122.116C659.725 118.629 656.534 112.678 656.534 102.814H656.436ZM682.362 126.734C688.914 126.734 695.396 125.704 700.241 122.196C705.089 118.686 708.288 112.701 708.288 102.814H708.19C708.19 112.678 705 118.629 700.183 122.116C695.364 125.606 688.907 126.636 682.362 126.636V126.734ZM708.288 102.814V56.5529H708.19V102.814H708.288ZM708.239 56.6019H716.055V56.5039H708.239V56.6019ZM734.889 131.966H734.84V132.015H734.889V131.966ZM734.889 56.5529V56.5039H734.84V56.5529H734.889ZM742.705 56.5529H742.754V56.5039H742.705V56.5529ZM742.705 97.3222H742.656V97.4272L742.737 97.3598L742.705 97.3222ZM791.396 56.5529V56.5039H791.378L791.365 56.5153L791.396 56.5529ZM802.697 56.5529L802.729 56.5906L802.833 56.5039H802.697V56.5529ZM765.308 87.7108L765.277 87.6732L765.237 87.7058L765.272 87.7436L765.308 87.7108ZM805.232 131.966V132.015H805.342L805.269 131.933L805.232 131.966ZM794.142 131.966L794.106 131.998L794.12 132.015H794.142V131.966ZM759.182 92.9918L759.218 92.9591L759.187 92.9242L759.151 92.9539L759.182 92.9918ZM742.705 106.511L742.674 106.473L742.656 106.488V106.511H742.705ZM742.705 131.966V132.015H742.754V131.966H742.705ZM734.938 131.966V56.5529H734.84V131.966H734.938ZM734.889 56.6019H742.705V56.5039H734.889V56.6019ZM742.656 56.5529V97.3222H742.754V56.5529H742.656ZM742.737 97.3598L791.427 56.5905L791.365 56.5153L742.674 97.2847L742.737 97.3598ZM791.396 56.6019H802.697V56.5039H791.396V56.6019ZM802.666 56.5153L765.277 87.6732L765.339 87.7485L802.729 56.5906L802.666 56.5153ZM765.272 87.7436L805.196 131.998L805.269 131.933L765.344 87.678L765.272 87.7436ZM805.232 131.917H794.142V132.015H805.232V131.917ZM794.179 131.933L759.218 92.9591L759.145 93.0245L794.106 131.998L794.179 131.933ZM759.151 92.9539L742.674 106.473L742.736 106.549L759.213 93.0297L759.151 92.9539ZM742.656 106.511V131.966H742.754V106.511H742.656ZM742.705 131.917H734.889V132.015H742.705V131.917ZM862.712 101.864V101.913H862.787L862.757 101.844L862.712 101.864ZM846.129 64.3688L846.174 64.349L846.13 64.2483L846.085 64.3488L846.129 64.3688ZM829.336 101.864L829.291 101.844L829.26 101.913H829.336V101.864ZM875.914 131.966L875.869 131.985L875.882 132.015H875.914V131.966ZM865.88 109.046L865.925 109.026L865.912 108.997H865.88V109.046ZM826.167 109.046V108.997H826.136L826.123 109.026L826.167 109.046ZM815.922 131.966V132.015H815.954L815.967 131.986L815.922 131.966ZM807.473 131.966L807.428 131.945L807.396 132.015H807.473V131.966ZM841.693 56.5529V56.5039H841.662L841.649 56.5327L841.693 56.5529ZM850.777 56.5529L850.821 56.5327L850.808 56.5039H850.777V56.5529ZM884.998 131.966V132.015H885.074L885.042 131.945L884.998 131.966ZM862.757 101.844L846.174 64.349L846.085 64.3886L862.667 101.884L862.757 101.844ZM846.085 64.3488L829.291 101.844L829.381 101.884L846.174 64.3888L846.085 64.3488ZM829.336 101.913H862.712V101.815H829.336V101.913ZM875.959 131.946L865.925 109.026L865.836 109.066L875.869 131.985L875.959 131.946ZM865.88 108.997H826.167V109.095H865.88V108.997ZM826.123 109.026L815.877 131.946L815.967 131.986L826.212 109.066L826.123 109.026ZM815.922 131.917H807.473V132.015H815.922V131.917ZM807.517 131.986L841.738 56.5732L841.649 56.5327L807.428 131.945L807.517 131.986ZM841.693 56.6019H850.777V56.5039H841.693V56.6019ZM850.732 56.5732L884.953 131.986L885.042 131.945L850.821 56.5327L850.732 56.5732ZM884.998 131.917H875.914V132.015H884.998V131.917ZM895.737 131.966H895.688V132.015H895.737V131.966ZM895.737 56.5529V56.5039H895.688V56.5529H895.737ZM946.54 95.2098L946.529 95.162L946.491 95.1707V95.2098H946.54ZM946.54 95.4211H946.491V95.4629L946.533 95.4695L946.54 95.4211ZM959.954 116.334L959.905 116.336L959.905 116.336L959.954 116.334ZM962.594 131.966V132.015H962.718L962.628 131.93L962.594 131.966ZM954.145 131.966L954.108 131.998L954.123 132.015H954.145V131.966ZM952.138 116.545L952.187 116.544L952.187 116.544L952.138 116.545ZM903.553 98.8009V98.7519H903.504V98.8009H903.553ZM903.553 131.966V132.015H903.602V131.966H903.553ZM903.553 63.7351V63.6861H903.504V63.7351H903.553ZM903.553 91.6187H903.504V91.6678H903.553V91.6187ZM895.786 131.966V56.5529H895.688V131.966H895.786ZM895.737 56.6019H936.823V56.5039H895.737V56.6019ZM936.823 56.6019C943.209 56.6019 949.323 57.7368 953.84 60.8445C958.353 63.95 961.278 69.03 961.278 76.9376H961.376C961.376 69.0021 958.439 63.8898 953.895 60.7637C949.355 57.6398 943.218 56.5039 936.823 56.5039V56.6019ZM961.278 76.9376C961.278 84.9444 956.327 92.9496 946.529 95.162L946.551 95.2576C956.398 93.034 961.376 84.985 961.376 76.9376H961.278ZM946.491 95.2098V95.4211H946.589V95.2098H946.491ZM946.533 95.4695C951.855 96.3127 955.062 98.4448 957.007 101.901C958.954 105.362 959.641 110.157 959.905 116.336L960.003 116.332C959.739 110.153 959.052 105.336 957.092 101.853C955.129 98.3648 951.893 96.2194 946.548 95.3727L946.533 95.4695ZM959.905 116.336C960.011 118.713 960.222 122.2 960.632 125.305C960.836 126.857 961.091 128.315 961.407 129.491C961.565 130.079 961.738 130.598 961.929 131.024C962.12 131.449 962.33 131.784 962.561 132.001L962.628 131.93C962.41 131.725 962.207 131.403 962.019 130.984C961.831 130.565 961.659 130.051 961.501 129.466C961.187 128.295 960.933 126.842 960.729 125.292C960.32 122.191 960.109 118.708 960.003 116.332L959.905 116.336ZM962.594 131.917H954.145V132.015H962.594V131.917ZM954.182 131.933C953.846 131.546 953.558 130.907 953.314 130.033C953.071 129.16 952.873 128.057 952.715 126.745C952.398 124.12 952.24 120.663 952.187 116.544L952.089 116.546C952.142 120.665 952.3 124.127 952.618 126.756C952.776 128.071 952.975 129.18 953.22 130.059C953.465 130.938 953.757 131.593 954.108 131.998L954.182 131.933ZM952.187 116.544C952.081 109.886 950.761 105.433 947.828 102.647C944.896 99.861 940.365 98.7519 933.866 98.7519V98.8499C940.358 98.8499 944.857 99.9589 947.761 102.718C950.664 105.477 951.984 109.896 952.089 116.546L952.187 116.544ZM933.866 98.7519H903.553V98.8499H933.866V98.7519ZM903.504 98.8009V131.966H903.602V98.8009H903.504ZM903.553 131.917H895.737V132.015H903.553V131.917ZM903.504 63.7351V91.6187H903.602V63.7351H903.504ZM903.553 91.6678H936.612V91.5697H903.553V91.6678ZM936.612 91.6678C940.894 91.6678 944.973 90.875 947.982 88.6347C950.994 86.3923 952.926 82.7059 952.926 76.9376H952.828C952.828 82.6818 950.906 86.336 947.924 88.5561C944.939 90.7782 940.885 91.5697 936.612 91.5697V91.6678ZM952.926 76.9376C952.926 71.3781 950.834 68.0608 947.834 66.1363C944.838 64.2143 940.945 63.6861 937.351 63.6861V63.7841C940.939 63.7841 944.809 64.312 947.781 66.2188C950.749 68.123 952.828 71.407 952.828 76.9376H952.926ZM937.351 63.6861H903.553V63.7841H937.351V63.6861ZM354.73 278.966H354.681V279.015H354.73V278.966ZM354.73 203.553V203.504H354.681V203.553H354.73ZM362.546 203.553H362.595V203.504H362.546V203.553ZM362.546 278.966V279.015H362.595V278.966H362.546ZM354.779 278.966V203.553H354.681V278.966H354.779ZM354.73 203.602H362.546V203.504H354.73V203.602ZM362.497 203.553V278.966H362.595V203.553H362.497ZM362.546 278.917H354.73V279.015H362.546V278.917ZM380.467 278.966H380.418V279.015H380.467V278.966ZM380.467 203.553V203.504H380.418V203.553H380.467ZM389.868 203.553L389.906 203.522L389.891 203.504H389.868V203.553ZM442.572 267.981L442.534 268.012L442.549 268.03H442.572V267.981ZM442.783 267.981V268.03H442.832V267.981H442.783ZM442.783 203.553V203.504H442.734V203.553H442.783ZM450.599 203.553H450.648V203.504H450.599V203.553ZM450.599 278.966V279.015H450.648V278.966H450.599ZM441.516 278.966L441.478 278.997L441.493 279.015H441.516V278.966ZM388.495 214.537L388.532 214.506L388.518 214.488H388.495V214.537ZM388.283 214.537V214.488H388.234V214.537H388.283ZM388.283 278.966V279.015H388.332V278.966H388.283ZM380.516 278.966V203.553H380.418V278.966H380.516ZM380.467 203.602H389.868V203.504H380.467V203.602ZM389.83 203.584L442.534 268.012L442.61 267.95L389.906 203.522L389.83 203.584ZM442.572 268.03H442.783V267.932H442.572V268.03ZM442.832 267.981V203.553H442.734V267.981H442.832ZM442.783 203.602H450.599V203.504H442.783V203.602ZM450.55 203.553V278.966H450.648V203.553H450.55ZM450.599 278.917H441.516V279.015H450.599V278.917ZM441.554 278.934L388.532 214.506L388.457 214.569L441.478 278.997L441.554 278.934ZM388.495 214.488H388.283V214.586H388.495V214.488ZM388.234 214.537V278.966H388.332V214.537H388.234ZM388.283 278.917H380.467V279.015H388.283V278.917ZM490.09 278.966H490.041V279.015H490.09V278.966ZM490.09 210.735H490.139V210.686H490.09V210.735ZM460.517 210.735H460.468V210.784H460.517V210.735ZM460.517 203.553V203.504H460.468V203.553H460.517ZM527.48 203.553H527.529V203.504H527.48V203.553ZM527.48 210.735V210.784H527.529V210.735H527.48ZM497.906 210.735V210.686H497.857V210.735H497.906ZM497.906 278.966V279.015H497.955V278.966H497.906ZM490.139 278.966V210.735H490.041V278.966H490.139ZM490.09 210.686H460.517V210.784H490.09V210.686ZM460.566 210.735V203.553H460.468V210.735H460.566ZM460.517 203.602H527.48V203.504H460.517V203.602ZM527.431 203.553V210.735H527.529V203.553H527.431ZM527.48 210.686H497.906V210.784H527.48V210.686ZM497.857 210.735V278.966H497.955V210.735H497.857ZM497.906 278.917H490.09V279.015H497.906V278.917ZM538.663 278.966H538.614V279.015H538.663V278.966ZM538.663 203.553V203.504H538.614V203.553H538.663ZM598.655 203.553H598.704V203.504H598.655V203.553ZM598.655 210.735V210.784H598.704V210.735H598.655ZM546.479 210.735V210.686H546.43V210.735H546.479ZM546.479 236.295H546.43V236.344H546.479V236.295ZM596.754 236.295H596.803V236.246H596.754V236.295ZM596.754 243.477V243.526H596.803V243.477H596.754ZM546.479 243.477V243.428H546.43V243.477H546.479ZM546.479 271.783H546.43V271.832H546.479V271.783ZM599.5 271.783H599.549V271.734H599.5V271.783ZM599.5 278.966V279.015H599.549V278.966H599.5ZM538.712 278.966V203.553H538.614V278.966H538.712ZM538.663 203.602H598.655V203.504H538.663V203.602ZM598.606 203.553V210.735H598.704V203.553H598.606ZM598.655 210.686H546.479V210.784H598.655V210.686ZM546.43 210.735V236.295H546.528V210.735H546.43ZM546.479 236.344H596.754V236.246H546.479V236.344ZM596.705 236.295V243.477H596.803V236.295H596.705ZM596.754 243.428H546.479V243.526H596.754V243.428ZM546.43 243.477V271.783H546.528V243.477H546.43ZM546.479 271.832H599.5V271.734H546.479V271.832ZM599.451 271.783V278.966H599.549V271.783H599.451ZM599.5 278.917H538.663V279.015H599.5V278.917ZM614.136 278.966H614.087V279.015H614.136V278.966ZM614.136 203.553V203.504H614.087V203.553H614.136ZM664.939 242.21L664.928 242.162L664.89 242.171V242.21H664.939ZM664.939 242.421H664.89V242.463L664.932 242.469L664.939 242.421ZM678.353 263.334L678.304 263.336L678.304 263.336L678.353 263.334ZM680.993 278.966V279.015H681.117L681.027 278.93L680.993 278.966ZM672.544 278.966L672.507 278.998L672.521 279.015H672.544V278.966ZM670.537 263.545L670.586 263.544L670.586 263.544L670.537 263.545ZM621.952 245.801V245.752H621.903V245.801H621.952ZM621.952 278.966V279.015H622.001V278.966H621.952ZM621.952 210.735V210.686H621.903V210.735H621.952ZM621.952 238.619H621.903V238.668H621.952V238.619ZM614.185 278.966V203.553H614.087V278.966H614.185ZM614.136 203.602H655.222V203.504H614.136V203.602ZM655.222 203.602C661.608 203.602 667.722 204.737 672.239 207.844C676.752 210.95 679.677 216.03 679.677 223.938H679.775C679.775 216.002 676.838 210.89 672.294 207.764C667.754 204.64 661.617 203.504 655.222 203.504V203.602ZM679.677 223.938C679.677 231.944 674.726 239.95 664.928 242.162L664.95 242.258C674.797 240.034 679.775 231.985 679.775 223.938H679.677ZM664.89 242.21V242.421H664.988V242.21H664.89ZM664.932 242.469C670.254 243.313 673.461 245.445 675.406 248.901C677.353 252.362 678.04 257.157 678.304 263.336L678.402 263.332C678.138 257.153 677.451 252.336 675.491 248.853C673.528 245.365 670.292 243.219 664.947 242.373L664.932 242.469ZM678.304 263.336C678.41 265.713 678.621 269.2 679.03 272.305C679.235 273.857 679.49 275.315 679.806 276.491C679.964 277.079 680.137 277.598 680.328 278.024C680.519 278.449 680.729 278.784 680.96 279.001L681.027 278.93C680.809 278.725 680.606 278.403 680.418 277.984C680.23 277.565 680.058 277.051 679.9 276.466C679.586 275.295 679.332 273.842 679.128 272.292C678.719 269.191 678.507 265.708 678.402 263.332L678.304 263.336ZM680.993 278.917H672.544V279.015H680.993V278.917ZM672.581 278.933C672.245 278.546 671.957 277.907 671.713 277.033C671.47 276.16 671.272 275.057 671.114 273.745C670.797 271.12 670.639 267.663 670.586 263.544L670.488 263.546C670.541 267.665 670.699 271.127 671.017 273.756C671.175 275.071 671.373 276.18 671.619 277.059C671.864 277.938 672.156 278.593 672.507 278.998L672.581 278.933ZM670.586 263.544C670.48 256.886 669.16 252.433 666.227 249.647C663.295 246.861 658.764 245.752 652.265 245.752V245.85C658.757 245.85 663.256 246.959 666.16 249.718C669.063 252.477 670.382 256.896 670.488 263.546L670.586 263.544ZM652.265 245.752H621.952V245.85H652.265V245.752ZM621.903 245.801V278.966H622.001V245.801H621.903ZM621.952 278.917H614.136V279.015H621.952V278.917ZM621.903 210.735V238.619H622.001V210.735H621.903ZM621.952 238.668H655.011V238.57H621.952V238.668ZM655.011 238.668C659.293 238.668 663.372 237.875 666.381 235.635C669.393 233.392 671.325 229.706 671.325 223.938H671.227C671.227 229.682 669.305 233.336 666.323 235.556C663.338 237.778 659.284 238.57 655.011 238.57V238.668ZM671.325 223.938C671.325 218.378 669.233 215.061 666.233 213.136C663.237 211.214 659.344 210.686 655.75 210.686V210.784C659.338 210.784 663.208 211.312 666.18 213.219C669.148 215.123 671.227 218.407 671.227 223.938H671.325ZM655.75 210.686H621.952V210.784H655.75V210.686ZM691.415 241.259C691.415 227.964 696.295 218.076 703.849 211.511C711.403 204.946 721.636 201.701 732.347 201.701V201.603C721.617 201.603 711.36 204.853 703.784 211.437C696.208 218.022 691.317 227.938 691.317 241.259H691.415ZM732.347 201.701C743.058 201.701 753.291 204.946 760.845 211.511C768.399 218.076 773.279 227.964 773.279 241.259H773.377C773.377 227.938 768.486 218.022 760.91 211.437C753.334 204.853 743.077 201.603 732.347 201.603V201.701ZM773.279 241.259C773.279 254.554 768.399 264.442 760.845 271.007C753.291 277.573 743.058 280.818 732.347 280.818V280.916C743.077 280.916 753.334 277.665 760.91 271.081C768.486 264.496 773.377 254.58 773.377 241.259H773.279ZM732.347 280.818C721.636 280.818 711.403 277.573 703.849 271.007C696.295 264.442 691.415 254.554 691.415 241.259H691.317C691.317 254.58 696.208 264.496 703.784 271.081C711.36 277.665 721.617 280.916 732.347 280.916V280.818ZM699.767 241.259C699.767 252.626 703.759 260.746 709.831 266.025C715.902 271.302 724.047 273.734 732.347 273.734V273.636C724.065 273.636 715.944 271.209 709.895 265.951C703.847 260.693 699.865 252.601 699.865 241.259H699.767ZM732.347 273.734C740.647 273.734 748.792 271.302 754.863 266.025C760.935 260.746 764.927 252.626 764.927 241.259H764.829C764.829 252.601 760.847 260.693 754.799 265.951C748.75 271.209 740.629 273.636 732.347 273.636V273.734ZM764.927 241.259C764.927 229.893 760.935 221.772 754.863 216.494C748.792 211.217 740.647 208.785 732.347 208.785V208.883C740.629 208.883 748.75 211.31 754.799 216.568C760.847 221.825 764.829 229.918 764.829 241.259H764.927ZM732.347 208.785C724.047 208.785 715.902 211.217 709.831 216.494C703.759 221.772 699.767 229.893 699.767 241.259H699.865C699.865 229.918 703.847 221.825 709.895 216.568C715.944 211.31 724.065 208.883 732.347 208.883V208.785ZM788.702 278.966H788.653V279.015H788.702V278.966ZM788.702 203.553V203.504H788.653V203.553H788.702ZM839.505 242.21L839.494 242.162L839.456 242.171V242.21H839.505ZM839.505 242.421H839.456V242.463L839.497 242.469L839.505 242.421ZM852.919 263.334L852.87 263.336L852.87 263.336L852.919 263.334ZM855.559 278.966V279.015H855.683L855.593 278.93L855.559 278.966ZM847.11 278.966L847.073 278.998L847.087 279.015H847.11V278.966ZM845.103 263.545L845.152 263.544L845.152 263.544L845.103 263.545ZM796.518 245.801V245.752H796.469V245.801H796.518ZM796.518 278.966V279.015H796.567V278.966H796.518ZM796.518 210.735V210.686H796.469V210.735H796.518ZM796.518 238.619H796.469V238.668H796.518V238.619ZM788.751 278.966V203.553H788.653V278.966H788.751ZM788.702 203.602H829.788V203.504H788.702V203.602ZM829.788 203.602C836.174 203.602 842.288 204.737 846.805 207.844C851.318 210.95 854.243 216.03 854.243 223.938H854.341C854.341 216.002 851.404 210.89 846.86 207.764C842.32 204.64 836.182 203.504 829.788 203.504V203.602ZM854.243 223.938C854.243 231.944 849.292 239.95 839.494 242.162L839.516 242.258C849.363 240.034 854.341 231.985 854.341 223.938H854.243ZM839.456 242.21V242.421H839.554V242.21H839.456ZM839.497 242.469C844.82 243.313 848.027 245.445 849.972 248.901C851.919 252.362 852.606 257.157 852.87 263.336L852.968 263.332C852.704 257.153 852.017 252.336 850.057 248.853C848.094 245.365 844.858 243.219 839.513 242.373L839.497 242.469ZM852.87 263.336C852.976 265.713 853.187 269.2 853.596 272.305C853.801 273.857 854.056 275.315 854.372 276.491C854.53 277.079 854.703 277.598 854.894 278.024C855.085 278.449 855.295 278.784 855.526 279.001L855.593 278.93C855.375 278.725 855.172 278.403 854.984 277.984C854.796 277.565 854.624 277.051 854.466 276.466C854.152 275.295 853.898 273.842 853.694 272.292C853.285 269.191 853.073 265.708 852.968 263.332L852.87 263.336ZM855.559 278.917H847.11V279.015H855.559V278.917ZM847.147 278.933C846.811 278.546 846.523 277.907 846.279 277.033C846.036 276.16 845.838 275.057 845.68 273.745C845.363 271.12 845.205 267.663 845.152 263.544L845.054 263.546C845.107 267.665 845.265 271.127 845.582 273.756C845.741 275.071 845.939 276.18 846.185 277.059C846.429 277.938 846.722 278.593 847.073 278.998L847.147 278.933ZM845.152 263.544C845.046 256.886 843.725 252.433 840.793 249.647C837.861 246.861 833.33 245.752 826.831 245.752V245.85C833.323 245.85 837.822 246.959 840.726 249.718C843.629 252.477 844.948 256.896 845.054 263.546L845.152 263.544ZM826.831 245.752H796.518V245.85H826.831V245.752ZM796.469 245.801V278.966H796.567V245.801H796.469ZM796.518 278.917H788.702V279.015H796.518V278.917ZM796.469 210.735V238.619H796.567V210.735H796.469ZM796.518 238.668H829.577V238.57H796.518V238.668ZM829.577 238.668C833.859 238.668 837.938 237.875 840.947 235.635C843.959 233.392 845.891 229.706 845.891 223.938H845.793C845.793 229.682 843.871 233.336 840.889 235.556C837.904 237.778 833.85 238.57 829.577 238.57V238.668ZM845.891 223.938C845.891 218.378 843.799 215.061 840.799 213.136C837.803 211.214 833.91 210.686 830.316 210.686V210.784C833.904 210.784 837.774 211.312 840.746 213.219C843.714 215.123 845.793 218.407 845.793 223.938H845.891ZM830.316 210.686H796.518V210.784H830.316V210.686ZM927.826 225.099V225.148H927.876L927.875 225.098L927.826 225.099ZM920.01 225.099L919.961 225.103L919.965 225.148H920.01V225.099ZM902.583 237.351L902.591 237.303L902.591 237.303L902.583 237.351ZM864.348 254.039V253.99H864.296L864.299 254.042L864.348 254.039ZM872.164 254.039L872.213 254.035L872.209 253.99H872.164V254.039ZM894.133 243.583L894.141 243.535L894.141 243.534L894.133 243.583ZM927.826 225.05H920.01V225.148H927.826V225.05ZM920.059 225.095C919.529 218.637 916.643 214.556 912.364 212.092C908.088 209.63 902.427 208.785 896.351 208.785V208.883C902.421 208.883 908.061 209.728 912.315 212.177C916.565 214.624 919.434 218.676 919.961 225.103L920.059 225.095ZM896.351 208.785C890.272 208.785 884.929 209.974 881.104 212.238C877.276 214.502 874.967 217.844 874.967 222.142H875.065C875.065 217.885 877.349 214.573 881.153 212.322C884.959 210.07 890.283 208.883 896.351 208.883V208.785ZM874.967 222.142C874.967 224.606 875.543 226.603 876.698 228.26C877.853 229.916 879.584 231.228 881.886 232.326C886.488 234.521 893.387 235.868 902.574 237.4L902.591 237.303C893.4 235.771 886.516 234.425 881.929 232.237C879.636 231.144 877.921 229.842 876.779 228.204C875.637 226.566 875.065 224.59 875.065 222.142H874.967ZM902.574 237.4C909.441 238.562 916.298 239.934 921.438 242.82C924.007 244.263 926.146 246.083 927.642 248.443C929.139 250.802 929.995 253.704 929.995 257.313H930.093C930.093 253.688 929.233 250.767 927.725 248.39C926.218 246.014 924.066 244.183 921.486 242.735C916.329 239.839 909.455 238.465 902.591 237.303L902.574 237.4ZM929.995 257.313C929.995 266.537 925.806 272.41 919.787 275.979C913.764 279.551 905.905 280.818 898.569 280.818V280.916C905.914 280.916 913.793 279.648 919.837 276.064C925.884 272.477 930.093 266.573 930.093 257.313H929.995ZM898.569 280.818C889.015 280.818 880.762 279.181 874.753 275.017C868.747 270.856 864.977 264.164 864.397 254.036L864.299 254.042C864.881 264.194 868.662 270.916 874.697 275.098C880.73 279.278 889.006 280.916 898.569 280.916V280.818ZM864.348 254.088H872.164V253.99H864.348V254.088ZM872.115 254.044C872.803 261.977 875.792 266.904 880.429 269.844C885.062 272.783 891.331 273.734 898.569 273.734V273.636C891.337 273.636 885.09 272.685 880.481 269.762C875.876 266.841 872.898 261.945 872.213 254.035L872.115 254.044ZM898.569 273.734C904.223 273.734 909.988 272.968 914.342 270.705C916.52 269.573 918.346 268.066 919.627 266.092C920.908 264.117 921.643 261.679 921.643 258.687H921.545C921.545 261.662 920.815 264.082 919.545 266.038C918.274 267.995 916.463 269.492 914.297 270.618C909.964 272.87 904.217 273.636 898.569 273.636V273.734ZM921.643 258.687C921.643 255.798 920.781 253.542 919.272 251.75C917.763 249.959 915.609 248.635 913.031 247.604C907.875 245.542 901.003 244.643 894.141 243.535L894.125 243.631C900.994 244.741 907.852 245.638 912.994 247.695C915.565 248.723 917.702 250.039 919.197 251.813C920.691 253.586 921.545 255.819 921.545 258.687H921.643ZM894.141 243.534C885.164 242.109 878.282 240.13 873.644 236.994C869.01 233.861 866.615 229.572 866.615 223.515H866.517C866.517 229.604 868.928 233.924 873.589 237.075C878.245 240.224 885.146 242.205 894.125 243.631L894.141 243.534ZM866.615 223.515C866.615 215.295 870.407 209.845 876.018 206.447C881.632 203.047 889.068 201.701 896.351 201.701V201.603C889.058 201.603 881.602 202.95 875.967 206.363C870.329 209.777 866.517 215.258 866.517 223.515H866.615ZM896.351 201.701C904.057 201.701 911.783 203.073 917.647 206.684C923.509 210.293 927.513 216.14 927.777 225.101L927.875 225.098C927.61 216.104 923.588 210.227 917.699 206.601C911.813 202.976 904.066 201.603 896.351 201.603V201.701Z" fill="black"/>
<path d="M138.209 0.499268C101.554 0.499268 66.4018 17.8871 40.481 48.8327C14.563 79.7815 0 121.753 0 165.521C0 209.285 14.563 251.26 40.481 282.209C66.4018 313.154 101.554 330.542 138.209 330.542C140.795 330.542 143.379 330.41 145.96 330.215C110.308 328.526 76.5906 310.44 51.853 279.744C27.1154 249.048 13.2753 208.119 13.2329 165.521C13.2329 123.368 26.7737 82.8194 51.0368 52.1942C75.2972 21.569 108.453 3.18989 143.704 0.829694C141.874 0.674596 140.044 0.559958 138.209 0.499268ZM148.575 92.3378L54.0189 197.552L148.81 134.818L252.132 205.624L217.078 167.274H217.733V126.898H198.618V147.081L148.575 92.3378ZM280.422 142.654C280.422 142.654 280.422 142.654 280.422 142.721C280.419 142.721 280.419 142.721 280.422 142.654ZM280.422 142.721C282.977 181.975 272.726 220.891 251.812 251.33C230.89 281.78 200.914 301.394 168.159 306.06C135.741 310.619 103.09 300.19 76.904 276.912C50.7206 253.637 32.9891 219.279 27.3497 180.885C27.4288 182.908 27.5474 184.932 27.6914 186.948C31.6675 227.135 48.854 263.789 75.4638 288.847C102.077 313.909 135.935 325.319 169.597 320.572C203.252 315.824 233.951 295.304 254.939 263.533C275.929 231.758 285.488 191.331 281.509 151.144C281.215 148.325 280.851 145.516 280.422 142.721ZM131.262 162.527V181.347H147.022V162.527H131.262ZM151.56 162.527V181.347H167.323V162.527H151.56ZM131.262 185.815V204.636H147.022V185.815H131.262ZM151.958 185.815V204.636H167.722V185.815H151.958Z" fill="#111111"/>
</svg>
