<svg width="80" height="79" viewBox="0 0 80 79" fill="none" xmlns="http://www.w3.org/2000/svg">
<path d="M39.1536 0C28.7696 0 18.8112 4.1256 11.468 11.468C4.1256 18.8112 0 28.7696 0 39.1544C0 49.5384 4.1256 59.4976 11.468 66.8408C18.8112 74.1832 28.7696 78.3088 39.1536 78.3088C39.8864 78.3088 40.6184 78.2776 41.3496 78.2312C31.2496 77.8304 21.6976 73.5392 14.6896 66.256C7.6816 58.9728 3.7608 49.2616 3.7488 39.1544C3.7488 29.1528 7.5848 19.532 14.4584 12.2656C21.3312 4.9992 30.724 0.6384 40.7104 0.0784C40.192 0.0416 39.6736 0.0144 39.1536 0ZM42.0904 21.7904L15.3032 46.7544L42.1568 31.8696L71.4272 48.6696L61.4968 39.5704H61.6824V29.9904H56.2672V34.7792L42.0904 21.7904ZM79.4416 33.7288C79.4416 33.7288 79.4416 33.7288 79.4416 33.7448C79.4408 33.7448 79.4408 33.7448 79.4416 33.7288ZM79.4416 33.7448C80.1656 43.0584 77.2616 52.292 71.3368 59.5144C65.4096 66.7392 56.9176 71.3928 47.6384 72.5C38.4544 73.5816 29.2048 71.1072 21.7864 65.584C14.3688 60.0616 9.3456 51.9096 7.748 42.8C7.7704 43.28 7.804 43.76 7.8448 44.2384C8.9712 53.7736 13.84 62.4704 21.3784 68.416C28.9176 74.3624 38.5096 77.0696 48.0456 75.9432C57.58 74.8168 66.2768 69.948 72.2224 62.4096C78.1688 54.8704 80.8768 45.2784 79.7496 35.7432C79.6664 35.0744 79.5632 34.408 79.4416 33.7448ZM37.1856 38.444V42.9096H41.6504V38.444H37.1856ZM42.936 38.444V42.9096H47.4016V38.444H42.936ZM37.1856 43.9696V48.4352H41.6504V43.9696H37.1856ZM43.0488 43.9696V48.4352H47.5144V43.9696H43.0488Z" fill="#111111"/>
</svg>
