<svg width="52" height="51" viewBox="0 0 52 51" fill="none" xmlns="http://www.w3.org/2000/svg">
<path d="M25.4498 0C18.7002 0 12.2273 2.68164 7.4542 7.4542C2.68164 12.2273 0 18.7002 0 25.4504C0 32.2 2.68164 38.6734 7.4542 43.4465C12.2273 48.2191 18.7002 50.9007 25.4498 50.9007C25.9262 50.9007 26.402 50.8804 26.8772 50.8503C20.3122 50.5898 14.1034 47.8005 9.54824 43.0664C4.99304 38.3323 2.44452 32.02 2.43672 25.4504C2.43672 18.9493 4.93012 12.6958 9.39796 7.97264C13.8653 3.24948 19.9706 0.41496 26.4618 0.05096C26.1248 0.02704 25.7878 0.00936 25.4498 0ZM27.3588 14.1638L9.94708 30.3904L27.4019 20.7152L46.4277 31.6352L39.9729 25.7208H40.0936V19.4938H36.5737V22.6065L27.3588 14.1638ZM51.637 21.9237C51.637 21.9237 51.637 21.9237 51.637 21.9341C51.6365 21.9341 51.6365 21.9341 51.637 21.9237ZM51.637 21.9341C52.1076 27.988 50.22 33.9898 46.3689 38.6844C42.5162 43.3805 36.9964 46.4053 30.965 47.125C24.9954 47.828 18.9831 46.2197 14.1612 42.6296C9.33972 39.04 6.07464 33.7412 5.0362 27.82C5.05076 28.132 5.0726 28.444 5.09912 28.755C5.83128 34.9528 8.996 40.6058 13.896 44.4704C18.7964 48.3356 25.0312 50.0952 31.2296 49.3631C37.427 48.6309 43.0799 45.4662 46.9446 40.5662C50.8097 35.6658 52.5699 29.431 51.8372 23.2331C51.7832 22.7984 51.7161 22.3652 51.637 21.9341ZM24.1706 24.9886V27.8912H27.0728V24.9886H24.1706ZM27.9084 24.9886V27.8912H30.811V24.9886H27.9084ZM24.1706 28.5802V31.4829H27.0728V28.5802H24.1706ZM27.9817 28.5802V31.4829H30.8844V28.5802H27.9817Z" fill="#111111"/>
</svg>
