<svg width="960" height="265" viewBox="0 0 960 265" fill="none" xmlns="http://www.w3.org/2000/svg">
<path d="M257.548 76.0893L280.007 24.2595H286.589L260.592 83H254.01L227.766 24.2595H234.841L257.548 76.0893ZM332.204 59.5531L319.288 30.3474L306.207 59.5531H332.204ZM342.488 83L334.672 65.1475H303.739L295.759 83H289.177L315.832 24.2595H322.908L349.563 83H342.488ZM407.784 41.0425H401.696C400.873 31.0056 392.728 28.373 383.267 28.373C373.806 28.373 366.649 32.0751 366.649 38.7389C366.649 46.39 373.806 48.1999 388.121 50.5858C398.816 52.3957 409.511 54.8638 409.511 66.1347C409.511 80.5319 396.43 84.4809 384.995 84.4809C370.104 84.4809 359.244 79.3801 358.339 63.5844H364.427C365.497 75.9248 373.724 78.8865 384.995 78.8865C393.798 78.8865 402.93 76.5007 402.93 67.2042C402.93 58.2368 392.235 57.1673 381.539 55.4397C367.554 53.2184 360.067 49.2694 360.067 39.8084C360.067 26.9744 371.914 22.7786 383.267 22.7786C395.279 22.7786 407.372 27.0566 407.784 41.0425ZM441.676 83V29.8538H418.641V24.2595H470.799V29.8538H447.764V83H441.676ZM536.276 24.2595V60.2936C536.276 70.9886 533.315 84.4809 510.032 84.4809C486.75 84.4809 483.788 70.9886 483.788 60.2936V24.2595H489.876V60.2936C489.876 75.678 499.831 78.8865 510.032 78.8865C520.234 78.8865 530.189 75.678 530.189 60.2936V24.2595H536.276ZM555.883 83V24.2595H561.971V56.0156L599.897 24.2595H608.7L579.577 48.529L610.675 83H602.036L574.805 52.6425L561.971 63.173V83H555.883ZM660.383 59.5531L647.466 30.3474L634.386 59.5531H660.383ZM670.667 83L662.851 65.1475H631.918L623.937 83H617.356L644.011 24.2595H651.086L677.742 83H670.667ZM691.043 83V24.2595H723.046C733.001 24.2595 742.132 27.7971 742.132 40.1375C742.132 46.39 738.266 52.6425 730.615 54.3702V54.5347C738.924 55.851 740.652 61.1985 741.063 70.8241C741.228 74.5262 741.721 81.6837 743.12 83H736.538C735.469 81.766 735.057 77.4057 734.975 70.9886C734.81 60.6227 730.862 57.1673 720.742 57.1673H697.131V83H691.043ZM697.131 29.8538V51.573H722.881C729.545 51.573 735.551 49.1049 735.551 40.1375C735.551 31.4992 729.052 29.8538 723.457 29.8538H697.131ZM235.088 182V123.259H241.176V182H235.088ZM260.072 182V123.259H267.394L308.446 173.444H308.611V123.259H314.699V182H307.623L266.324 131.816H266.16V182H260.072ZM350.395 182V128.854H327.36V123.259H379.519V128.854H356.483V182H350.395ZM393.166 182V123.259H439.895V128.854H399.254V148.763H438.414V154.357H399.254V176.406H440.553V182H393.166ZM456.889 182V123.259H488.892C498.847 123.259 507.979 126.797 507.979 139.138C507.979 145.39 504.112 151.642 496.461 153.37V153.535C504.77 154.851 506.498 160.199 506.909 169.824C507.074 173.526 507.568 180.684 508.966 182H502.385C501.315 180.766 500.904 176.406 500.821 169.989C500.657 159.623 496.708 156.167 486.589 156.167H462.977V182H456.889ZM462.977 128.854V150.573H488.728C495.392 150.573 501.397 148.105 501.397 139.138C501.397 130.499 494.898 128.854 489.304 128.854H462.977ZM521.982 152.63C521.982 131.898 537.202 121.779 553.903 121.779C570.604 121.779 585.823 131.898 585.823 152.63C585.823 173.362 570.604 183.481 553.903 183.481C537.202 183.481 521.982 173.362 521.982 152.63ZM528.564 152.63C528.564 170.318 540.986 177.887 553.903 177.887C566.819 177.887 579.242 170.318 579.242 152.63C579.242 134.942 566.819 127.373 553.903 127.373C540.986 127.373 528.564 134.942 528.564 152.63ZM602.735 182V123.259H634.738C644.692 123.259 653.824 126.797 653.824 139.138C653.824 145.39 649.958 151.642 642.307 153.37V153.535C650.616 154.851 652.344 160.199 652.755 169.824C652.919 173.526 653.413 180.684 654.812 182H648.23C647.161 180.766 646.749 176.406 646.667 169.989C646.502 159.623 642.553 156.167 632.434 156.167H608.823V182H602.735ZM608.823 128.854V150.573H634.573C641.237 150.573 647.243 148.105 647.243 139.138C647.243 130.499 640.744 128.854 635.149 128.854H608.823ZM716.038 140.042H709.95C709.127 130.006 700.982 127.373 691.521 127.373C682.06 127.373 674.903 131.075 674.903 137.739C674.903 145.39 682.06 147.2 696.375 149.586C707.07 151.396 717.765 153.864 717.765 165.135C717.765 179.532 704.684 183.481 693.249 183.481C678.358 183.481 667.498 178.38 666.594 162.584H672.681C673.751 174.925 681.978 177.887 693.249 177.887C702.052 177.887 711.184 175.501 711.184 166.204C711.184 157.237 700.489 156.167 689.794 154.44C675.808 152.218 668.321 148.269 668.321 138.808C668.321 125.974 680.168 121.779 691.521 121.779C703.533 121.779 715.626 126.057 716.038 140.042Z" fill="black"/>
<path d="M257.548 76.0893L257.516 76.1031L257.548 76.1752L257.579 76.103L257.548 76.0893ZM280.007 24.2595V24.2252H279.985L279.976 24.2458L280.007 24.2595ZM286.589 24.2595L286.62 24.2733L286.641 24.2252H286.589V24.2595ZM260.592 83V83.0343H260.614L260.623 83.0139L260.592 83ZM254.01 83L253.979 83.014L253.988 83.0343H254.01V83ZM227.766 24.2595V24.2252H227.713L227.735 24.2735L227.766 24.2595ZM234.841 24.2595L234.873 24.2457L234.864 24.2252H234.841V24.2595ZM257.579 76.103L280.039 24.2731L279.976 24.2458L257.516 76.0757L257.579 76.103ZM280.007 24.2937H286.589V24.2252H280.007V24.2937ZM286.557 24.2456L260.56 82.9861L260.623 83.0139L286.62 24.2733L286.557 24.2456ZM260.592 82.9657H254.01V83.0343H260.592V82.9657ZM254.041 82.986L227.797 24.2455L227.735 24.2735L253.979 83.014L254.041 82.986ZM227.766 24.2937H234.841V24.2252H227.766V24.2937ZM234.81 24.2732L257.516 76.1031L257.579 76.0756L234.873 24.2457L234.81 24.2732ZM332.204 59.5532V59.5874H332.257L332.235 59.5393L332.204 59.5532ZM319.288 30.3474L319.319 30.3336L319.288 30.2631L319.256 30.3334L319.288 30.3474ZM306.207 59.5532L306.176 59.5391L306.154 59.5874H306.207V59.5532ZM342.488 83L342.456 83.0137L342.465 83.0343H342.488V83ZM334.672 65.1475L334.704 65.1337L334.695 65.1132H334.672V65.1475ZM303.739 65.1475V65.1132H303.717L303.707 65.1335L303.739 65.1475ZM295.759 83V83.0343H295.781L295.79 83.014L295.759 83ZM289.177 83L289.146 82.9858L289.124 83.0343H289.177V83ZM315.832 24.2595V24.2252H315.81L315.801 24.2453L315.832 24.2595ZM322.908 24.2595L322.939 24.2453L322.93 24.2252H322.908V24.2595ZM349.563 83V83.0343H349.616L349.594 82.9858L349.563 83ZM332.235 59.5393L319.319 30.3336L319.256 30.3613L332.173 59.567L332.235 59.5393ZM319.256 30.3334L306.176 59.5391L306.238 59.5672L319.319 30.3614L319.256 30.3334ZM306.207 59.5874H332.204V59.5189H306.207V59.5874ZM342.519 82.9863L334.704 65.1337L334.641 65.1612L342.456 83.0137L342.519 82.9863ZM334.672 65.1132H303.739V65.1818H334.672V65.1132ZM303.707 65.1335L295.727 82.986L295.79 83.014L303.77 65.1615L303.707 65.1335ZM295.759 82.9657H289.177V83.0343H295.759V82.9657ZM289.208 83.0142L315.864 24.2736L315.801 24.2453L289.146 82.9858L289.208 83.0142ZM315.832 24.2937H322.908V24.2252H315.832V24.2937ZM322.876 24.2736L349.532 83.0142L349.594 82.9858L322.939 24.2453L322.876 24.2736ZM349.563 82.9657H342.488V83.0343H349.563V82.9657ZM407.784 41.0425V41.0768H407.819L407.818 41.0415L407.784 41.0425ZM401.696 41.0425L401.661 41.0453L401.664 41.0768H401.696V41.0425ZM388.121 50.5858L388.127 50.552L388.127 50.5519L388.121 50.5858ZM358.339 63.5844V63.5501H358.303L358.305 63.5863L358.339 63.5844ZM364.427 63.5844L364.462 63.5814L364.459 63.5501H364.427V63.5844ZM381.539 55.4397L381.545 55.4058L381.545 55.4058L381.539 55.4397ZM407.784 41.0082H401.696V41.0768H407.784V41.0082ZM401.73 41.0397C401.318 36.0105 399.07 32.8328 395.738 30.9142C392.408 28.9969 388 28.3387 383.267 28.3387V28.4072C387.996 28.4072 392.39 29.0653 395.704 30.9736C399.015 32.8805 401.251 36.0375 401.661 41.0453L401.73 41.0397ZM383.267 28.3387C378.533 28.3387 374.372 29.2649 371.393 31.0275C368.413 32.7908 366.614 35.3924 366.614 38.7389H366.683C366.683 35.4216 368.464 32.8402 371.428 31.0865C374.393 29.3321 378.54 28.4072 383.267 28.4072V28.3387ZM366.614 38.7389C366.614 40.6573 367.063 42.2122 367.963 43.5019C368.862 44.7912 370.209 45.8126 372.002 46.6678C375.586 48.3773 380.959 49.4269 388.115 50.6196L388.127 50.5519C380.968 49.3588 375.605 48.3105 372.032 46.6059C370.246 45.7539 368.909 44.7392 368.019 43.4627C367.129 42.1866 366.683 40.6461 366.683 38.7389H366.614ZM388.115 50.6196C393.464 51.5246 398.805 52.5935 402.81 54.8423C404.812 55.9663 406.478 57.3844 407.644 59.2231C408.81 61.0617 409.477 63.3227 409.477 66.1347H409.545C409.545 63.3113 408.876 61.0372 407.702 59.1864C406.528 57.3359 404.853 55.9106 402.844 54.7825C398.827 52.527 393.474 51.4568 388.127 50.552L388.115 50.6196ZM409.477 66.1347C409.477 73.3205 406.214 77.8962 401.524 80.6772C396.832 83.4597 390.71 84.4466 384.995 84.4466V84.5151C390.716 84.5151 396.852 83.5275 401.559 80.7362C406.268 77.9435 409.545 73.3461 409.545 66.1347H409.477ZM384.995 84.4466C377.552 84.4466 371.123 83.1717 366.442 79.9278C361.763 76.6853 358.826 71.4718 358.374 63.5824L358.305 63.5863C358.758 71.4927 361.703 76.7275 366.403 79.9842C371.101 83.2396 377.546 84.5151 384.995 84.5151V84.4466ZM358.339 63.6186H364.427V63.5501H358.339V63.6186ZM364.393 63.5873C364.929 69.7657 367.257 73.6021 370.867 75.8921C374.475 78.1804 379.358 78.9208 384.995 78.9208V78.8522C379.361 78.8522 374.495 78.1118 370.904 75.8342C367.316 73.5581 364.996 69.7435 364.462 63.5814L364.393 63.5873ZM384.995 78.9208C389.398 78.9208 393.889 78.3242 397.279 76.562C398.975 75.6806 400.396 74.5072 401.394 72.9702C402.392 71.4331 402.964 69.5342 402.964 67.2042H402.895C402.895 69.5225 402.326 71.408 401.336 72.9329C400.347 74.4579 398.935 75.624 397.247 76.5011C393.871 78.2559 389.394 78.8522 384.995 78.8522V78.9208ZM402.964 67.2042C402.964 64.9549 402.293 63.1987 401.118 61.8038C399.943 60.4096 398.266 59.3785 396.258 58.5752C392.243 56.9692 386.89 56.2693 381.545 55.4058L381.534 55.4735C386.884 56.3377 392.226 57.0364 396.232 58.6389C398.235 59.4398 399.9 60.4655 401.065 61.8479C402.229 63.2296 402.895 64.9699 402.895 67.2042H402.964ZM381.545 55.4058C374.553 54.2953 369.191 52.7536 365.578 50.3106C361.967 47.8694 360.101 44.5276 360.101 39.8084H360.033C360.033 44.5503 361.91 47.9134 365.539 50.3673C369.166 52.8193 374.54 54.3627 381.534 55.4735L381.545 55.4058ZM360.101 39.8084C360.101 33.4043 363.056 29.1575 367.427 26.5101C371.801 23.8614 377.594 22.8129 383.267 22.8129V22.7443C377.587 22.7443 371.78 23.7937 367.392 26.4514C363.002 29.1104 360.033 33.3785 360.033 39.8084H360.101ZM383.267 22.8129C389.27 22.8129 395.289 23.882 399.857 26.695C404.424 29.5068 407.544 34.0623 407.749 41.0435L407.818 41.0415C407.612 34.0368 404.479 29.4604 399.893 26.6367C395.309 23.8143 389.276 22.7443 383.267 22.7443V22.8129ZM441.676 83H441.642V83.0343H441.676V83ZM441.676 29.8538H441.71V29.8195H441.676V29.8538ZM418.641 29.8538H418.606V29.8881H418.641V29.8538ZM418.641 24.2595V24.2252H418.606V24.2595H418.641ZM470.799 24.2595H470.834V24.2252H470.799V24.2595ZM470.799 29.8538V29.8881H470.834V29.8538H470.799ZM447.764 29.8538V29.8195H447.73V29.8538H447.764ZM447.764 83V83.0343H447.798V83H447.764ZM441.71 83V29.8538H441.642V83H441.71ZM441.676 29.8195H418.641V29.8881H441.676V29.8195ZM418.675 29.8538V24.2595H418.606V29.8538H418.675ZM418.641 24.2937H470.799V24.2252H418.641V24.2937ZM470.765 24.2595V29.8538H470.834V24.2595H470.765ZM470.799 29.8195H447.764V29.8881H470.799V29.8195ZM447.73 29.8538V83H447.798V29.8538H447.73ZM447.764 82.9657H441.676V83.0343H447.764V82.9657ZM536.276 24.2595H536.311V24.2252H536.276V24.2595ZM483.788 24.2595V24.2252H483.754V24.2595H483.788ZM489.876 24.2595H489.911V24.2252H489.876V24.2595ZM530.189 24.2595V24.2252H530.154V24.2595H530.189ZM536.242 24.2595V60.2936H536.311V24.2595H536.242ZM536.242 60.2936C536.242 65.6392 535.502 71.6762 531.858 76.3769C528.216 81.0757 521.667 84.4466 510.032 84.4466V84.5151C521.68 84.5151 528.253 81.1399 531.912 76.4189C535.57 71.6996 536.311 65.6431 536.311 60.2936H536.242ZM510.032 84.4466C498.398 84.4466 491.849 81.0757 488.207 76.3769C484.563 71.6762 483.823 65.6392 483.823 60.2936H483.754C483.754 65.6431 484.495 71.6996 488.152 76.4189C491.812 81.1399 498.385 84.5151 510.032 84.5151V84.4466ZM483.823 60.2936V24.2595H483.754V60.2936H483.823ZM483.788 24.2937H489.876V24.2252H483.788V24.2937ZM489.842 24.2595V60.2936H489.911V24.2595H489.842ZM489.842 60.2936C489.842 67.9938 492.334 72.6538 496.109 75.387C499.881 78.1185 504.929 78.9208 510.032 78.9208V78.8522C504.934 78.8522 499.904 78.0502 496.149 75.3314C492.396 72.6143 489.911 67.9778 489.911 60.2936H489.842ZM510.032 78.9208C515.136 78.9208 520.183 78.1185 523.956 75.387C527.731 72.6538 530.223 67.9938 530.223 60.2936H530.154C530.154 67.9778 527.669 72.6143 523.916 75.3314C520.161 78.0502 515.131 78.8522 510.032 78.8522V78.9208ZM530.223 60.2936V24.2595H530.154V60.2936H530.223ZM530.189 24.2937H536.276V24.2252H530.189V24.2937ZM555.883 83H555.849V83.0343H555.883V83ZM555.883 24.2595V24.2252H555.849V24.2595H555.883ZM561.971 24.2595H562.005V24.2252H561.971V24.2595ZM561.971 56.0156H561.937V56.089L561.993 56.0418L561.971 56.0156ZM599.897 24.2595V24.2252H599.885L599.875 24.2332L599.897 24.2595ZM608.7 24.2595L608.722 24.2858L608.795 24.2252H608.7V24.2595ZM579.577 48.529L579.555 48.5027L579.527 48.5255L579.551 48.552L579.577 48.529ZM610.675 83V83.0343H610.752L610.7 82.977L610.675 83ZM602.036 83L602.011 83.0229L602.021 83.0343H602.036V83ZM574.805 52.6425L574.831 52.6196L574.809 52.5952L574.783 52.616L574.805 52.6425ZM561.971 63.173L561.949 63.1465L561.937 63.1568V63.173H561.971ZM561.971 83V83.0343H562.005V83H561.971ZM555.917 83V24.2595H555.849V83H555.917ZM555.883 24.2937H561.971V24.2252H555.883V24.2937ZM561.937 24.2595V56.0156H562.005V24.2595H561.937ZM561.993 56.0418L599.919 24.2858L599.875 24.2332L561.949 55.9893L561.993 56.0418ZM599.897 24.2937H608.7V24.2252H599.897V24.2937ZM608.678 24.2331L579.555 48.5027L579.599 48.5554L608.722 24.2858L608.678 24.2331ZM579.551 48.552L610.649 83.023L610.7 82.977L579.602 48.5061L579.551 48.552ZM610.675 82.9657H602.036V83.0343H610.675V82.9657ZM602.062 82.9771L574.831 52.6196L574.78 52.6654L602.011 83.0229L602.062 82.9771ZM574.783 52.616L561.949 63.1465L561.993 63.1995L574.827 52.669L574.783 52.616ZM561.937 63.173V83H562.005V63.173H561.937ZM561.971 82.9657H555.883V83.0343H561.971V82.9657ZM660.383 59.5532V59.5874H660.435L660.414 59.5393L660.383 59.5532ZM647.466 30.3474L647.498 30.3336L647.467 30.2631L647.435 30.3334L647.466 30.3474ZM634.386 59.5532L634.354 59.5391L634.333 59.5874H634.386V59.5532ZM670.667 83L670.635 83.0137L670.644 83.0343H670.667V83ZM662.851 65.1475L662.882 65.1337L662.873 65.1132H662.851V65.1475ZM631.918 65.1475V65.1132H631.895L631.886 65.1335L631.918 65.1475ZM623.937 83V83.0343H623.96L623.969 83.014L623.937 83ZM617.356 83L617.325 82.9858L617.303 83.0343H617.356V83ZM644.011 24.2595V24.2252H643.989L643.98 24.2453L644.011 24.2595ZM651.086 24.2595L651.118 24.2453L651.108 24.2252H651.086V24.2595ZM677.742 83V83.0343H677.795L677.773 82.9858L677.742 83ZM660.414 59.5393L647.498 30.3336L647.435 30.3613L660.351 59.567L660.414 59.5393ZM647.435 30.3334L634.354 59.5391L634.417 59.5672L647.498 30.3614L647.435 30.3334ZM634.386 59.5874H660.383V59.5189H634.386V59.5874ZM670.698 82.9863L662.882 65.1337L662.819 65.1612L670.635 83.0137L670.698 82.9863ZM662.851 65.1132H631.918V65.1818H662.851V65.1132ZM631.886 65.1335L623.906 82.986L623.969 83.014L631.949 65.1615L631.886 65.1335ZM623.937 82.9657H617.356V83.0343H623.937V82.9657ZM617.387 83.0142L644.042 24.2736L643.98 24.2453L617.325 82.9858L617.387 83.0142ZM644.011 24.2937H651.086V24.2252H644.011V24.2937ZM651.055 24.2736L677.71 83.0142L677.773 82.9858L651.118 24.2453L651.055 24.2736ZM677.742 82.9657H670.667V83.0343H677.742V82.9657ZM691.043 83H691.009V83.0343H691.043V83ZM691.043 24.2595V24.2252H691.009V24.2595H691.043ZM730.615 54.3702L730.607 54.3367L730.58 54.3428V54.3702H730.615ZM730.615 54.5347H730.58V54.564L730.609 54.5686L730.615 54.5347ZM741.063 70.8241L741.029 70.8256V70.8256L741.063 70.8241ZM743.12 83V83.0343H743.206L743.143 82.975L743.12 83ZM736.538 83L736.512 83.0225L736.522 83.0343H736.538V83ZM734.975 70.9886L735.009 70.9882V70.9881L734.975 70.9886ZM697.131 57.1673V57.1331H697.097V57.1673H697.131ZM697.131 83V83.0343H697.165V83H697.131ZM697.131 29.8538V29.8195H697.097V29.8538H697.131ZM697.131 51.573H697.097V51.6073H697.131V51.573ZM691.077 83V24.2595H691.009V83H691.077ZM691.043 24.2937H723.046V24.2252H691.043V24.2937ZM723.046 24.2937C728.02 24.2937 732.784 25.1778 736.303 27.5991C739.82 30.0188 742.098 33.977 742.098 40.1375H742.167C742.167 33.9575 739.879 29.9768 736.342 27.5426C732.806 25.11 728.026 24.2252 723.046 24.2252V24.2937ZM742.098 40.1375C742.098 46.3758 738.241 52.613 730.607 54.3367L730.622 54.4036C738.291 52.672 742.167 46.4042 742.167 40.1375H742.098ZM730.58 54.3702V54.5347H730.649V54.3702H730.58ZM730.609 54.5686C734.756 55.2255 737.255 56.8868 738.771 59.5802C740.288 62.2771 740.823 66.0129 741.029 70.8256L741.097 70.8226C740.892 66.0097 740.357 62.259 738.83 59.5466C737.302 56.8308 734.783 55.1602 730.62 54.5008L730.609 54.5686ZM741.029 70.8256C741.111 72.677 741.276 75.3931 741.595 77.8112C741.754 79.0202 741.952 80.1557 742.198 81.0717C742.321 81.5297 742.457 81.9336 742.605 82.2648C742.754 82.5955 742.917 82.856 743.096 83.025L743.143 82.975C742.973 82.815 742.815 82.5638 742.668 82.2367C742.521 81.91 742.387 81.5099 742.265 81.0539C742.02 80.142 741.822 79.0099 741.663 77.8022C741.344 75.387 741.18 72.6733 741.097 70.8226L741.029 70.8256ZM743.12 82.9657H736.538V83.0343H743.12V82.9657ZM736.564 82.9775C736.302 82.6749 736.077 82.1769 735.887 81.4958C735.698 80.8155 735.544 79.9562 735.42 78.9338C735.174 76.8892 735.05 74.1963 735.009 70.9882L734.941 70.9891C734.982 74.198 735.105 76.8937 735.352 78.942C735.476 79.9662 735.63 80.8293 735.821 81.5142C736.012 82.1983 736.24 82.7081 736.512 83.0225L736.564 82.9775ZM735.009 70.9881C734.927 65.8022 733.898 62.3351 731.615 60.1659C729.333 57.9969 725.804 57.1331 720.742 57.1331V57.2016C725.8 57.2016 729.305 58.0654 731.568 60.2156C733.831 62.3655 734.859 65.809 734.941 70.9892L735.009 70.9881ZM720.742 57.1331H697.131V57.2016H720.742V57.1331ZM697.097 57.1673V83H697.165V57.1673H697.097ZM697.131 82.9657H691.043V83.0343H697.131V82.9657ZM697.097 29.8538V51.573H697.165V29.8538H697.097ZM697.131 51.6073H722.881V51.5387H697.131V51.6073ZM722.881 51.6073C726.217 51.6073 729.393 50.9898 731.736 49.2455C734.08 47.4998 735.585 44.6296 735.585 40.1375H735.517C735.517 44.6128 734.019 47.4604 731.695 49.1905C729.369 50.9221 726.21 51.5387 722.881 51.5387V51.6073ZM735.585 40.1375C735.585 35.8083 733.956 33.2257 731.62 31.7274C729.288 30.231 726.257 29.8195 723.457 29.8195V29.8881C726.252 29.8881 729.268 30.2993 731.583 31.7851C733.897 33.2692 735.517 35.8285 735.517 40.1375H735.585ZM723.457 29.8195H697.131V29.8881H723.457V29.8195ZM235.088 182H235.054V182.034H235.088V182ZM235.088 123.259V123.225H235.054V123.259H235.088ZM241.176 123.259H241.21V123.225H241.176V123.259ZM241.176 182V182.034H241.21V182H241.176ZM235.122 182V123.259H235.054V182H235.122ZM235.088 123.294H241.176V123.225H235.088V123.294ZM241.142 123.259V182H241.21V123.259H241.142ZM241.176 181.966H235.088V182.034H241.176V181.966ZM260.072 182H260.037V182.034H260.072V182ZM260.072 123.259V123.225H260.037V123.259H260.072ZM267.394 123.259L267.42 123.238L267.41 123.225H267.394V123.259ZM308.446 173.444L308.42 173.466L308.43 173.478H308.446V173.444ZM308.611 173.444V173.478H308.645V173.444H308.611ZM308.611 123.259V123.225H308.576V123.259H308.611ZM314.699 123.259H314.733V123.225H314.699V123.259ZM314.699 182V182.034H314.733V182H314.699ZM307.623 182L307.597 182.022L307.607 182.034H307.623V182ZM266.324 131.816L266.351 131.794L266.34 131.781H266.324V131.816ZM266.16 131.816V131.781H266.125V131.816H266.16ZM266.16 182V182.034H266.194V182H266.16ZM260.106 182V123.259H260.037V182H260.106ZM260.072 123.294H267.394V123.225H260.072V123.294ZM267.367 123.281L308.42 173.466L308.473 173.422L267.42 123.238L267.367 123.281ZM308.446 173.478H308.611V173.41H308.446V173.478ZM308.645 173.444V123.259H308.576V173.444H308.645ZM308.611 123.294H314.699V123.225H308.611V123.294ZM314.664 123.259V182H314.733V123.259H314.664ZM314.699 181.966H307.623V182.034H314.699V181.966ZM307.65 181.978L266.351 131.794L266.298 131.837L307.597 182.022L307.65 181.978ZM266.324 131.781H266.16V131.85H266.324V131.781ZM266.125 131.816V182H266.194V131.816H266.125ZM266.16 181.966H260.072V182.034H266.16V181.966ZM350.395 182H350.361V182.034H350.395V182ZM350.395 128.854H350.43V128.82H350.395V128.854ZM327.36 128.854H327.326V128.888H327.36V128.854ZM327.36 123.259V123.225H327.326V123.259H327.36ZM379.519 123.259H379.553V123.225H379.519V123.259ZM379.519 128.854V128.888H379.553V128.854H379.519ZM356.483 128.854V128.82H356.449V128.854H356.483ZM356.483 182V182.034H356.518V182H356.483ZM350.43 182V128.854H350.361V182H350.43ZM350.395 128.82H327.36V128.888H350.395V128.82ZM327.394 128.854V123.259H327.326V128.854H327.394ZM327.36 123.294H379.519V123.225H327.36V123.294ZM379.484 123.259V128.854H379.553V123.259H379.484ZM379.519 128.82H356.483V128.888H379.519V128.82ZM356.449 128.854V182H356.518V128.854H356.449ZM356.483 181.966H350.395V182.034H356.483V181.966ZM393.166 182H393.132V182.034H393.166V182ZM393.166 123.259V123.225H393.132V123.259H393.166ZM439.895 123.259H439.929V123.225H439.895V123.259ZM439.895 128.854V128.888H439.929V128.854H439.895ZM399.254 128.854V128.82H399.22V128.854H399.254ZM399.254 148.763H399.22V148.797H399.254V148.763ZM438.414 148.763H438.448V148.729H438.414V148.763ZM438.414 154.357V154.392H438.448V154.357H438.414ZM399.254 154.357V154.323H399.22V154.357H399.254ZM399.254 176.406H399.22V176.44H399.254V176.406ZM440.553 176.406H440.587V176.371H440.553V176.406ZM440.553 182V182.034H440.587V182H440.553ZM393.2 182V123.259H393.132V182H393.2ZM393.166 123.294H439.895V123.225H393.166V123.294ZM439.861 123.259V128.854H439.929V123.259H439.861ZM439.895 128.82H399.254V128.888H439.895V128.82ZM399.22 128.854V148.763H399.288V128.854H399.22ZM399.254 148.797H438.414V148.729H399.254V148.797ZM438.38 148.763V154.357H438.448V148.763H438.38ZM438.414 154.323H399.254V154.392H438.414V154.323ZM399.22 154.357V176.406H399.288V154.357H399.22ZM399.254 176.44H440.553V176.371H399.254V176.44ZM440.519 176.406V182H440.587V176.406H440.519ZM440.553 181.966H393.166V182.034H440.553V181.966ZM456.889 182H456.855V182.034H456.889V182ZM456.889 123.259V123.225H456.855V123.259H456.889ZM496.461 153.37L496.454 153.337L496.427 153.343V153.37H496.461ZM496.461 153.535H496.427V153.564L496.456 153.569L496.461 153.535ZM506.909 169.824L506.875 169.826V169.826L506.909 169.824ZM508.966 182V182.034H509.053L508.99 181.975L508.966 182ZM502.385 182L502.359 182.022L502.369 182.034H502.385V182ZM500.821 169.989L500.856 169.988V169.988L500.821 169.989ZM462.977 156.167V156.133H462.943V156.167H462.977ZM462.977 182V182.034H463.012V182H462.977ZM462.977 128.854V128.82H462.943V128.854H462.977ZM462.977 150.573H462.943V150.607H462.977V150.573ZM456.924 182V123.259H456.855V182H456.924ZM456.889 123.294H488.892V123.225H456.889V123.294ZM488.892 123.294C493.867 123.294 498.63 124.178 502.149 126.599C505.666 129.019 507.945 132.977 507.945 139.138H508.013C508.013 132.958 505.726 128.977 502.188 126.543C498.653 124.11 493.873 123.225 488.892 123.225V123.294ZM507.945 139.138C507.945 145.376 504.087 151.613 496.454 153.337L496.469 153.404C504.137 151.672 508.013 145.404 508.013 139.138H507.945ZM496.427 153.37V153.535H496.495V153.37H496.427ZM496.456 153.569C500.603 154.225 503.101 155.887 504.617 158.58C506.135 161.277 506.67 165.013 506.875 169.826L506.944 169.823C506.738 165.01 506.203 161.259 504.677 158.547C503.149 155.831 500.629 154.16 496.467 153.501L496.456 153.569ZM506.875 169.826C506.957 171.677 507.122 174.393 507.441 176.811C507.601 178.02 507.799 179.156 508.045 180.072C508.168 180.53 508.303 180.934 508.452 181.265C508.6 181.595 508.763 181.856 508.943 182.025L508.99 181.975C508.82 181.815 508.661 181.564 508.514 181.237C508.368 180.91 508.234 180.51 508.111 180.054C507.866 179.142 507.668 178.01 507.509 176.802C507.19 174.387 507.026 171.673 506.944 169.823L506.875 169.826ZM508.966 181.966H502.385V182.034H508.966V181.966ZM502.411 181.978C502.148 181.675 501.924 181.177 501.734 180.496C501.544 179.816 501.39 178.956 501.267 177.934C501.02 175.889 500.897 173.196 500.856 169.988L500.787 169.989C500.828 173.198 500.952 175.894 501.199 177.942C501.322 178.966 501.477 179.829 501.668 180.514C501.858 181.198 502.086 181.708 502.359 182.022L502.411 181.978ZM500.856 169.988C500.773 164.802 499.745 161.335 497.462 159.166C495.179 156.997 491.651 156.133 486.589 156.133V156.202C491.646 156.202 495.152 157.065 497.415 159.216C499.677 161.365 500.705 164.809 500.787 169.989L500.856 169.988ZM486.589 156.133H462.977V156.202H486.589V156.133ZM462.943 156.167V182H463.012V156.167H462.943ZM462.977 181.966H456.889V182.034H462.977V181.966ZM462.943 128.854V150.573H463.012V128.854H462.943ZM462.977 150.607H488.728V150.539H462.977V150.607ZM488.728 150.607C492.063 150.607 495.239 149.99 497.582 148.246C499.927 146.5 501.432 143.63 501.432 139.138H501.363C501.363 143.613 499.865 146.46 497.541 148.191C495.215 149.922 492.057 150.539 488.728 150.539V150.607ZM501.432 139.138C501.432 134.808 499.802 132.226 497.467 130.727C495.134 129.231 492.103 128.82 489.304 128.82V128.888C492.099 128.888 495.114 129.299 497.43 130.785C499.743 132.269 501.363 134.828 501.363 139.138H501.432ZM489.304 128.82H462.977V128.888H489.304V128.82ZM522.016 152.63C522.016 142.273 525.818 134.57 531.702 129.456C537.587 124.341 545.559 121.813 553.903 121.813V121.744C545.546 121.744 537.557 124.276 531.657 129.404C525.757 134.532 521.948 142.255 521.948 152.63H522.016ZM553.903 121.813C562.247 121.813 570.218 124.341 576.103 129.456C581.988 134.57 585.789 142.273 585.789 152.63H585.858C585.858 142.255 582.049 134.532 576.148 129.404C570.248 124.276 562.26 121.744 553.903 121.744V121.813ZM585.789 152.63C585.789 162.987 581.988 170.69 576.103 175.804C570.218 180.919 562.247 183.447 553.903 183.447V183.515C562.26 183.515 570.248 180.983 576.148 175.856C582.049 170.727 585.858 163.005 585.858 152.63H585.789ZM553.903 183.447C545.559 183.447 537.587 180.919 531.702 175.804C525.818 170.69 522.016 162.987 522.016 152.63H521.948C521.948 163.005 525.757 170.727 531.657 175.856C537.557 180.983 545.546 183.515 553.903 183.515V183.447ZM528.529 152.63C528.529 161.482 531.639 167.807 536.367 171.917C541.095 176.027 547.438 177.921 553.903 177.921V177.852C547.451 177.852 541.125 175.962 536.412 171.865C531.7 167.769 528.598 161.465 528.598 152.63H528.529ZM553.903 177.921C560.367 177.921 566.711 176.027 571.438 171.917C576.167 167.807 579.276 161.482 579.276 152.63H579.208C579.208 161.465 576.105 167.769 571.393 171.865C566.681 175.962 560.355 177.852 553.903 177.852V177.921ZM579.276 152.63C579.276 143.777 576.167 137.453 571.438 133.342C566.711 129.233 560.367 127.339 553.903 127.339V127.407C560.355 127.407 566.681 129.298 571.393 133.394C576.105 137.49 579.208 143.794 579.208 152.63H579.276ZM553.903 127.339C547.438 127.339 541.095 129.233 536.367 133.342C531.639 137.453 528.529 143.777 528.529 152.63H528.598C528.598 143.794 531.7 137.49 536.412 133.394C541.125 129.298 547.451 127.407 553.903 127.407V127.339ZM602.735 182H602.701V182.034H602.735V182ZM602.735 123.259V123.225H602.701V123.259H602.735ZM642.307 153.37L642.299 153.337L642.272 153.343V153.37H642.307ZM642.307 153.535H642.272V153.564L642.301 153.569L642.307 153.535ZM652.755 169.824L652.721 169.826V169.826L652.755 169.824ZM654.812 182V182.034H654.898L654.835 181.975L654.812 182ZM648.23 182L648.204 182.022L648.214 182.034H648.23V182ZM646.667 169.989L646.701 169.988V169.988L646.667 169.989ZM608.823 156.167V156.133H608.789V156.167H608.823ZM608.823 182V182.034H608.857V182H608.823ZM608.823 128.854V128.82H608.789V128.854H608.823ZM608.823 150.573H608.789V150.607H608.823V150.573ZM602.769 182V123.259H602.701V182H602.769ZM602.735 123.294H634.738V123.225H602.735V123.294ZM634.738 123.294C639.712 123.294 644.476 124.178 647.995 126.599C651.511 129.019 653.79 132.977 653.79 139.138H653.859C653.859 132.958 651.571 128.977 648.034 126.543C644.498 124.11 639.718 123.225 634.738 123.225V123.294ZM653.79 139.138C653.79 145.376 649.933 151.613 642.299 153.337L642.314 153.404C649.983 151.672 653.859 145.404 653.859 139.138H653.79ZM642.272 153.37V153.535H642.341V153.37H642.272ZM642.301 153.569C646.448 154.225 648.947 155.887 650.463 158.58C651.98 161.277 652.515 165.013 652.721 169.826L652.789 169.823C652.583 165.01 652.049 161.259 650.522 158.547C648.994 155.831 646.474 154.16 642.312 153.501L642.301 153.569ZM652.721 169.826C652.803 171.677 652.967 174.393 653.286 176.811C653.446 178.02 653.644 179.156 653.89 180.072C654.013 180.53 654.148 180.934 654.297 181.265C654.446 181.595 654.609 181.856 654.788 182.025L654.835 181.975C654.665 181.815 654.507 181.564 654.36 181.237C654.213 180.91 654.079 180.51 653.956 180.054C653.712 179.142 653.514 178.01 653.354 176.802C653.036 174.387 652.871 171.673 652.789 169.823L652.721 169.826ZM654.812 181.966H648.23V182.034H654.812V181.966ZM648.256 181.978C647.994 181.675 647.769 181.177 647.579 180.496C647.39 179.816 647.236 178.956 647.112 177.934C646.866 175.889 646.742 173.196 646.701 169.988L646.633 169.989C646.674 173.198 646.797 175.894 647.044 177.942C647.168 178.966 647.322 179.829 647.513 180.514C647.704 181.198 647.932 181.708 648.204 182.022L648.256 181.978ZM646.701 169.988C646.619 164.802 645.59 161.335 643.307 159.166C641.025 156.997 637.496 156.133 632.434 156.133V156.202C637.492 156.202 640.997 157.065 643.26 159.216C645.522 161.365 646.55 164.809 646.633 169.989L646.701 169.988ZM632.434 156.133H608.823V156.202H632.434V156.133ZM608.789 156.167V182H608.857V156.167H608.789ZM608.823 181.966H602.735V182.034H608.823V181.966ZM608.789 128.854V150.573H608.857V128.854H608.789ZM608.823 150.607H634.573V150.539H608.823V150.607ZM634.573 150.607C637.908 150.607 641.085 149.99 643.427 148.246C645.772 146.5 647.277 143.63 647.277 139.138H647.209C647.209 143.613 645.71 146.46 643.387 148.191C641.061 149.922 637.902 150.539 634.573 150.539V150.607ZM647.277 139.138C647.277 134.808 645.648 132.226 643.312 130.727C640.98 129.231 637.949 128.82 635.149 128.82V128.888C637.944 128.888 640.96 129.299 643.275 130.785C645.588 132.269 647.209 134.828 647.209 139.138H647.277ZM635.149 128.82H608.823V128.888H635.149V128.82ZM716.038 140.042V140.077H716.073L716.072 140.041L716.038 140.042ZM709.95 140.042L709.915 140.045L709.918 140.077H709.95V140.042ZM696.375 149.586L696.381 149.552L696.381 149.552L696.375 149.586ZM666.594 162.584V162.55H666.557L666.559 162.586L666.594 162.584ZM672.681 162.584L672.716 162.581L672.713 162.55H672.681V162.584ZM689.794 154.44L689.799 154.406L689.799 154.406L689.794 154.44ZM716.038 140.008H709.95V140.077H716.038V140.008ZM709.984 140.04C709.572 135.011 707.324 131.833 703.992 129.914C700.663 127.997 696.254 127.339 691.521 127.339V127.407C696.25 127.407 700.644 128.065 703.958 129.974C707.269 131.88 709.505 135.038 709.915 140.045L709.984 140.04ZM691.521 127.339C686.787 127.339 682.626 128.265 679.647 130.027C676.667 131.791 674.868 134.392 674.868 137.739H674.937C674.937 134.422 676.718 131.84 679.682 130.087C682.647 128.332 686.795 127.407 691.521 127.407V127.339ZM674.868 137.739C674.868 139.657 675.317 141.212 676.217 142.502C677.116 143.791 678.463 144.813 680.256 145.668C683.84 147.377 689.213 148.427 696.37 149.62L696.381 149.552C689.222 148.359 683.859 147.31 680.286 145.606C678.5 144.754 677.163 143.739 676.273 142.463C675.383 141.187 674.937 139.646 674.937 137.739H674.868ZM696.369 149.62C701.718 150.525 707.059 151.593 711.064 153.842C713.066 154.966 714.732 156.384 715.898 158.223C717.064 160.062 717.731 162.323 717.731 165.135H717.8C717.8 162.311 717.13 160.037 715.956 158.186C714.782 156.336 713.107 154.911 711.098 153.782C707.081 151.527 701.728 150.457 696.381 149.552L696.369 149.62ZM717.731 165.135C717.731 172.321 714.468 176.896 709.778 179.677C705.086 182.46 698.964 183.447 693.249 183.447V183.515C698.97 183.515 705.106 182.528 709.813 179.736C714.522 176.944 717.8 172.346 717.8 165.135H717.731ZM693.249 183.447C685.806 183.447 679.377 182.172 674.696 178.928C670.017 175.685 667.08 170.472 666.628 162.582L666.559 162.586C667.012 170.493 669.957 175.727 674.657 178.984C679.355 182.24 685.801 183.515 693.249 183.515V183.447ZM666.594 162.619H672.681V162.55H666.594V162.619ZM672.647 162.587C673.183 168.766 675.511 172.602 679.121 174.892C682.729 177.18 687.612 177.921 693.249 177.921V177.852C687.615 177.852 682.749 177.112 679.158 174.834C675.57 172.558 673.25 168.743 672.716 162.581L672.647 162.587ZM693.249 177.921C697.652 177.921 702.143 177.324 705.533 175.562C707.229 174.681 708.65 173.507 709.648 171.97C710.646 170.433 711.218 168.534 711.218 166.204H711.149C711.149 168.522 710.58 170.408 709.591 171.933C708.601 173.458 707.189 174.624 705.502 175.501C702.125 177.256 697.648 177.852 693.249 177.852V177.921ZM711.218 166.204C711.218 163.955 710.547 162.199 709.372 160.804C708.197 159.41 706.52 158.379 704.512 157.575C700.497 155.969 695.144 155.269 689.799 154.406L689.788 154.474C695.138 155.338 700.48 156.036 704.487 157.639C706.489 158.44 708.154 159.465 709.319 160.848C710.483 162.23 711.149 163.97 711.149 166.204H711.218ZM689.799 154.406C682.807 153.295 677.445 151.754 673.832 149.311C670.221 146.869 668.355 143.528 668.355 138.808H668.287C668.287 143.55 670.164 146.913 673.793 149.367C677.42 151.819 682.794 153.363 689.788 154.474L689.799 154.406ZM668.355 138.808C668.355 132.404 671.31 128.158 675.682 125.51C680.055 122.861 685.848 121.813 691.521 121.813V121.744C685.841 121.744 680.034 122.794 675.646 125.451C671.256 128.11 668.287 132.379 668.287 138.808H668.355ZM691.521 121.813C697.524 121.813 703.543 122.882 708.111 125.695C712.678 128.507 715.798 133.062 716.003 140.043L716.072 140.041C715.866 133.037 712.733 128.46 708.147 125.637C703.564 122.814 697.53 121.744 691.521 121.744V121.813Z" fill="black"/>
<path d="M107.99 98.5484L118.777 113.556L119.246 11.7866H189.593V1H107.99V98.5484Z" fill="#372943" stroke="#372943" stroke-width="1.501"/>
<path d="M189.593 25.3871H178.337V162.33H189.593V25.3871Z" fill="#372943" stroke="#372943" stroke-width="1.501"/>
<path d="M122.998 22.5732L138.474 30.077" stroke="#372943" stroke-width="1.501"/>
<path d="M122.528 50.2432L138.005 57.7469" stroke="#372943" stroke-width="1.501"/>
<path d="M122.06 77.9131L137.536 85.4168" stroke="#372943" stroke-width="1.501"/>
<path d="M121.59 105.583L137.067 113.087" stroke="#372943" stroke-width="1.501"/>
<path d="M159.109 38.9877L174.585 31.4839" stroke="#372943" stroke-width="1.501"/>
<path d="M159.109 67.1266L174.585 59.6229" stroke="#372943" stroke-width="1.501"/>
<path d="M159.109 94.3275L174.585 86.8238" stroke="#372943" stroke-width="1.501"/>
<path d="M159.109 122.466L174.585 114.963" stroke="#372943" stroke-width="1.501"/>
<path d="M142.695 151.543V21.6353H153.95V164.206L142.695 151.543Z" fill="#372943" stroke="#372943" stroke-width="1.501"/>
<path d="M60.1538 113.087V123.405H70.0024" stroke="black" stroke-width="1.501"/>
<path d="M60.6226 129.032V139.35H70.4712" stroke="black" stroke-width="1.501"/>
<path d="M76.5679 129.032V139.35H86.4165" stroke="black" stroke-width="1.501"/>
<path d="M76.5679 113.087V123.405H86.4165" stroke="black" stroke-width="1.501"/>
<path d="M68.1264 83.5409L62.0296 75.0992L15.1313 142.633H26.3869L68.1264 83.5409Z" fill="black"/>
<path d="M119.714 142.633L65.3125 64.3126H77.0371L131.439 142.633H119.714Z" fill="black"/>
<path d="M68.1264 83.5409L62.0296 75.0992L15.1313 142.633H26.3869L68.1264 83.5409Z" stroke="black" stroke-width="0.500332"/>
<path d="M119.714 142.633L65.3125 64.3126H77.0371L131.439 142.633H119.714Z" stroke="black" stroke-width="0.500332"/>
<path d="M7.15881 161.861L2 172.179L71.4094 188.124L191 182.496V170.303L122.998 171.71L145.04 166.551L137.536 157.171L61.0918 173.586L7.15881 161.861Z" fill="#8B1023" stroke="#8B1023" stroke-width="1.501"/>
</svg>
