<svg width="1037" height="439" viewBox="0 0 1037 439" fill="none" xmlns="http://www.w3.org/2000/svg">
<path d="M160.609 203.38L188.625 138.729H196.834L164.406 212H156.197L123.461 138.729H132.286L160.609 203.38ZM253.734 182.753L237.622 146.323L221.306 182.753H253.734ZM266.561 212L256.812 189.731H218.227L208.273 212H200.063L233.312 138.729H242.138L275.387 212H266.561ZM348.009 159.663H340.415C339.389 147.144 329.23 143.86 317.428 143.86C305.627 143.86 296.699 148.478 296.699 156.79C296.699 166.334 305.627 168.591 323.483 171.567C336.824 173.825 350.164 176.904 350.164 190.963C350.164 208.921 333.848 213.847 319.583 213.847C301.009 213.847 287.463 207.485 286.334 187.782H293.928C295.262 203.175 305.524 206.869 319.583 206.869C330.564 206.869 341.955 203.893 341.955 192.297C341.955 181.111 328.614 179.777 315.273 177.622C297.828 174.851 288.489 169.926 288.489 158.124C288.489 142.115 303.267 136.882 317.428 136.882C332.411 136.882 347.496 142.218 348.009 159.663ZM390.286 212V145.707H361.552V138.729H426.613V145.707H397.88V212H390.286ZM508.288 138.729V183.677C508.288 197.017 504.593 213.847 475.552 213.847C446.51 213.847 442.815 197.017 442.815 183.677V138.729H450.409V183.677C450.409 202.867 462.827 206.869 475.552 206.869C488.276 206.869 500.694 202.867 500.694 183.677V138.729H508.288ZM532.744 212V138.729H540.338V178.34L587.646 138.729H598.627L562.299 169.002L601.089 212H590.314L556.347 174.133L540.338 187.268V212H532.744ZM663.094 182.753L646.983 146.323L630.666 182.753H663.094ZM675.922 212L666.173 189.731H627.587L617.633 212H609.423L642.673 138.729H651.498L684.747 212H675.922ZM701.339 212V138.729H741.258C753.675 138.729 765.066 143.142 765.066 158.535C765.066 166.334 760.243 174.133 750.699 176.288V176.493C761.064 178.135 763.219 184.806 763.732 196.812C763.937 201.43 764.553 210.358 766.298 212H758.088C756.754 210.461 756.241 205.022 756.138 197.017C755.933 184.087 751.007 179.777 738.385 179.777H708.933V212H701.339ZM708.933 145.707V172.799H741.053C749.365 172.799 756.857 169.72 756.857 158.535C756.857 147.759 748.749 145.707 741.771 145.707H708.933ZM178.055 305.753L161.943 269.323L145.627 305.753H178.055ZM190.882 335L181.134 312.731H142.548L132.594 335H124.384L157.633 261.729H166.459L199.708 335H190.882ZM216.3 335V261.729H256.219C268.636 261.729 280.027 266.142 280.027 281.535C280.027 289.334 275.204 297.133 265.66 299.288V299.493C276.025 301.135 278.18 307.806 278.693 319.812C278.898 324.43 279.514 333.358 281.258 335H273.049C271.715 333.461 271.202 328.022 271.099 320.017C270.894 307.087 265.968 302.777 253.346 302.777H223.893V335H216.3ZM223.893 268.707V295.799H256.014C264.326 295.799 271.817 292.72 271.817 281.535C271.817 270.759 263.71 268.707 256.732 268.707H223.893ZM365.429 307.087H373.023C371.381 323.506 357.835 336.847 336.798 336.847C312.99 336.847 297.802 321.865 297.802 298.364C297.802 281.637 308.167 259.882 336.798 259.882C352.807 259.882 370.15 267.168 372.407 286.46H364.813C362.556 272.504 350.036 266.86 336.798 266.86C318.634 266.86 306.012 277.019 306.012 298.364C306.012 314.681 314.529 329.869 336.798 329.869C354.243 329.869 362.864 321.044 365.429 307.087ZM393.283 335V261.729H400.877V292.72H453.83V261.729H461.424V335H453.83V299.698H400.877V335H393.283ZM485.016 335V261.729H492.61V335H485.016ZM537.935 335V268.707H509.201V261.729H574.263V268.707H545.529V335H537.935ZM591.286 335V261.729H649.575V268.707H598.88V293.541H647.727V300.519H598.88V328.022H650.396V335H591.286ZM734.603 307.087H742.197C740.555 323.506 727.009 336.847 705.972 336.847C682.164 336.847 666.976 321.865 666.976 298.364C666.976 281.637 677.341 259.882 705.972 259.882C721.981 259.882 739.324 267.168 741.581 286.46H733.987C731.73 272.504 719.21 266.86 705.972 266.86C687.808 266.86 675.186 277.019 675.186 298.364C675.186 314.681 683.703 329.869 705.972 329.869C723.417 329.869 732.038 321.044 734.603 307.087ZM784.213 335V268.707H755.479V261.729H820.541V268.707H791.807V335H784.213ZM893.595 282.663H886.001C884.974 270.144 874.815 266.86 863.014 266.86C851.212 266.86 842.284 271.478 842.284 279.79C842.284 289.334 851.212 291.591 869.068 294.567C882.409 296.825 895.75 299.904 895.75 313.963C895.75 331.921 879.433 336.847 865.169 336.847C846.594 336.847 833.048 330.485 831.919 310.782H839.513C840.847 326.175 851.11 329.869 865.169 329.869C876.149 329.869 887.54 326.893 887.54 315.297C887.54 304.111 874.199 302.777 860.859 300.622C843.413 297.851 834.075 292.926 834.075 281.124C834.075 265.115 848.852 259.882 863.014 259.882C877.996 259.882 893.081 265.218 893.595 282.663Z" fill="black"/>
<path d="M160.609 203.38L160.57 203.397L160.61 203.487L160.649 203.397L160.609 203.38ZM188.625 138.729V138.686H188.597L188.586 138.712L188.625 138.729ZM196.834 138.729L196.874 138.746L196.9 138.686H196.834V138.729ZM164.406 212V212.043H164.434L164.445 212.017L164.406 212ZM156.197 212L156.158 212.017L156.169 212.043H156.197V212ZM123.461 138.729V138.686H123.395L123.422 138.746L123.461 138.729ZM132.286 138.729L132.325 138.712L132.314 138.686H132.286V138.729ZM160.649 203.397L188.664 138.746L188.586 138.712L160.57 203.363L160.649 203.397ZM188.625 138.772H196.834V138.686H188.625V138.772ZM196.795 138.712L164.367 211.983L164.445 212.017L196.874 138.746L196.795 138.712ZM164.406 211.957H156.197V212.043H164.406V211.957ZM156.236 211.983L123.5 138.711L123.422 138.746L156.158 212.017L156.236 211.983ZM123.461 138.772H132.286V138.686H123.461V138.772ZM132.247 138.746L160.57 203.397L160.649 203.363L132.325 138.712L132.247 138.746ZM253.734 182.753V182.796H253.799L253.773 182.736L253.734 182.753ZM237.622 146.323L237.661 146.305L237.622 146.218L237.583 146.305L237.622 146.323ZM221.306 182.753L221.266 182.736L221.24 182.796H221.306V182.753ZM266.561 212L266.522 212.017L266.533 212.043H266.561V212ZM256.812 189.731L256.851 189.714L256.84 189.689H256.812V189.731ZM218.227 189.731V189.689H218.199L218.188 189.714L218.227 189.731ZM208.273 212V212.043H208.3L208.312 212.017L208.273 212ZM200.063 212L200.024 211.982L199.997 212.043H200.063V212ZM233.312 138.729V138.686H233.285L233.273 138.711L233.312 138.729ZM242.138 138.729L242.176 138.711L242.165 138.686H242.138V138.729ZM275.387 212V212.043H275.453L275.426 211.982L275.387 212ZM253.773 182.736L237.661 146.305L237.583 146.34L253.695 182.77L253.773 182.736ZM237.583 146.305L221.266 182.736L221.345 182.771L237.661 146.34L237.583 146.305ZM221.306 182.796H253.734V182.71H221.306V182.796ZM266.6 211.983L256.851 189.714L256.773 189.748L266.522 212.017L266.6 211.983ZM256.812 189.689H218.227V189.774H256.812V189.689ZM218.188 189.714L208.234 211.983L208.312 212.017L218.266 189.749L218.188 189.714ZM208.273 211.957H200.063V212.043H208.273V211.957ZM200.102 212.018L233.351 138.746L233.273 138.711L200.024 211.982L200.102 212.018ZM233.312 138.772H242.138V138.686H233.312V138.772ZM242.099 138.746L275.348 212.018L275.426 211.982L242.176 138.711L242.099 138.746ZM275.387 211.957H266.561V212.043H275.387V211.957ZM348.009 159.663V159.706H348.053L348.052 159.662L348.009 159.663ZM340.415 159.663L340.373 159.667L340.376 159.706H340.415V159.663ZM323.483 171.567L323.49 171.525L323.49 171.525L323.483 171.567ZM286.334 187.782V187.739H286.289L286.291 187.784L286.334 187.782ZM293.928 187.782L293.971 187.778L293.967 187.739H293.928V187.782ZM315.273 177.622L315.28 177.58L315.28 177.58L315.273 177.622ZM348.009 159.621H340.415V159.706H348.009V159.621ZM340.458 159.66C339.944 153.387 337.14 149.423 332.984 147.03C328.831 144.638 323.332 143.817 317.428 143.817V143.903C323.326 143.903 328.807 144.723 332.941 147.104C337.072 149.482 339.861 153.42 340.373 159.667L340.458 159.66ZM317.428 143.817C311.523 143.817 306.332 144.972 302.616 147.171C298.899 149.371 296.656 152.616 296.656 156.79H296.742C296.742 152.652 298.963 149.432 302.66 147.245C306.358 145.056 311.532 143.903 317.428 143.903V143.817ZM296.656 156.79C296.656 159.183 297.216 161.123 298.338 162.731C299.459 164.339 301.14 165.614 303.376 166.68C307.847 168.813 314.549 170.122 323.476 171.61L323.49 171.525C314.56 170.037 307.871 168.729 303.413 166.603C301.186 165.54 299.518 164.275 298.408 162.682C297.298 161.091 296.742 159.169 296.742 156.79H296.656ZM323.476 171.61C330.147 172.739 336.81 174.072 341.805 176.877C344.302 178.279 346.381 180.048 347.835 182.341C349.289 184.635 350.121 187.455 350.121 190.963H350.207C350.207 187.441 349.371 184.604 347.907 182.296C346.444 179.987 344.353 178.209 341.847 176.802C336.837 173.989 330.159 172.654 323.49 171.525L323.476 171.61ZM350.121 190.963C350.121 199.926 346.051 205.634 340.201 209.103C334.348 212.573 326.712 213.804 319.583 213.804V213.89C326.719 213.89 334.373 212.658 340.245 209.176C346.119 205.693 350.207 199.958 350.207 190.963H350.121ZM319.583 213.804C310.3 213.804 302.28 212.214 296.441 208.168C290.604 204.123 286.941 197.62 286.377 187.779L286.291 187.784C286.857 197.646 290.53 204.176 296.392 208.238C302.252 212.299 310.292 213.89 319.583 213.89V213.804ZM286.334 187.824H293.928V187.739H286.334V187.824ZM293.885 187.785C294.553 195.492 297.458 200.277 301.961 203.134C306.461 205.988 312.552 206.912 319.583 206.912V206.826C312.556 206.826 306.486 205.903 302.007 203.062C297.531 200.222 294.637 195.464 293.971 187.778L293.885 187.785ZM319.583 206.912C325.076 206.912 330.677 206.168 334.906 203.969C337.022 202.87 338.795 201.406 340.039 199.489C341.284 197.572 341.997 195.203 341.997 192.297H341.912C341.912 195.189 341.202 197.541 339.967 199.443C338.733 201.345 336.972 202.799 334.867 203.894C330.656 206.082 325.071 206.826 319.583 206.826V206.912ZM341.997 192.297C341.997 189.491 341.16 187.3 339.694 185.56C338.229 183.821 336.138 182.535 333.633 181.533C328.624 179.53 321.947 178.657 315.28 177.58L315.266 177.664C321.94 178.742 328.604 179.614 333.601 181.613C336.099 182.612 338.176 183.891 339.629 185.616C341.081 187.339 341.912 189.51 341.912 192.297H341.997ZM315.28 177.58C306.558 176.195 299.87 174.272 295.363 171.224C290.86 168.179 288.532 164.011 288.532 158.124H288.446C288.446 164.039 290.788 168.234 295.315 171.295C299.839 174.353 306.543 176.279 315.266 177.664L315.28 177.58ZM288.532 158.124C288.532 150.136 292.218 144.839 297.67 141.536C303.126 138.232 310.352 136.924 317.428 136.924V136.839C310.343 136.839 303.1 138.148 297.626 141.463C292.15 144.78 288.446 150.104 288.446 158.124H288.532ZM317.428 136.924C324.916 136.924 332.424 138.258 338.122 141.767C343.819 145.274 347.71 150.957 347.966 159.665L348.052 159.662C347.795 150.925 343.888 145.216 338.167 141.694C332.449 138.173 324.924 136.839 317.428 136.839V136.924ZM390.286 212H390.243V212.043H390.286V212ZM390.286 145.707H390.328V145.664H390.286V145.707ZM361.552 145.707H361.509V145.75H361.552V145.707ZM361.552 138.729V138.686H361.509V138.729H361.552ZM426.613 138.729H426.656V138.686H426.613V138.729ZM426.613 145.707V145.75H426.656V145.707H426.613ZM397.88 145.707V145.664H397.837V145.707H397.88ZM397.88 212V212.043H397.922V212H397.88ZM390.328 212V145.707H390.243V212H390.328ZM390.286 145.664H361.552V145.75H390.286V145.664ZM361.595 145.707V138.729H361.509V145.707H361.595ZM361.552 138.772H426.613V138.686H361.552V138.772ZM426.571 138.729V145.707H426.656V138.729H426.571ZM426.613 145.664H397.88V145.75H426.613V145.664ZM397.837 145.707V212H397.922V145.707H397.837ZM397.88 211.957H390.286V212.043H397.88V211.957ZM508.288 138.729H508.33V138.686H508.288V138.729ZM442.815 138.729V138.686H442.773V138.729H442.815ZM450.409 138.729H450.452V138.686H450.409V138.729ZM500.694 138.729V138.686H500.651V138.729H500.694ZM508.245 138.729V183.677H508.33V138.729H508.245ZM508.245 183.677C508.245 190.345 507.321 197.875 502.776 203.738C498.233 209.6 490.064 213.804 475.552 213.804V213.89C490.081 213.89 498.279 209.68 502.844 203.791C507.407 197.904 508.33 190.349 508.33 183.677H508.245ZM475.552 213.804C461.039 213.804 452.87 209.6 448.327 203.738C443.782 197.875 442.858 190.345 442.858 183.677H442.773C442.773 190.349 443.696 197.904 448.259 203.791C452.824 209.68 461.022 213.89 475.552 213.89V213.804ZM442.858 183.677V138.729H442.773V183.677H442.858ZM442.815 138.772H450.409V138.686H442.815V138.772ZM450.367 138.729V183.677H450.452V138.729H450.367ZM450.367 183.677C450.367 193.282 453.475 199.094 458.184 202.504C462.889 205.911 469.186 206.912 475.552 206.912V206.826C469.192 206.826 462.918 205.826 458.234 202.434C453.553 199.045 450.452 193.262 450.452 183.677H450.367ZM475.552 206.912C481.917 206.912 488.214 205.911 492.919 202.504C497.628 199.094 500.736 193.282 500.736 183.677H500.651C500.651 193.262 497.55 199.045 492.869 202.434C488.185 205.826 481.911 206.826 475.552 206.826V206.912ZM500.736 183.677V138.729H500.651V183.677H500.736ZM500.694 138.772H508.288V138.686H500.694V138.772ZM532.744 212H532.701V212.043H532.744V212ZM532.744 138.729V138.686H532.701V138.729H532.744ZM540.338 138.729H540.381V138.686H540.338V138.729ZM540.338 178.34H540.295V178.432L540.365 178.373L540.338 178.34ZM587.646 138.729V138.686H587.631L587.619 138.696L587.646 138.729ZM598.627 138.729L598.654 138.762L598.745 138.686H598.627V138.729ZM562.299 169.002L562.271 168.969L562.237 168.998L562.267 169.031L562.299 169.002ZM601.089 212V212.043H601.186L601.121 211.971L601.089 212ZM590.314 212L590.283 212.029L590.295 212.043H590.314V212ZM556.347 174.133L556.379 174.104L556.351 174.074L556.32 174.1L556.347 174.133ZM540.338 187.268L540.311 187.235L540.295 187.248V187.268H540.338ZM540.338 212V212.043H540.381V212H540.338ZM532.787 212V138.729H532.701V212H532.787ZM532.744 138.772H540.338V138.686H532.744V138.772ZM540.295 138.729V178.34H540.381V138.729H540.295ZM540.365 178.373L587.674 138.762L587.619 138.696L540.311 178.308L540.365 178.373ZM587.646 138.772H598.627V138.686H587.646V138.772ZM598.599 138.696L562.271 168.969L562.326 169.035L598.654 138.762L598.599 138.696ZM562.267 169.031L601.058 212.029L601.121 211.971L562.331 168.973L562.267 169.031ZM601.089 211.957H590.314V212.043H601.089V211.957ZM590.346 211.971L556.379 174.104L556.315 174.162L590.283 212.029L590.346 211.971ZM556.32 174.1L540.311 187.235L540.365 187.301L556.374 174.166L556.32 174.1ZM540.295 187.268V212H540.381V187.268H540.295ZM540.338 211.957H532.744V212.043H540.338V211.957ZM663.094 182.753V182.796H663.16L663.133 182.736L663.094 182.753ZM646.983 146.323L647.022 146.305L646.983 146.218L646.944 146.305L646.983 146.323ZM630.666 182.753L630.627 182.736L630.6 182.796H630.666V182.753ZM675.922 212L675.882 212.017L675.894 212.043H675.922V212ZM666.173 189.731L666.212 189.714L666.201 189.689H666.173V189.731ZM627.587 189.731V189.689H627.56L627.548 189.714L627.587 189.731ZM617.633 212V212.043H617.661L617.672 212.017L617.633 212ZM609.423 212L609.384 211.982L609.357 212.043H609.423V212ZM642.672 138.729V138.686H642.645L642.634 138.711L642.672 138.729ZM651.498 138.729L651.537 138.711L651.525 138.686H651.498V138.729ZM684.747 212V212.043H684.813L684.786 211.982L684.747 212ZM663.133 182.736L647.022 146.305L646.943 146.34L663.055 182.77L663.133 182.736ZM646.944 146.305L630.627 182.736L630.705 182.771L647.022 146.34L646.944 146.305ZM630.666 182.796H663.094V182.71H630.666V182.796ZM675.961 211.983L666.212 189.714L666.133 189.748L675.882 212.017L675.961 211.983ZM666.173 189.689H627.587V189.774H666.173V189.689ZM627.548 189.714L617.594 211.983L617.672 212.017L627.626 189.749L627.548 189.714ZM617.633 211.957H609.423V212.043H617.633V211.957ZM609.462 212.018L642.711 138.746L642.634 138.711L609.384 211.982L609.462 212.018ZM642.672 138.772H651.498V138.686H642.672V138.772ZM651.459 138.746L684.708 212.018L684.786 211.982L651.537 138.711L651.459 138.746ZM684.747 211.957H675.922V212.043H684.747V211.957ZM701.339 212H701.296V212.043H701.339V212ZM701.339 138.729V138.686H701.296V138.729H701.339ZM750.699 176.288L750.69 176.246L750.656 176.254V176.288H750.699ZM750.699 176.493H750.656V176.53L750.693 176.535L750.699 176.493ZM763.732 196.812L763.689 196.814V196.814L763.732 196.812ZM766.298 212V212.043H766.405L766.327 211.969L766.298 212ZM758.088 212L758.056 212.028L758.068 212.043H758.088V212ZM756.138 197.017L756.181 197.017V197.017L756.138 197.017ZM708.933 179.777V179.734H708.89V179.777H708.933ZM708.933 212V212.043H708.975V212H708.933ZM708.933 145.707V145.664H708.89V145.707H708.933ZM708.933 172.799H708.89V172.842H708.933V172.799ZM701.381 212V138.729H701.296V212H701.381ZM701.339 138.772H741.258V138.686H701.339V138.772ZM741.258 138.772C747.463 138.772 753.405 139.874 757.794 142.895C762.181 145.913 765.023 150.85 765.023 158.535H765.109C765.109 150.826 762.256 145.86 757.843 142.824C753.433 139.79 747.471 138.686 741.258 138.686V138.772ZM765.023 158.535C765.023 166.316 760.212 174.096 750.69 176.246L750.709 176.33C760.274 174.17 765.109 166.352 765.109 158.535H765.023ZM750.656 176.288V176.493H750.742V176.288H750.656ZM750.693 176.535C755.865 177.355 758.982 179.427 760.873 182.787C762.766 186.151 763.433 190.811 763.689 196.814L763.775 196.81C763.518 190.807 762.851 186.128 760.947 182.745C759.041 179.357 755.898 177.274 750.706 176.451L750.693 176.535ZM763.689 196.814C763.792 199.123 763.997 202.511 764.395 205.528C764.594 207.036 764.841 208.452 765.148 209.595C765.302 210.166 765.47 210.67 765.656 211.083C765.841 211.495 766.044 211.82 766.268 212.031L766.327 211.969C766.115 211.769 765.917 211.456 765.734 211.048C765.551 210.64 765.384 210.141 765.231 209.573C764.925 208.435 764.679 207.023 764.48 205.516C764.083 202.504 763.877 199.119 763.775 196.81L763.689 196.814ZM766.298 211.957H758.088V212.043H766.298V211.957ZM758.12 211.972C757.793 211.594 757.513 210.973 757.276 210.124C757.04 209.275 756.848 208.203 756.694 206.928C756.386 204.378 756.232 201.019 756.181 197.017L756.095 197.018C756.147 201.021 756.301 204.383 756.609 206.938C756.763 208.216 756.956 209.292 757.194 210.147C757.432 211 757.716 211.636 758.056 212.028L758.12 211.972ZM756.181 197.017C756.078 190.548 754.795 186.223 751.947 183.517C749.1 180.812 744.699 179.734 738.385 179.734V179.82C744.693 179.82 749.066 180.897 751.888 183.579C754.711 186.261 755.993 190.557 756.095 197.018L756.181 197.017ZM738.385 179.734H708.933V179.82H738.385V179.734ZM708.89 179.777V212H708.975V179.777H708.89ZM708.933 211.957H701.339V212.043H708.933V211.957ZM708.89 145.707V172.799H708.975V145.707H708.89ZM708.933 172.842H741.053V172.756H708.933V172.842ZM741.053 172.842C745.213 172.842 749.175 172.071 752.097 169.896C755.022 167.718 756.899 164.138 756.899 158.535H756.814C756.814 164.117 754.945 167.669 752.046 169.827C749.145 171.987 745.205 172.756 741.053 172.756V172.842ZM756.899 158.535C756.899 153.134 754.867 149.913 751.954 148.044C749.044 146.177 745.263 145.664 741.771 145.664V145.75C745.258 145.75 749.019 146.263 751.908 148.116C754.793 149.967 756.814 153.16 756.814 158.535H756.899ZM741.771 145.664H708.933V145.75H741.771V145.664ZM178.055 305.753V305.796H178.121L178.094 305.736L178.055 305.753ZM161.943 269.323L161.983 269.305L161.944 269.218L161.904 269.305L161.943 269.323ZM145.627 305.753L145.588 305.736L145.561 305.796H145.627V305.753ZM190.882 335L190.843 335.017L190.855 335.043H190.882V335ZM181.134 312.731L181.173 312.714L181.161 312.689H181.134V312.731ZM142.548 312.731V312.689H142.52L142.509 312.714L142.548 312.731ZM132.594 335V335.043H132.622L132.633 335.017L132.594 335ZM124.384 335L124.345 334.982L124.318 335.043H124.384V335ZM157.633 261.729V261.686H157.606L157.594 261.711L157.633 261.729ZM166.459 261.729L166.498 261.711L166.486 261.686H166.459V261.729ZM199.708 335V335.043H199.774L199.747 334.982L199.708 335ZM178.094 305.736L161.983 269.305L161.904 269.34L178.016 305.77L178.094 305.736ZM161.904 269.305L145.588 305.736L145.666 305.771L161.982 269.34L161.904 269.305ZM145.627 305.796H178.055V305.71H145.627V305.796ZM190.922 334.983L181.173 312.714L181.094 312.748L190.843 335.017L190.922 334.983ZM181.134 312.689H142.548V312.774H181.134V312.689ZM142.509 312.714L132.555 334.983L132.633 335.017L142.587 312.749L142.509 312.714ZM132.594 334.957H124.384V335.043H132.594V334.957ZM124.423 335.018L157.672 261.746L157.594 261.711L124.345 334.982L124.423 335.018ZM157.633 261.772H166.459V261.686H157.633V261.772ZM166.42 261.746L199.669 335.018L199.747 334.982L166.498 261.711L166.42 261.746ZM199.708 334.957H190.882V335.043H199.708V334.957ZM216.3 335H216.257V335.043H216.3V335ZM216.3 261.729V261.686H216.257V261.729H216.3ZM265.66 299.288L265.651 299.246L265.617 299.254V299.288H265.66ZM265.66 299.493H265.617V299.53L265.653 299.535L265.66 299.493ZM278.693 319.812L278.65 319.814V319.814L278.693 319.812ZM281.258 335V335.043H281.366L281.288 334.969L281.258 335ZM273.049 335L273.016 335.028L273.029 335.043H273.049V335ZM271.099 320.017L271.142 320.017L271.142 320.017L271.099 320.017ZM223.893 302.777V302.734H223.851V302.777H223.893ZM223.893 335V335.043H223.936V335H223.893ZM223.893 268.707V268.664H223.851V268.707H223.893ZM223.893 295.799H223.851V295.842H223.893V295.799ZM216.342 335V261.729H216.257V335H216.342ZM216.3 261.772H256.219V261.686H216.3V261.772ZM256.219 261.772C262.424 261.772 268.366 262.874 272.755 265.895C277.142 268.913 279.984 273.85 279.984 281.535H280.07C280.07 273.826 277.217 268.86 272.804 265.824C268.393 262.79 262.431 261.686 256.219 261.686V261.772ZM279.984 281.535C279.984 289.316 275.173 297.096 265.651 299.246L265.67 299.33C275.235 297.17 280.07 289.352 280.07 281.535H279.984ZM265.617 299.288V299.493H265.703V299.288H265.617ZM265.653 299.535C270.826 300.355 273.943 302.427 275.834 305.787C277.727 309.151 278.394 313.811 278.65 319.814L278.736 319.81C278.479 313.807 277.812 309.128 275.908 305.745C274.002 302.357 270.859 300.274 265.667 299.451L265.653 299.535ZM278.65 319.814C278.753 322.123 278.958 325.511 279.356 328.528C279.555 330.036 279.802 331.452 280.109 332.595C280.263 333.166 280.431 333.67 280.617 334.083C280.802 334.495 281.005 334.82 281.229 335.031L281.288 334.969C281.076 334.769 280.878 334.456 280.695 334.048C280.512 333.64 280.345 333.141 280.192 332.573C279.886 331.435 279.64 330.023 279.441 328.516C279.043 325.504 278.838 322.119 278.736 319.81L278.65 319.814ZM281.258 334.957H273.049V335.043H281.258V334.957ZM273.081 334.972C272.754 334.594 272.474 333.973 272.237 333.124C272 332.275 271.808 331.203 271.655 329.928C271.347 327.378 271.193 324.019 271.142 320.017L271.056 320.018C271.108 324.021 271.262 327.383 271.57 329.938C271.724 331.216 271.916 332.292 272.155 333.147C272.392 334 272.677 334.636 273.016 335.028L273.081 334.972ZM271.142 320.017C271.039 313.548 269.756 309.223 266.908 306.517C264.061 303.812 259.66 302.734 253.346 302.734V302.82C259.654 302.82 264.027 303.897 266.849 306.579C269.671 309.261 270.954 313.557 271.056 320.018L271.142 320.017ZM253.346 302.734H223.893V302.82H253.346V302.734ZM223.851 302.777V335H223.936V302.777H223.851ZM223.893 334.957H216.3V335.043H223.893V334.957ZM223.851 268.707V295.799H223.936V268.707H223.851ZM223.893 295.842H256.014V295.756H223.893V295.842ZM256.014 295.842C260.174 295.842 264.136 295.071 267.058 292.896C269.983 290.718 271.86 287.138 271.86 281.535H271.775C271.775 287.117 269.906 290.669 267.007 292.827C264.106 294.987 260.166 295.756 256.014 295.756V295.842ZM271.86 281.535C271.86 276.134 269.827 272.913 266.915 271.044C264.005 269.177 260.224 268.664 256.732 268.664V268.75C260.218 268.75 263.98 269.263 266.868 271.116C269.754 272.967 271.775 276.16 271.775 281.535H271.86ZM256.732 268.664H223.893V268.75H256.732V268.664ZM365.429 307.087V307.044H365.393L365.387 307.079L365.429 307.087ZM373.023 307.087L373.066 307.091L373.07 307.044H373.023V307.087ZM372.407 286.46V286.503H372.455L372.45 286.455L372.407 286.46ZM364.813 286.46L364.771 286.467L364.777 286.503H364.813V286.46ZM365.429 307.13H373.023V307.044H365.429V307.13ZM372.98 307.083C371.341 323.479 357.815 336.804 336.798 336.804V336.89C357.855 336.89 371.421 323.534 373.066 307.091L372.98 307.083ZM336.798 336.804C324.903 336.804 315.166 333.062 308.402 326.388C301.639 319.714 297.845 310.105 297.845 298.364H297.759C297.759 310.124 301.559 319.756 308.342 326.449C315.124 333.141 324.885 336.89 336.798 336.89V336.804ZM297.845 298.364C297.845 290.009 300.434 280.398 306.596 272.877C312.758 265.358 322.494 259.924 336.798 259.924V259.839C322.47 259.839 312.709 265.283 306.53 272.823C300.353 280.362 297.759 289.993 297.759 298.364H297.845ZM336.798 259.924C344.797 259.924 353.126 261.745 359.736 265.972C366.345 270.199 371.238 276.833 372.365 286.465L372.45 286.455C371.319 276.795 366.411 270.14 359.782 265.9C353.155 261.662 344.808 259.839 336.798 259.839V259.924ZM372.407 286.418H364.813V286.503H372.407V286.418ZM364.856 286.454C363.725 279.463 360.023 274.552 354.946 271.39C349.87 268.229 343.422 266.817 336.798 266.817V266.903C343.411 266.903 349.842 268.313 354.901 271.463C359.958 274.612 363.644 279.502 364.771 286.467L364.856 286.454ZM336.798 266.817C327.708 266.817 320 269.359 314.564 274.577C309.127 279.795 305.969 287.683 305.969 298.364H306.054C306.054 287.7 309.207 279.837 314.623 274.639C320.039 269.44 327.724 266.903 336.798 266.903V266.817ZM305.969 298.364C305.969 306.53 308.1 314.417 313.021 320.263C317.944 326.111 325.653 329.912 336.798 329.912V329.826C325.674 329.826 317.99 326.033 313.087 320.208C308.182 314.381 306.054 306.516 306.054 298.364H305.969ZM336.798 329.912C345.528 329.912 352.055 327.703 356.721 323.744C361.387 319.785 364.187 314.08 365.471 307.095L365.387 307.079C364.105 314.051 361.313 319.736 356.666 323.679C352.019 327.622 345.513 329.826 336.798 329.826V329.912ZM393.283 335H393.241V335.043H393.283V335ZM393.283 261.729V261.686H393.241V261.729H393.283ZM400.877 261.729H400.92V261.686H400.877V261.729ZM400.877 292.72H400.835V292.763H400.877V292.72ZM453.83 292.72V292.763H453.872V292.72H453.83ZM453.83 261.729V261.686H453.787V261.729H453.83ZM461.424 261.729H461.466V261.686H461.424V261.729ZM461.424 335V335.043H461.466V335H461.424ZM453.83 335H453.787V335.043H453.83V335ZM453.83 299.698H453.872V299.656H453.83V299.698ZM400.877 299.698V299.656H400.835V299.698H400.877ZM400.877 335V335.043H400.92V335H400.877ZM393.326 335V261.729H393.241V335H393.326ZM393.283 261.772H400.877V261.686H393.283V261.772ZM400.835 261.729V292.72H400.92V261.729H400.835ZM400.877 292.763H453.83V292.678H400.877V292.763ZM453.872 292.72V261.729H453.787V292.72H453.872ZM453.83 261.772H461.424V261.686H453.83V261.772ZM461.381 261.729V335H461.466V261.729H461.381ZM461.424 334.957H453.83V335.043H461.424V334.957ZM453.872 335V299.698H453.787V335H453.872ZM453.83 299.656H400.877V299.741H453.83V299.656ZM400.835 299.698V335H400.92V299.698H400.835ZM400.877 334.957H393.283V335.043H400.877V334.957ZM485.016 335H484.973V335.043H485.016V335ZM485.016 261.729V261.686H484.973V261.729H485.016ZM492.61 261.729H492.653V261.686H492.61V261.729ZM492.61 335V335.043H492.653V335H492.61ZM485.059 335V261.729H484.973V335H485.059ZM485.016 261.772H492.61V261.686H485.016V261.772ZM492.567 261.729V335H492.653V261.729H492.567ZM492.61 334.957H485.016V335.043H492.61V334.957ZM537.935 335H537.893V335.043H537.935V335ZM537.935 268.707H537.978V268.664H537.935V268.707ZM509.201 268.707H509.159V268.75H509.201V268.707ZM509.201 261.729V261.686H509.159V261.729H509.201ZM574.263 261.729H574.306V261.686H574.263V261.729ZM574.263 268.707V268.75H574.306V268.707H574.263ZM545.529 268.707V268.664H545.486V268.707H545.529ZM545.529 335V335.043H545.572V335H545.529ZM537.978 335V268.707H537.893V335H537.978ZM537.935 268.664H509.201V268.75H537.935V268.664ZM509.244 268.707V261.729H509.159V268.707H509.244ZM509.201 261.772H574.263V261.686H509.201V261.772ZM574.22 261.729V268.707H574.306V261.729H574.22ZM574.263 268.664H545.529V268.75H574.263V268.664ZM545.486 268.707V335H545.572V268.707H545.486ZM545.529 334.957H537.935V335.043H545.529V334.957ZM591.286 335H591.243V335.043H591.286V335ZM591.286 261.729V261.686H591.243V261.729H591.286ZM649.575 261.729H649.617V261.686H649.575V261.729ZM649.575 268.707V268.75H649.617V268.707H649.575ZM598.88 268.707V268.664H598.837V268.707H598.88ZM598.88 293.541H598.837V293.584H598.88V293.541ZM647.727 293.541H647.77V293.498H647.727V293.541ZM647.727 300.519V300.562H647.77V300.519H647.727ZM598.88 300.519V300.477H598.837V300.519H598.88ZM598.88 328.022H598.837V328.065H598.88V328.022ZM650.396 328.022H650.438V327.979H650.396V328.022ZM650.396 335V335.043H650.438V335H650.396ZM591.329 335V261.729H591.243V335H591.329ZM591.286 261.772H649.575V261.686H591.286V261.772ZM649.532 261.729V268.707H649.617V261.729H649.532ZM649.575 268.664H598.88V268.75H649.575V268.664ZM598.837 268.707V293.541H598.923V268.707H598.837ZM598.88 293.584H647.727V293.498H598.88V293.584ZM647.685 293.541V300.519H647.77V293.541H647.685ZM647.727 300.477H598.88V300.562H647.727V300.477ZM598.837 300.519V328.022H598.923V300.519H598.837ZM598.88 328.065H650.396V327.979H598.88V328.065ZM650.353 328.022V335H650.438V328.022H650.353ZM650.396 334.957H591.286V335.043H650.396V334.957ZM734.603 307.087V307.044H734.567L734.561 307.079L734.603 307.087ZM742.197 307.087L742.24 307.091L742.244 307.044H742.197V307.087ZM741.581 286.46V286.503H741.629L741.624 286.455L741.581 286.46ZM733.987 286.46L733.945 286.467L733.951 286.503H733.987V286.46ZM734.603 307.13H742.197V307.044H734.603V307.13ZM742.154 307.083C740.515 323.479 726.989 336.804 705.972 336.804V336.89C727.029 336.89 740.595 323.534 742.24 307.091L742.154 307.083ZM705.972 336.804C694.077 336.804 684.34 333.062 677.576 326.388C670.812 319.714 667.019 310.105 667.019 298.364H666.933C666.933 310.124 670.733 319.756 677.516 326.449C684.298 333.141 694.059 336.89 705.972 336.89V336.804ZM667.019 298.364C667.019 290.009 669.608 280.398 675.77 272.877C681.932 265.358 691.668 259.924 705.972 259.924V259.839C691.644 259.839 681.883 265.283 675.704 272.823C669.527 280.362 666.933 289.993 666.933 298.364H667.019ZM705.972 259.924C713.971 259.924 722.3 261.745 728.91 265.972C735.519 270.199 740.412 276.833 741.539 286.465L741.624 286.455C740.493 276.795 735.585 270.14 728.956 265.9C722.329 261.662 713.982 259.839 705.972 259.839V259.924ZM741.581 286.418H733.987V286.503H741.581V286.418ZM734.03 286.454C732.899 279.463 729.197 274.552 724.12 271.39C719.044 268.229 712.596 266.817 705.972 266.817V266.903C712.585 266.903 719.016 268.313 724.075 271.463C729.132 274.612 732.818 279.502 733.945 286.467L734.03 286.454ZM705.972 266.817C696.882 266.817 689.174 269.359 683.738 274.577C678.301 279.795 675.143 287.683 675.143 298.364H675.228C675.228 287.7 678.381 279.837 683.797 274.639C689.213 269.44 696.898 266.903 705.972 266.903V266.817ZM675.143 298.364C675.143 306.53 677.274 314.417 682.195 320.263C687.118 326.111 694.827 329.912 705.972 329.912V329.826C694.848 329.826 687.164 326.033 682.261 320.208C677.356 314.381 675.228 306.516 675.228 298.364H675.143ZM705.972 329.912C714.702 329.912 721.229 327.703 725.895 323.744C730.561 319.785 733.361 314.08 734.645 307.095L734.561 307.079C733.279 314.051 730.487 319.736 725.84 323.679C721.193 327.622 714.687 329.826 705.972 329.826V329.912ZM784.213 335H784.17V335.043H784.213V335ZM784.213 268.707H784.256V268.664H784.213V268.707ZM755.479 268.707H755.436V268.75H755.479V268.707ZM755.479 261.729V261.686H755.436V261.729H755.479ZM820.541 261.729H820.583V261.686H820.541V261.729ZM820.541 268.707V268.75H820.583V268.707H820.541ZM791.807 268.707V268.664H791.764V268.707H791.807ZM791.807 335V335.043H791.85V335H791.807ZM784.256 335V268.707H784.17V335H784.256ZM784.213 268.664H755.479V268.75H784.213V268.664ZM755.522 268.707V261.729H755.436V268.707H755.522ZM755.479 261.772H820.541V261.686H755.479V261.772ZM820.498 261.729V268.707H820.583V261.729H820.498ZM820.541 268.664H791.807V268.75H820.541V268.664ZM791.764 268.707V335H791.85V268.707H791.764ZM791.807 334.957H784.213V335.043H791.807V334.957ZM893.595 282.663V282.706H893.639L893.637 282.662L893.595 282.663ZM886.001 282.663L885.958 282.667L885.961 282.706H886.001V282.663ZM869.068 294.567L869.075 294.525L869.075 294.525L869.068 294.567ZM831.919 310.782V310.739H831.874L831.877 310.784L831.919 310.782ZM839.513 310.782L839.556 310.778L839.553 310.739H839.513V310.782ZM860.859 300.622L860.865 300.58L860.865 300.58L860.859 300.622ZM893.595 282.621H886.001V282.706H893.595V282.621ZM886.043 282.66C885.529 276.387 882.725 272.423 878.569 270.03C874.416 267.638 868.917 266.817 863.014 266.817V266.903C868.912 266.903 874.393 267.723 878.526 270.104C882.657 272.482 885.446 276.42 885.958 282.667L886.043 282.66ZM863.014 266.817C857.108 266.817 851.917 267.972 848.202 270.171C844.484 272.371 842.241 275.616 842.241 279.79H842.327C842.327 275.652 844.548 272.432 848.245 270.245C851.944 268.056 857.118 266.903 863.014 266.903V266.817ZM842.241 279.79C842.241 282.183 842.801 284.123 843.923 285.731C845.045 287.339 846.726 288.614 848.962 289.68C853.432 291.813 860.135 293.122 869.061 294.61L869.075 294.525C860.146 293.037 853.456 291.729 848.999 289.603C846.771 288.54 845.104 287.275 843.993 285.682C842.883 284.091 842.327 282.169 842.327 279.79H842.241ZM869.061 294.61C875.732 295.739 882.395 297.072 887.391 299.877C889.888 301.279 891.966 303.048 893.421 305.341C894.875 307.635 895.707 310.455 895.707 313.963H895.792C895.792 310.441 894.957 307.604 893.493 305.296C892.029 302.987 889.938 301.209 887.433 299.802C882.422 296.989 875.745 295.654 869.075 294.525L869.061 294.61ZM895.707 313.963C895.707 322.926 891.636 328.634 885.786 332.103C879.934 335.573 872.297 336.804 865.169 336.804V336.89C872.304 336.89 879.958 335.658 885.83 332.176C891.704 328.693 895.792 322.958 895.792 313.963H895.707ZM865.169 336.804C855.885 336.804 847.865 335.214 842.026 331.168C836.19 327.123 832.526 320.62 831.962 310.779L831.877 310.784C832.442 320.646 836.115 327.176 841.978 331.238C847.837 335.299 855.878 336.89 865.169 336.89V336.804ZM831.919 310.824H839.513V310.739H831.919V310.824ZM839.471 310.785C840.139 318.492 843.043 323.277 847.546 326.134C852.046 328.988 858.137 329.912 865.169 329.912V329.826C858.141 329.826 852.071 328.903 847.592 326.062C843.116 323.222 840.222 318.464 839.556 310.778L839.471 310.785ZM865.169 329.912C870.661 329.912 876.262 329.168 880.492 326.969C882.607 325.87 884.38 324.406 885.624 322.489C886.869 320.572 887.583 318.203 887.583 315.297H887.497C887.497 318.189 886.787 320.541 885.553 322.443C884.318 324.345 882.557 325.799 880.452 326.894C876.241 329.082 870.656 329.826 865.169 329.826V329.912ZM887.583 315.297C887.583 312.491 886.746 310.3 885.28 308.56C883.814 306.821 881.723 305.535 879.218 304.533C874.209 302.53 867.533 301.657 860.865 300.58L860.852 300.664C867.525 301.742 874.189 302.614 879.186 304.613C881.684 305.612 883.761 306.891 885.214 308.616C886.666 310.339 887.497 312.51 887.497 315.297H887.583ZM860.865 300.58C852.144 299.195 845.456 297.272 840.948 294.224C836.445 291.179 834.117 287.011 834.117 281.124H834.032C834.032 287.039 836.373 291.234 840.901 294.295C845.424 297.354 852.128 299.279 860.852 300.664L860.865 300.58ZM834.117 281.124C834.117 273.136 837.803 267.839 843.256 264.536C848.711 261.232 855.937 259.924 863.014 259.924V259.839C855.929 259.839 848.685 261.148 843.211 264.463C837.735 267.78 834.032 273.104 834.032 281.124H834.117ZM863.014 259.924C870.501 259.924 878.009 261.258 883.708 264.767C889.404 268.274 893.296 273.957 893.552 282.665L893.637 282.662C893.38 273.925 889.473 268.216 883.753 264.694C878.035 261.173 870.509 259.839 863.014 259.839V259.924Z" fill="black"/>
<path fill-rule="evenodd" clip-rule="evenodd" d="M125 0H0V125H125V0ZM72.7544 71.8114L67.7891 64.9032V20H105.353V24.9652H72.9702L72.7544 71.8114ZM105.353 31.2258H100.171V94.2631H105.353V31.2258ZM74.043 31.2803L81.167 34.7344L82.4761 32.0349L75.3521 28.5808L74.043 31.2803ZM80.9512 47.4713L73.8271 44.0172L75.1357 41.3179L82.2598 44.772L80.9512 47.4713ZM73.6113 56.7543L80.7354 60.2084L82.0439 57.5089L74.9199 54.0548L73.6113 56.7543ZM80.5195 72.9453L73.395 69.4912L74.7041 66.7917L81.8281 70.2458L80.5195 72.9453ZM90.6655 36.1367L97.7896 32.6826L99.0986 35.3821L91.9746 38.8362L90.6655 36.1367ZM97.7896 45.6355L90.6655 49.0896L91.9746 51.7889L99.0986 48.3348L97.7896 45.6355ZM90.6655 61.6106L97.7896 58.1565L99.0986 60.856L91.9746 64.3101L90.6655 61.6106ZM97.7896 71.1094L90.6655 74.5635L91.9746 77.2629L99.0986 73.8088L97.7896 71.1094ZM83.7646 29.4988V89.2979L88.9458 95.1266V29.4988H83.7646ZM44.269 76.3451V71.5957H47.269V74.8451H50.3027V77.8451H45.769H44.269V76.3451ZM44.4849 78.9355V83.6849V85.1849H45.9849H50.5181V82.1849H47.4849V78.9355H44.4849ZM51.8247 83.6849V78.9355H54.8247V82.1849H57.8584V85.1849H53.3247H51.8247V83.6849ZM51.8247 71.5957V76.3451V77.8451H53.3247H57.8584V74.8451H54.8247V71.5957H51.8247ZM73.186 85.196L48.144 49.1439H53.541L78.583 85.196H73.186ZM49.4395 57.995L46.6328 54.1093L25.0449 85.196H30.2261L49.4395 57.995ZM19 98.7965L21.3745 94.0472L46.2012 99.4442L81.3896 91.8884L84.8438 96.2059L74.6973 98.5807L106 97.933V103.546L50.9502 106.136L19 98.7965Z" fill="black"/>
</svg>
