<svg width="383" height="378" viewBox="0 0 383 378" fill="none" xmlns="http://www.w3.org/2000/svg">
<path d="M214.84 196.967L236.399 226.962L237.336 23.5589H377.938V2H214.84V196.967Z" fill="#372943" stroke="#372943" stroke-width="3"/>
<path d="M377.938 50.7419H355.441V324.446H377.938V50.7419Z" fill="#372943" stroke="#372943" stroke-width="3"/>
<path d="M244.835 45.1178L275.767 60.1153" stroke="#372943" stroke-width="3"/>
<path d="M243.897 100.421L274.829 115.419" stroke="#372943" stroke-width="3"/>
<path d="M242.959 155.724L273.892 170.722" stroke="#372943" stroke-width="3"/>
<path d="M242.022 211.028L272.955 226.025" stroke="#372943" stroke-width="3"/>
<path d="M317.01 77.9249L347.942 62.9274" stroke="#372943" stroke-width="3"/>
<path d="M317.01 134.165L347.942 119.168" stroke="#372943" stroke-width="3"/>
<path d="M317.01 188.531L347.942 173.534" stroke="#372943" stroke-width="3"/>
<path d="M317.01 244.772L347.942 229.774" stroke="#372943" stroke-width="3"/>
<path d="M284.203 302.887V43.2432H306.699V328.196L284.203 302.887Z" fill="#372943" stroke="#372943" stroke-width="3"/>
<path d="M119.231 226.025V246.647H138.915" stroke="black" stroke-width="3"/>
<path d="M120.167 257.895V278.516H139.852" stroke="black" stroke-width="3"/>
<path d="M152.037 257.895V278.516H171.721" stroke="black" stroke-width="3"/>
<path d="M152.037 226.025V246.647H171.721" stroke="black" stroke-width="3"/>
<path d="M135.165 166.972L122.98 150.1L29.2456 285.078H51.7418L135.165 166.972Z" fill="black"/>
<path d="M238.273 285.078L129.541 128.541H152.975L261.707 285.078H238.273Z" fill="black"/>
<path d="M135.165 166.972L122.98 150.1L29.2456 285.078H51.7418L135.165 166.972Z" stroke="black"/>
<path d="M238.273 285.078L129.541 128.541H152.975L261.707 285.078H238.273Z" stroke="black"/>
<path d="M13.3108 323.509L3 344.13L141.727 376L380.749 364.752V340.381L244.835 343.193L288.89 332.882L273.892 314.135L121.105 346.942L13.3108 323.509Z" fill="#8B1023" stroke="#8B1023" stroke-width="3"/>
</svg>
